{"glyphs":{"0":{"ha":938,"x_min":95,"x_max":843,"o":"m 468 -28 q 275 19 359 -28 q 143 152 190 65 q 95 349 95 238 l 95 1034 q 143 1231 95 1145 q 275 1364 190 1317 q 468 1411 359 1411 q 740 1308 637 1411 q 843 1034 843 1204 l 843 349 q 740 75 843 179 q 468 -28 637 -28 m 468 147 q 615 200 563 147 q 667 349 667 254 l 667 1034 q 615 1183 667 1129 q 468 1236 563 1236 q 323 1183 375 1236 q 272 1034 272 1129 l 272 349 q 324 201 272 256 q 468 147 377 147 z "},"1":{"ha":409,"x_min":115,"x_max":294,"o":"m 115 1389 l 294 1389 l 294 0 l 115 0 l 115 1389 z "},"2":{"ha":942,"x_min":89,"x_max":835,"o":"m 91 0 q 89 101 89 38 q 96 235 89 187 q 117 337 103 284 q 192 501 143 435 q 349 671 242 567 l 421 740 l 488 810 q 615 948 579 899 q 651 1058 651 998 q 598 1190 651 1139 q 470 1242 546 1242 q 405 1232 433 1242 q 282 1125 317 1204 l 123 1204 q 215 1324 157 1274 q 349 1401 274 1375 q 472 1421 409 1421 q 679 1353 589 1421 q 785 1233 744 1304 q 829 1087 825 1163 q 807 935 835 1004 q 730 809 778 865 q 595 665 683 752 l 554 625 q 383 459 433 512 q 304 339 333 407 q 272 177 274 272 l 833 177 l 833 0 l 91 0 z "},"3":{"ha":950,"x_min":89,"x_max":851,"o":"m 393 -32 q 225 0 304 -32 q 89 93 147 32 l 196 236 q 393 145 268 145 q 490 161 442 145 q 579 211 540 179 q 643 290 619 244 q 673 419 673 349 q 653 532 673 478 q 567 636 625 595 q 440 677 510 677 q 329 643 381 677 l 272 812 q 438 850 371 823 q 556 927 506 877 q 595 988 581 952 q 609 1060 609 1024 q 542 1204 609 1145 q 437 1238 502 1238 q 395 1234 409 1238 q 328 1206 363 1228 q 272 1141 294 1185 l 129 1246 q 226 1350 167 1308 q 357 1409 286 1393 q 435 1417 391 1417 q 556 1396 498 1417 q 657 1337 613 1375 q 753 1210 718 1284 q 788 1058 788 1137 q 756 905 788 968 q 659 782 724 841 q 754 701 712 750 q 817 593 796 653 q 851 417 851 504 q 802 210 851 313 q 631 31 740 93 q 393 -32 522 -32 z "},"4":{"ha":1105,"x_min":91,"x_max":1010,"o":"m 165 274 l 141 325 q 91 532 91 431 q 133 709 91 627 q 235 856 175 792 q 391 1008 296 921 q 586 1207 520 1125 q 669 1395 653 1290 l 847 1395 q 768 1163 833 1268 q 508 879 694 1040 q 327 691 383 764 q 272 538 272 619 q 288 450 272 502 l 681 450 l 681 907 l 857 1069 l 857 450 l 1010 450 l 1010 274 l 857 274 l 857 0 l 681 0 l 681 274 l 165 274 z "},"5":{"ha":1016,"x_min":95,"x_max":929,"o":"m 442 -42 q 257 -11 347 -42 q 95 81 167 20 l 196 228 q 312 159 246 183 q 444 135 377 135 q 556 151 502 135 q 647 196 609 167 q 724 294 696 234 q 752 423 752 353 q 727 546 752 488 q 657 643 702 603 q 478 704 585 704 q 317 641 369 704 l 173 758 l 173 1389 l 813 1389 l 813 1212 l 349 1212 l 349 863 q 444 881 393 875 q 621 860 536 887 q 772 776 706 833 q 888 618 847 710 q 929 423 929 526 q 883 214 929 312 q 754 56 837 117 q 611 -16 692 10 q 442 -42 530 -42 z "},"6":{"ha":1103,"x_min":91,"x_max":1014,"o":"m 532 -36 q 91 710 91 0 q 315 1351 91 1192 q 540 1419 409 1419 q 766 1373 641 1419 l 704 1208 q 544 1242 613 1242 q 417 1206 468 1242 q 306 1031 343 1157 q 268 716 268 905 q 329 304 268 466 q 567 141 391 141 q 758 216 683 141 q 821 312 802 256 q 837 431 841 367 q 792 563 833 504 q 688 657 750 623 q 563 690 627 690 q 480 676 522 690 q 407 633 438 661 l 407 831 q 498 861 448 853 q 593 865 548 869 q 811 789 714 853 q 960 625 907 724 q 1014 411 1014 526 q 980 235 1014 317 q 883 89 946 153 q 729 -8 812 20 q 532 -36 647 -36 z "},"7":{"ha":851,"x_min":91,"x_max":754,"o":"m 141 0 q 172 271 141 153 q 246 469 202 389 q 367 667 290 550 q 471 836 435 770 q 538 997 508 903 q 575 1212 567 1091 l 91 1212 l 91 1389 l 754 1389 l 754 1302 q 720 997 754 1129 q 639 776 687 865 q 514 569 591 687 q 406 392 442 460 q 343 226 369 323 q 317 0 317 129 l 141 0 z "},"8":{"ha":1115,"x_min":95,"x_max":1020,"o":"m 558 -34 q 326 29 433 -34 q 158 197 220 91 q 95 429 95 304 q 150 645 95 544 q 298 810 204 746 q 223 926 250 861 q 196 1062 196 990 q 245 1243 196 1161 q 377 1374 294 1325 q 558 1423 460 1423 q 740 1374 657 1423 q 872 1243 823 1325 q 921 1062 921 1161 q 894 925 921 990 q 817 810 867 859 q 965 645 911 746 q 1020 429 1020 544 q 957 197 1020 304 q 789 29 895 91 q 558 -34 683 -34 m 558 873 q 690 929 635 873 q 746 1062 746 984 q 690 1194 746 1139 q 558 1250 635 1250 q 425 1194 480 1250 q 369 1062 369 1139 q 425 929 369 984 q 558 873 480 873 m 560 141 q 702 180 637 141 q 807 285 768 218 q 845 429 845 351 q 807 571 845 506 q 702 676 768 637 q 560 714 637 714 q 416 676 482 714 q 311 571 349 637 q 272 429 272 506 q 311 285 272 351 q 416 180 349 218 q 560 141 482 141 z "},"9":{"ha":1087,"x_min":89,"x_max":996,"o":"m 526 -36 q 306 14 421 -36 l 377 177 q 526 141 458 141 q 649 175 593 141 q 763 307 726 218 q 810 500 800 395 q 819 764 819 605 q 783 1063 819 960 q 691 1200 746 1165 q 560 1244 637 1236 q 528 1246 550 1246 q 343 1177 417 1246 q 286 1093 306 1143 q 266 986 266 1044 q 301 831 266 893 q 409 736 335 770 q 538 706 468 706 q 679 742 617 706 l 679 556 q 528 528 607 528 q 435 540 490 528 q 179 696 268 581 q 89 986 89 812 q 124 1161 89 1079 q 222 1306 159 1242 q 360 1391 282 1361 q 526 1421 438 1421 q 577 1419 560 1421 q 894 1238 792 1399 q 996 764 996 1077 q 982 450 996 579 q 912 206 968 321 q 740 24 855 91 q 526 -36 645 -36 z "}," ":{"ha":645,"x_min":0,"x_max":0,"o":""},"A":{"ha":933,"x_min":91,"x_max":841,"o":"m 91 1046 q 138 1243 91 1157 q 270 1377 185 1329 q 466 1425 355 1425 q 663 1375 577 1425 q 795 1239 748 1325 q 841 1046 841 1153 l 841 0 l 665 0 l 665 625 l 268 625 l 268 0 l 91 0 l 91 1046 m 665 1046 q 611 1192 665 1137 q 466 1248 558 1248 q 319 1193 371 1248 q 268 1046 268 1139 l 268 802 l 665 802 l 665 1046 z "},"Á":{"ha":933,"x_min":91,"x_max":841,"o":"m 91 1046 q 138 1243 91 1157 q 270 1377 185 1329 q 466 1425 355 1425 q 663 1375 577 1425 q 795 1239 748 1325 q 841 1046 841 1153 l 841 0 l 665 0 l 665 625 l 268 625 l 268 0 l 91 0 l 91 1046 m 665 1046 q 611 1192 665 1137 q 466 1248 558 1248 q 319 1193 371 1248 q 268 1046 268 1139 l 268 802 l 665 802 l 665 1046 m 296 1567 l 560 1756 l 637 1647 l 351 1486 l 296 1567 z "},"Ă":{"ha":933,"x_min":91,"x_max":841,"o":"m 91 1046 q 138 1243 91 1157 q 270 1377 185 1329 q 466 1425 355 1425 q 663 1375 577 1425 q 795 1239 748 1325 q 841 1046 841 1153 l 841 0 l 665 0 l 665 625 l 268 625 l 268 0 l 91 0 l 91 1046 m 665 1046 q 611 1192 665 1137 q 466 1248 558 1248 q 319 1193 371 1248 q 268 1046 268 1139 l 268 802 l 665 802 l 665 1046 m 468 1500 q 304 1555 377 1500 q 222 1692 230 1609 l 345 1692 q 389 1640 353 1661 q 464 1619 425 1619 q 540 1640 504 1619 q 585 1692 575 1661 l 708 1692 q 627 1555 698 1609 q 468 1500 556 1500 z "},"Ắ":{"ha":933,"x_min":91,"x_max":841,"o":"m 91 1046 q 138 1243 91 1157 q 270 1377 185 1329 q 466 1425 355 1425 q 663 1375 577 1425 q 795 1239 748 1325 q 841 1046 841 1153 l 841 0 l 665 0 l 665 625 l 268 625 l 268 0 l 91 0 l 91 1046 m 665 1046 q 611 1192 665 1137 q 466 1248 558 1248 q 319 1193 371 1248 q 268 1046 268 1139 l 268 802 l 665 802 l 665 1046 z "},"Ặ":{"ha":933,"x_min":91,"x_max":841,"o":"m 91 1046 q 138 1243 91 1157 q 270 1377 185 1329 q 466 1425 355 1425 q 663 1375 577 1425 q 795 1239 748 1325 q 841 1046 841 1153 l 841 0 l 665 0 l 665 625 l 268 625 l 268 0 l 91 0 l 91 1046 m 665 1046 q 611 1192 665 1137 q 466 1248 558 1248 q 319 1193 371 1248 q 268 1046 268 1139 l 268 802 l 665 802 l 665 1046 m 466 -270 q 402 -243 429 -270 q 375 -179 375 -216 q 402 -114 375 -141 q 466 -87 429 -87 q 531 -114 504 -87 q 558 -179 558 -141 q 531 -243 558 -216 q 466 -270 504 -270 m 468 1500 q 304 1555 377 1500 q 222 1692 230 1609 l 345 1692 q 389 1640 353 1661 q 464 1619 425 1619 q 540 1640 504 1619 q 585 1692 575 1661 l 708 1692 q 627 1555 698 1609 q 468 1500 556 1500 z "},"Ằ":{"ha":933,"x_min":91,"x_max":841,"o":"m 91 1046 q 138 1243 91 1157 q 270 1377 185 1329 q 466 1425 355 1425 q 663 1375 577 1425 q 795 1239 748 1325 q 841 1046 841 1153 l 841 0 l 665 0 l 665 625 l 268 625 l 268 0 l 91 0 l 91 1046 m 665 1046 q 611 1192 665 1137 q 466 1248 558 1248 q 319 1193 371 1248 q 268 1046 268 1139 l 268 802 l 665 802 l 665 1046 z "},"Ẳ":{"ha":933,"x_min":91,"x_max":841,"o":"m 91 1046 q 138 1243 91 1157 q 270 1377 185 1329 q 466 1425 355 1425 q 663 1375 577 1425 q 795 1239 748 1325 q 841 1046 841 1153 l 841 0 l 665 0 l 665 625 l 268 625 l 268 0 l 91 0 l 91 1046 m 665 1046 q 611 1192 665 1137 q 466 1248 558 1248 q 319 1193 371 1248 q 268 1046 268 1139 l 268 802 l 665 802 l 665 1046 z "},"Ẵ":{"ha":933,"x_min":91,"x_max":841,"o":"m 91 1046 q 138 1243 91 1157 q 270 1377 185 1329 q 466 1425 355 1425 q 663 1375 577 1425 q 795 1239 748 1325 q 841 1046 841 1153 l 841 0 l 665 0 l 665 625 l 268 625 l 268 0 l 91 0 l 91 1046 m 665 1046 q 611 1192 665 1137 q 466 1248 558 1248 q 319 1193 371 1248 q 268 1046 268 1139 l 268 802 l 665 802 l 665 1046 z "},"Ǎ":{"ha":933,"x_min":91,"x_max":841,"o":"m 91 1046 q 138 1243 91 1157 q 270 1377 185 1329 q 466 1425 355 1425 q 663 1375 577 1425 q 795 1239 748 1325 q 841 1046 841 1153 l 841 0 l 665 0 l 665 625 l 268 625 l 268 0 l 91 0 l 91 1046 m 665 1046 q 611 1192 665 1137 q 466 1248 558 1248 q 319 1193 371 1248 q 268 1046 268 1139 l 268 802 l 665 802 l 665 1046 m 240 1724 l 464 1651 l 690 1724 l 690 1615 l 464 1502 l 240 1615 l 240 1724 z "},"Â":{"ha":933,"x_min":91,"x_max":841,"o":"m 91 1046 q 138 1243 91 1157 q 270 1377 185 1329 q 466 1425 355 1425 q 663 1375 577 1425 q 795 1239 748 1325 q 841 1046 841 1153 l 841 0 l 665 0 l 665 625 l 268 625 l 268 0 l 91 0 l 91 1046 m 665 1046 q 611 1192 665 1137 q 466 1248 558 1248 q 319 1193 371 1248 q 268 1046 268 1139 l 268 802 l 665 802 l 665 1046 m 246 1589 l 466 1700 l 688 1589 l 688 1482 l 466 1554 l 246 1482 l 246 1589 z "},"Ấ":{"ha":933,"x_min":91,"x_max":889,"o":"m 91 1046 q 138 1243 91 1157 q 270 1377 185 1329 q 466 1425 355 1425 q 663 1375 577 1425 q 795 1239 748 1325 q 841 1046 841 1153 l 841 0 l 665 0 l 665 625 l 268 625 l 268 0 l 91 0 l 91 1046 m 665 1046 q 611 1192 665 1137 q 466 1248 558 1248 q 319 1193 371 1248 q 268 1046 268 1139 l 268 802 l 665 802 l 665 1046 z "},"Ậ":{"ha":933,"x_min":91,"x_max":841,"o":"m 91 1046 q 138 1243 91 1157 q 270 1377 185 1329 q 466 1425 355 1425 q 663 1375 577 1425 q 795 1239 748 1325 q 841 1046 841 1153 l 841 0 l 665 0 l 665 625 l 268 625 l 268 0 l 91 0 l 91 1046 m 665 1046 q 611 1192 665 1137 q 466 1248 558 1248 q 319 1193 371 1248 q 268 1046 268 1139 l 268 802 l 665 802 l 665 1046 m 466 -270 q 402 -243 429 -270 q 375 -179 375 -216 q 402 -114 375 -141 q 466 -87 429 -87 q 531 -114 504 -87 q 558 -179 558 -141 q 531 -243 558 -216 q 466 -270 504 -270 m 246 1589 l 466 1700 l 688 1589 l 688 1482 l 466 1554 l 246 1482 l 246 1589 z "},"Ầ":{"ha":933,"x_min":91,"x_max":841,"o":"m 91 1046 q 138 1243 91 1157 q 270 1377 185 1329 q 466 1425 355 1425 q 663 1375 577 1425 q 795 1239 748 1325 q 841 1046 841 1153 l 841 0 l 665 0 l 665 625 l 268 625 l 268 0 l 91 0 l 91 1046 m 665 1046 q 611 1192 665 1137 q 466 1248 558 1248 q 319 1193 371 1248 q 268 1046 268 1139 l 268 802 l 665 802 l 665 1046 z "},"Ẩ":{"ha":933,"x_min":91,"x_max":841,"o":"m 91 1046 q 138 1243 91 1157 q 270 1377 185 1329 q 466 1425 355 1425 q 663 1375 577 1425 q 795 1239 748 1325 q 841 1046 841 1153 l 841 0 l 665 0 l 665 625 l 268 625 l 268 0 l 91 0 l 91 1046 m 665 1046 q 611 1192 665 1137 q 466 1248 558 1248 q 319 1193 371 1248 q 268 1046 268 1139 l 268 802 l 665 802 l 665 1046 z "},"Ẫ":{"ha":933,"x_min":91,"x_max":841,"o":"m 91 1046 q 138 1243 91 1157 q 270 1377 185 1329 q 466 1425 355 1425 q 663 1375 577 1425 q 795 1239 748 1325 q 841 1046 841 1153 l 841 0 l 665 0 l 665 625 l 268 625 l 268 0 l 91 0 l 91 1046 m 665 1046 q 611 1192 665 1137 q 466 1248 558 1248 q 319 1193 371 1248 q 268 1046 268 1139 l 268 802 l 665 802 l 665 1046 z "},"Ä":{"ha":933,"x_min":91,"x_max":841,"o":"m 91 1046 q 138 1243 91 1157 q 270 1377 185 1329 q 466 1425 355 1425 q 663 1375 577 1425 q 795 1239 748 1325 q 841 1046 841 1153 l 841 0 l 665 0 l 665 625 l 268 625 l 268 0 l 91 0 l 91 1046 m 665 1046 q 611 1192 665 1137 q 466 1248 558 1248 q 319 1193 371 1248 q 268 1046 268 1139 l 268 802 l 665 802 l 665 1046 m 302 1498 q 237 1525 264 1498 q 210 1589 210 1552 q 237 1655 210 1627 q 302 1683 264 1683 q 365 1656 339 1683 q 391 1589 391 1629 q 365 1525 391 1552 q 302 1498 339 1498 m 631 1498 q 566 1525 593 1498 q 540 1589 540 1552 q 566 1655 540 1627 q 631 1683 593 1683 q 694 1656 669 1683 q 720 1589 720 1629 q 694 1525 720 1552 q 631 1498 669 1498 z "},"Ạ":{"ha":933,"x_min":91,"x_max":841,"o":"m 91 1046 q 138 1243 91 1157 q 270 1377 185 1329 q 466 1425 355 1425 q 663 1375 577 1425 q 795 1239 748 1325 q 841 1046 841 1153 l 841 0 l 665 0 l 665 625 l 268 625 l 268 0 l 91 0 l 91 1046 m 665 1046 q 611 1192 665 1137 q 466 1248 558 1248 q 319 1193 371 1248 q 268 1046 268 1139 l 268 802 l 665 802 l 665 1046 m 466 -270 q 402 -243 429 -270 q 375 -179 375 -216 q 402 -114 375 -141 q 466 -87 429 -87 q 531 -114 504 -87 q 558 -179 558 -141 q 531 -243 558 -216 q 466 -270 504 -270 z "},"À":{"ha":933,"x_min":91,"x_max":841,"o":"m 91 1046 q 138 1243 91 1157 q 270 1377 185 1329 q 466 1425 355 1425 q 663 1375 577 1425 q 795 1239 748 1325 q 841 1046 841 1153 l 841 0 l 665 0 l 665 625 l 268 625 l 268 0 l 91 0 l 91 1046 m 665 1046 q 611 1192 665 1137 q 466 1248 558 1248 q 319 1193 371 1248 q 268 1046 268 1139 l 268 802 l 665 802 l 665 1046 m 296 1647 l 373 1756 l 637 1567 l 581 1486 l 296 1647 z "},"Ả":{"ha":933,"x_min":91,"x_max":841,"o":"m 91 1046 q 138 1243 91 1157 q 270 1377 185 1329 q 466 1425 355 1425 q 663 1375 577 1425 q 795 1239 748 1325 q 841 1046 841 1153 l 841 0 l 665 0 l 665 625 l 268 625 l 268 0 l 91 0 l 91 1046 m 665 1046 q 611 1192 665 1137 q 466 1248 558 1248 q 319 1193 371 1248 q 268 1046 268 1139 l 268 802 l 665 802 l 665 1046 m 411 1669 q 470 1663 446 1663 q 540 1710 540 1663 q 520 1747 540 1734 q 466 1760 500 1760 q 409 1752 438 1760 l 409 1853 q 492 1863 458 1863 q 612 1824 569 1863 q 655 1710 655 1786 q 612 1609 655 1647 q 514 1571 569 1571 l 514 1514 l 411 1514 l 411 1669 z "},"Ā":{"ha":933,"x_min":91,"x_max":841,"o":"m 91 1046 q 138 1243 91 1157 q 270 1377 185 1329 q 466 1425 355 1425 q 663 1375 577 1425 q 795 1239 748 1325 q 841 1046 841 1153 l 841 0 l 665 0 l 665 625 l 268 625 l 268 0 l 91 0 l 91 1046 m 665 1046 q 611 1192 665 1137 q 466 1248 558 1248 q 319 1193 371 1248 q 268 1046 268 1139 l 268 802 l 665 802 l 665 1046 m 228 1653 l 704 1653 l 704 1532 l 228 1532 l 228 1653 z "},"Ą":{"ha":933,"x_min":91,"x_max":869,"o":"m 756 -101 q 825 -163 756 -163 q 869 -159 853 -163 l 869 -274 q 796 -282 835 -282 q 674 -242 718 -282 q 629 -131 629 -202 q 690 0 629 -52 l 665 0 l 665 625 l 268 625 l 268 0 l 91 0 l 91 1046 q 138 1243 91 1157 q 270 1377 185 1329 q 466 1425 355 1425 q 663 1375 577 1425 q 795 1239 748 1325 q 841 1046 841 1153 l 841 0 q 775 -50 794 -26 q 756 -101 756 -73 m 665 1046 q 611 1192 665 1137 q 466 1248 558 1248 q 319 1193 371 1248 q 268 1046 268 1139 l 268 802 l 665 802 l 665 1046 z "},"Å":{"ha":933,"x_min":91,"x_max":841,"o":"m 655 1379 q 792 1245 742 1333 q 841 1046 841 1157 l 841 0 l 665 0 l 665 625 l 268 625 l 268 0 l 91 0 l 91 1046 q 140 1245 91 1159 q 276 1379 188 1331 q 212 1550 212 1452 q 286 1729 212 1657 q 464 1802 359 1802 q 646 1729 571 1802 q 720 1550 720 1657 q 655 1379 720 1450 m 466 1673 q 380 1637 417 1673 q 343 1550 343 1601 q 380 1463 343 1500 q 466 1427 417 1427 q 555 1462 518 1427 q 591 1550 591 1498 q 555 1637 591 1601 q 466 1673 518 1673 m 665 1046 q 611 1192 665 1137 q 466 1248 558 1248 q 319 1193 371 1248 q 268 1046 268 1139 l 268 802 l 665 802 l 665 1046 z "},"Ã":{"ha":933,"x_min":91,"x_max":841,"o":"m 91 1046 q 138 1243 91 1157 q 270 1377 185 1329 q 466 1425 355 1425 q 663 1375 577 1425 q 795 1239 748 1325 q 841 1046 841 1153 l 841 0 l 665 0 l 665 625 l 268 625 l 268 0 l 91 0 l 91 1046 m 665 1046 q 611 1192 665 1137 q 466 1248 558 1248 q 319 1193 371 1248 q 268 1046 268 1139 l 268 802 l 665 802 l 665 1046 m 704 1538 q 677 1554 700 1540 q 607 1567 653 1567 q 484 1542 552 1567 q 345 1512 405 1512 q 254 1530 280 1512 q 226 1550 228 1548 l 226 1673 q 261 1654 228 1671 q 359 1637 294 1637 q 478 1659 415 1637 q 613 1687 554 1687 q 684 1672 665 1687 q 704 1655 702 1657 l 704 1538 z "},"Æ":{"ha":1484,"x_min":91,"x_max":1389,"o":"m 1389 179 l 1389 0 l 665 0 l 665 625 l 268 625 l 268 0 l 91 0 l 91 1046 q 138 1243 91 1157 q 270 1377 185 1329 q 466 1425 355 1425 q 622 1396 552 1425 q 742 1313 692 1367 q 827 1386 776 1359 q 944 1413 879 1413 l 1312 1413 l 1312 1234 l 984 1234 q 873 1117 873 1234 l 873 802 l 1198 802 l 1198 623 l 873 623 l 873 179 l 1389 179 m 665 1046 q 611 1192 665 1137 q 466 1248 558 1248 q 319 1193 371 1248 q 268 1046 268 1139 l 268 802 l 665 802 l 665 1046 z "},"B":{"ha":925,"x_min":91,"x_max":855,"o":"m 419 1389 q 530 1368 474 1389 q 631 1312 585 1347 q 758 1032 758 1210 q 671 790 758 895 q 805 609 754 722 q 843 363 855 496 q 775 167 835 248 q 622 43 714 85 q 427 0 530 0 l 91 0 l 91 1389 l 419 1389 m 268 772 q 491 856 401 788 q 581 1032 581 925 q 521 1178 581 1143 q 419 1212 460 1212 l 268 1212 l 268 772 m 427 177 q 595 235 522 177 q 669 401 669 294 q 623 573 669 494 q 528 673 585 645 q 268 593 409 605 l 268 177 l 427 177 z "},"C":{"ha":1034,"x_min":79,"x_max":958,"o":"m 595 -28 q 435 22 524 -18 q 262 157 345 62 q 79 724 79 363 q 160 1084 79 935 q 350 1314 240 1234 q 552 1411 460 1395 q 651 1419 593 1419 q 818 1394 738 1419 q 954 1323 899 1369 l 843 1187 q 761 1227 812 1212 q 653 1242 710 1242 q 581 1236 617 1242 q 445 1166 522 1226 q 313 993 369 1105 q 256 724 256 881 q 321 389 256 520 q 483 199 387 258 q 675 141 579 141 q 777 155 730 141 q 843 187 823 169 l 958 54 q 692 -34 861 -34 q 595 -28 643 -34 z "},"Ć":{"ha":1034,"x_min":79,"x_max":958,"o":"m 595 -28 q 435 22 524 -18 q 262 157 345 62 q 79 724 79 363 q 160 1084 79 935 q 350 1314 240 1234 q 552 1411 460 1395 q 651 1419 593 1419 q 818 1394 738 1419 q 954 1323 899 1369 l 843 1187 q 761 1227 812 1212 q 653 1242 710 1242 q 581 1236 617 1242 q 445 1166 522 1226 q 313 993 369 1105 q 256 724 256 881 q 321 389 256 520 q 483 199 387 258 q 675 141 579 141 q 777 155 730 141 q 843 187 823 169 l 958 54 q 692 -34 861 -34 q 595 -28 643 -34 m 450 1585 l 714 1774 l 792 1665 l 506 1504 l 450 1585 z "},"Č":{"ha":1034,"x_min":79,"x_max":958,"o":"m 595 -28 q 435 22 524 -18 q 262 157 345 62 q 79 724 79 363 q 160 1084 79 935 q 350 1314 240 1234 q 552 1411 460 1395 q 651 1419 593 1419 q 818 1394 738 1419 q 954 1323 899 1369 l 843 1187 q 761 1227 812 1212 q 653 1242 710 1242 q 581 1236 617 1242 q 445 1166 522 1226 q 313 993 369 1105 q 256 724 256 881 q 321 389 256 520 q 483 199 387 258 q 675 141 579 141 q 777 155 730 141 q 843 187 823 169 l 958 54 q 692 -34 861 -34 q 595 -28 643 -34 m 395 1716 l 619 1643 l 845 1716 l 845 1607 l 619 1494 l 395 1607 l 395 1716 z "},"Ç":{"ha":1034,"x_min":79,"x_max":958,"o":"m 629 -71 q 693 -131 673 -95 q 714 -206 714 -167 q 692 -286 714 -248 q 636 -336 673 -317 q 556 -355 599 -355 q 474 -339 512 -355 l 474 -228 q 528 -236 500 -236 q 574 -223 560 -236 q 589 -188 589 -210 q 559 -131 589 -157 q 468 -97 528 -105 l 546 -18 q 262 157 381 24 q 79 724 79 363 q 160 1084 79 935 q 350 1314 240 1234 q 552 1411 460 1395 q 651 1419 593 1419 q 818 1394 738 1419 q 954 1323 899 1369 l 843 1187 q 761 1227 812 1212 q 653 1242 710 1242 q 581 1236 617 1242 q 445 1166 522 1226 q 313 993 369 1105 q 256 724 256 881 q 321 389 256 520 q 483 199 387 258 q 675 141 579 141 q 777 155 730 141 q 843 187 823 169 l 958 54 q 665 -34 851 -40 l 629 -71 z "},"Ċ":{"ha":1034,"x_min":79,"x_max":958,"o":"m 595 -28 q 435 22 524 -18 q 262 157 345 62 q 79 724 79 363 q 160 1084 79 935 q 350 1314 240 1234 q 552 1411 460 1395 q 651 1419 593 1419 q 818 1394 738 1419 q 954 1323 899 1369 l 843 1187 q 761 1227 812 1212 q 653 1242 710 1242 q 581 1236 617 1242 q 445 1166 522 1226 q 313 993 369 1105 q 256 724 256 881 q 321 389 256 520 q 483 199 387 258 q 675 141 579 141 q 777 155 730 141 q 843 187 823 169 l 958 54 q 692 -34 861 -34 q 595 -28 643 -34 m 621 1490 q 557 1517 583 1490 q 530 1581 530 1544 q 557 1646 530 1619 q 621 1673 583 1673 q 686 1646 659 1673 q 712 1581 712 1619 q 686 1517 712 1544 q 621 1490 659 1490 z "},"D":{"ha":978,"x_min":91,"x_max":899,"o":"m 290 1389 q 608 1304 470 1389 q 822 1063 746 1218 q 899 702 899 907 q 821 338 899 498 q 604 89 744 179 q 286 0 464 0 l 91 0 l 91 1389 l 290 1389 m 286 177 q 514 242 415 177 q 668 428 613 308 q 722 702 722 548 q 606 1075 722 938 q 290 1212 490 1212 l 268 1212 l 268 177 l 286 177 z "},"Ð":{"ha":978,"x_min":4,"x_max":899,"o":"m 290 1389 q 608 1304 470 1389 q 822 1063 746 1218 q 899 702 899 907 q 821 338 899 498 q 604 89 744 179 q 286 0 464 0 l 91 0 l 91 685 l 4 685 l 4 833 l 91 833 l 91 1389 l 290 1389 m 286 177 q 514 242 415 177 q 668 428 613 308 q 722 702 722 548 q 606 1075 722 938 q 290 1212 490 1212 l 268 1212 l 268 833 l 512 833 l 512 685 l 268 685 l 268 177 l 286 177 z "},"Ď":{"ha":978,"x_min":91,"x_max":899,"o":"m 290 1389 q 608 1304 470 1389 q 822 1063 746 1218 q 899 702 899 907 q 821 338 899 498 q 604 89 744 179 q 286 0 464 0 l 91 0 l 91 1389 l 290 1389 m 286 177 q 514 242 415 177 q 668 428 613 308 q 722 702 722 548 q 606 1075 722 938 q 290 1212 490 1212 l 268 1212 l 268 177 l 286 177 m 185 1692 l 409 1619 l 635 1692 l 635 1583 l 409 1470 l 185 1583 l 185 1692 z "},"Đ":{"ha":978,"x_min":4,"x_max":899,"o":"m 290 1389 q 608 1304 470 1389 q 822 1063 746 1218 q 899 702 899 907 q 821 338 899 498 q 604 89 744 179 q 286 0 464 0 l 91 0 l 91 685 l 4 685 l 4 833 l 91 833 l 91 1389 l 290 1389 m 286 177 q 514 242 415 177 q 668 428 613 308 q 722 702 722 548 q 606 1075 722 938 q 290 1212 490 1212 l 268 1212 l 268 833 l 512 833 l 512 685 l 268 685 l 268 177 l 286 177 z "},"E":{"ha":845,"x_min":91,"x_max":750,"o":"m 91 1389 l 700 1389 l 700 1212 l 268 1212 l 268 839 l 560 839 l 560 663 l 268 663 l 268 177 l 750 177 l 750 0 l 91 0 l 91 1389 z "},"É":{"ha":845,"x_min":91,"x_max":750,"o":"m 91 1389 l 700 1389 l 700 1212 l 268 1212 l 268 839 l 560 839 l 560 663 l 268 663 l 268 177 l 750 177 l 750 0 l 91 0 l 91 1389 m 214 1562 l 478 1750 l 556 1641 l 270 1480 l 214 1562 z "},"Ě":{"ha":845,"x_min":91,"x_max":750,"o":"m 91 1389 l 700 1389 l 700 1212 l 268 1212 l 268 839 l 560 839 l 560 663 l 268 663 l 268 177 l 750 177 l 750 0 l 91 0 l 91 1389 m 159 1692 l 383 1619 l 609 1692 l 609 1583 l 383 1470 l 159 1583 l 159 1692 z "},"Ê":{"ha":845,"x_min":91,"x_max":750,"o":"m 91 1389 l 700 1389 l 700 1212 l 268 1212 l 268 839 l 560 839 l 560 663 l 268 663 l 268 177 l 750 177 l 750 0 l 91 0 l 91 1389 m 165 1583 l 385 1694 l 607 1583 l 607 1476 l 385 1548 l 165 1476 l 165 1583 z "},"Ế":{"ha":845,"x_min":91,"x_max":808,"o":"m 91 1389 l 700 1389 l 700 1212 l 268 1212 l 268 839 l 560 839 l 560 663 l 268 663 l 268 177 l 750 177 l 750 0 l 91 0 l 91 1389 z "},"Ệ":{"ha":845,"x_min":91,"x_max":750,"o":"m 91 1389 l 700 1389 l 700 1212 l 268 1212 l 268 839 l 560 839 l 560 663 l 268 663 l 268 177 l 750 177 l 750 0 l 91 0 l 91 1389 m 415 -270 q 350 -243 377 -270 q 323 -179 323 -216 q 350 -114 323 -141 q 415 -87 377 -87 q 479 -114 452 -87 q 506 -179 506 -141 q 479 -243 506 -216 q 415 -270 452 -270 m 165 1583 l 385 1694 l 607 1583 l 607 1476 l 385 1548 l 165 1476 l 165 1583 z "},"Ề":{"ha":845,"x_min":91,"x_max":750,"o":"m 91 1389 l 700 1389 l 700 1212 l 268 1212 l 268 839 l 560 839 l 560 663 l 268 663 l 268 177 l 750 177 l 750 0 l 91 0 l 91 1389 z "},"Ể":{"ha":845,"x_min":91,"x_max":758,"o":"m 91 1389 l 700 1389 l 700 1212 l 268 1212 l 268 839 l 560 839 l 560 663 l 268 663 l 268 177 l 750 177 l 750 0 l 91 0 l 91 1389 z "},"Ễ":{"ha":845,"x_min":91,"x_max":750,"o":"m 91 1389 l 700 1389 l 700 1212 l 268 1212 l 268 839 l 560 839 l 560 663 l 268 663 l 268 177 l 750 177 l 750 0 l 91 0 l 91 1389 z "},"Ë":{"ha":845,"x_min":91,"x_max":750,"o":"m 91 1389 l 700 1389 l 700 1212 l 268 1212 l 268 839 l 560 839 l 560 663 l 268 663 l 268 177 l 750 177 l 750 0 l 91 0 l 91 1389 m 220 1466 q 156 1493 183 1466 q 129 1558 129 1520 q 156 1623 129 1595 q 220 1651 183 1651 q 284 1624 258 1651 q 310 1558 310 1597 q 284 1493 310 1520 q 220 1466 258 1466 m 550 1466 q 485 1493 512 1466 q 458 1558 458 1520 q 485 1623 458 1595 q 550 1651 512 1651 q 613 1624 587 1651 q 639 1558 639 1597 q 613 1493 639 1520 q 550 1466 587 1466 z "},"Ė":{"ha":845,"x_min":91,"x_max":750,"o":"m 91 1389 l 700 1389 l 700 1212 l 268 1212 l 268 839 l 560 839 l 560 663 l 268 663 l 268 177 l 750 177 l 750 0 l 91 0 l 91 1389 m 385 1466 q 320 1493 347 1466 q 294 1558 294 1520 q 320 1622 294 1595 q 385 1649 347 1649 q 449 1622 423 1649 q 476 1558 476 1595 q 449 1493 476 1520 q 385 1466 423 1466 z "},"Ẹ":{"ha":845,"x_min":91,"x_max":750,"o":"m 91 1389 l 700 1389 l 700 1212 l 268 1212 l 268 839 l 560 839 l 560 663 l 268 663 l 268 177 l 750 177 l 750 0 l 91 0 l 91 1389 m 415 -270 q 350 -243 377 -270 q 323 -179 323 -216 q 350 -114 323 -141 q 415 -87 377 -87 q 479 -114 452 -87 q 506 -179 506 -141 q 479 -243 506 -216 q 415 -270 452 -270 z "},"È":{"ha":845,"x_min":91,"x_max":750,"o":"m 91 1389 l 700 1389 l 700 1212 l 268 1212 l 268 839 l 560 839 l 560 663 l 268 663 l 268 177 l 750 177 l 750 0 l 91 0 l 91 1389 m 214 1641 l 292 1750 l 556 1562 l 500 1480 l 214 1641 z "},"Ẻ":{"ha":845,"x_min":91,"x_max":750,"o":"m 91 1389 l 700 1389 l 700 1212 l 268 1212 l 268 839 l 560 839 l 560 663 l 268 663 l 268 177 l 750 177 l 750 0 l 91 0 l 91 1389 m 329 1637 q 389 1631 365 1631 q 458 1679 458 1631 q 438 1715 458 1702 q 385 1728 419 1728 q 327 1720 357 1728 l 327 1821 q 411 1831 377 1831 q 531 1793 488 1831 q 573 1679 573 1754 q 531 1577 573 1615 q 433 1540 488 1540 l 433 1482 l 329 1482 l 329 1637 z "},"Ē":{"ha":845,"x_min":91,"x_max":750,"o":"m 91 1389 l 700 1389 l 700 1212 l 268 1212 l 268 839 l 560 839 l 560 663 l 268 663 l 268 177 l 750 177 l 750 0 l 91 0 l 91 1389 m 147 1621 l 623 1621 l 623 1500 l 147 1500 l 147 1621 z "},"Ę":{"ha":845,"x_min":91,"x_max":750,"o":"m 498 0 q 432 -50 450 -26 q 413 -101 413 -73 q 484 -163 413 -163 q 526 -159 494 -163 l 526 -274 q 452 -282 492 -282 q 330 -242 375 -282 q 286 -131 286 -202 q 347 0 286 -52 l 91 0 l 91 1389 l 700 1389 l 700 1212 l 268 1212 l 268 839 l 560 839 l 560 663 l 268 663 l 268 177 l 750 177 l 750 0 l 498 0 z "},"Ẽ":{"ha":845,"x_min":91,"x_max":750,"o":"m 91 1389 l 700 1389 l 700 1212 l 268 1212 l 268 839 l 560 839 l 560 663 l 268 663 l 268 177 l 750 177 l 750 0 l 91 0 l 91 1389 m 623 1506 q 595 1522 619 1508 q 526 1536 571 1536 q 403 1510 470 1536 q 264 1480 323 1480 q 173 1498 198 1480 q 145 1518 147 1516 l 145 1641 q 180 1622 147 1639 q 278 1605 212 1605 q 397 1627 333 1605 q 532 1655 472 1655 q 602 1640 583 1655 q 623 1623 621 1625 l 623 1506 z "},"F":{"ha":798,"x_min":91,"x_max":708,"o":"m 91 1389 l 708 1389 l 708 1212 l 268 1212 l 268 845 l 565 845 l 565 669 l 268 669 l 268 0 l 91 0 l 91 1389 z "},"G":{"ha":1113,"x_min":79,"x_max":1014,"o":"m 573 -20 q 223 187 367 14 q 79 726 79 359 q 163 1082 79 935 q 360 1310 246 1230 q 567 1405 474 1389 q 673 1413 613 1413 q 861 1385 772 1413 q 1010 1298 950 1357 l 885 1173 q 795 1220 853 1204 q 669 1236 736 1236 q 597 1232 619 1236 q 379 1087 476 1210 q 289 918 321 1012 q 256 726 256 823 q 335 341 256 484 q 460 205 391 242 q 607 153 530 169 q 673 147 643 147 q 837 192 754 147 l 837 641 l 1014 641 l 1014 83 q 864 4 964 34 q 661 -26 764 -26 q 573 -20 615 -26 z "},"Ğ":{"ha":1113,"x_min":79,"x_max":1014,"o":"m 573 -20 q 223 187 367 14 q 79 726 79 359 q 163 1082 79 935 q 360 1310 246 1230 q 567 1405 474 1389 q 673 1413 613 1413 q 861 1385 772 1413 q 1010 1298 950 1357 l 885 1173 q 795 1220 853 1204 q 669 1236 736 1236 q 597 1232 619 1236 q 379 1087 476 1210 q 289 918 321 1012 q 256 726 256 823 q 335 341 256 484 q 460 205 391 242 q 607 153 530 169 q 673 147 643 147 q 837 192 754 147 l 837 641 l 1014 641 l 1014 83 q 864 4 964 34 q 661 -26 764 -26 q 573 -20 615 -26 m 615 1496 q 450 1551 524 1496 q 369 1688 377 1605 l 492 1688 q 536 1636 500 1657 q 611 1615 571 1615 q 687 1636 651 1615 q 732 1688 722 1657 l 855 1688 q 774 1551 845 1605 q 615 1496 702 1496 z "},"Ģ":{"ha":1113,"x_min":79,"x_max":1014,"o":"m 573 -20 q 223 187 367 14 q 79 726 79 359 q 163 1082 79 935 q 360 1310 246 1230 q 567 1405 474 1389 q 673 1413 613 1413 q 861 1385 772 1413 q 1010 1298 950 1357 l 885 1173 q 795 1220 853 1204 q 669 1236 736 1236 q 597 1232 619 1236 q 379 1087 476 1210 q 289 918 321 1012 q 256 726 256 823 q 335 341 256 484 q 460 205 391 242 q 607 153 530 169 q 673 147 643 147 q 837 192 754 147 l 837 641 l 1014 641 l 1014 83 q 864 4 964 34 q 661 -26 764 -26 q 573 -20 615 -26 m 621 -437 q 613 -321 621 -369 q 552 -290 577 -317 q 526 -222 526 -262 q 556 -149 526 -179 q 629 -119 585 -119 q 700 -156 671 -121 q 730 -238 730 -190 q 697 -360 730 -300 q 621 -437 665 -421 z "},"Ġ":{"ha":1113,"x_min":79,"x_max":1014,"o":"m 573 -20 q 223 187 367 14 q 79 726 79 359 q 163 1082 79 935 q 360 1310 246 1230 q 567 1405 474 1389 q 673 1413 613 1413 q 861 1385 772 1413 q 1010 1298 950 1357 l 885 1173 q 795 1220 853 1204 q 669 1236 736 1236 q 597 1232 619 1236 q 379 1087 476 1210 q 289 918 321 1012 q 256 726 256 823 q 335 341 256 484 q 460 205 391 242 q 607 153 530 169 q 673 147 643 147 q 837 192 754 147 l 837 641 l 1014 641 l 1014 83 q 864 4 964 34 q 661 -26 764 -26 q 573 -20 615 -26 m 613 1494 q 549 1521 575 1494 q 522 1585 522 1548 q 549 1650 522 1623 q 613 1677 575 1677 q 678 1650 651 1677 q 704 1585 704 1623 q 678 1521 704 1548 q 613 1494 651 1494 z "},"H":{"ha":942,"x_min":91,"x_max":851,"o":"m 91 1389 l 268 1389 l 268 875 l 675 875 l 675 1389 l 851 1389 l 851 0 l 675 0 l 675 698 l 268 698 l 268 0 l 91 0 l 91 1389 z "},"Ħ":{"ha":942,"x_min":14,"x_max":931,"o":"m 931 1218 l 931 1056 l 851 1056 l 851 0 l 675 0 l 675 698 l 268 698 l 268 0 l 91 0 l 91 1056 l 14 1056 l 14 1218 l 91 1218 l 91 1389 l 268 1389 l 268 1218 l 675 1218 l 675 1389 l 851 1389 l 851 1218 l 931 1218 m 675 875 l 675 1056 l 268 1056 l 268 875 l 675 875 z "},"I":{"ha":409,"x_min":115,"x_max":294,"o":"m 115 1389 l 294 1389 l 294 0 l 115 0 l 115 1389 z "},"Í":{"ha":409,"x_min":34,"x_max":375,"o":"m 115 1389 l 294 1389 l 294 0 l 115 0 l 115 1389 m 34 1562 l 298 1750 l 375 1641 l 89 1480 l 34 1562 z "},"Ǐ":{"ha":409,"x_min":12,"x_max":395,"o":"m 202 1619 l 395 1692 l 395 1583 l 202 1470 l 12 1583 l 12 1692 l 202 1619 m 294 1389 l 294 0 l 115 0 l 115 1389 l 294 1389 z "},"Î":{"ha":409,"x_min":18,"x_max":395,"o":"m 18 1556 l 204 1667 l 395 1556 l 395 1448 l 204 1520 l 18 1448 l 18 1556 m 294 1389 l 294 0 l 115 0 l 115 1389 l 294 1389 z "},"Ï":{"ha":409,"x_min":-52,"x_max":458,"o":"m 115 1389 l 294 1389 l 294 0 l 115 0 l 115 1389 m 40 1466 q -25 1493 2 1466 q -52 1558 -52 1520 q -25 1623 -52 1595 q 40 1651 2 1651 q 103 1624 77 1651 q 129 1558 129 1597 q 103 1493 129 1520 q 40 1466 77 1466 m 369 1466 q 305 1493 331 1466 q 278 1558 278 1520 q 305 1623 278 1595 q 369 1651 331 1651 q 433 1624 407 1651 q 458 1558 458 1597 q 433 1493 458 1520 q 369 1466 407 1466 z "},"İ":{"ha":409,"x_min":113,"x_max":296,"o":"m 115 1389 l 294 1389 l 294 0 l 115 0 l 115 1389 m 204 1466 q 140 1493 167 1466 q 113 1558 113 1520 q 140 1622 113 1595 q 204 1649 167 1649 q 269 1622 242 1649 q 296 1558 296 1595 q 269 1493 296 1520 q 204 1466 242 1466 z "},"Ị":{"ha":409,"x_min":113,"x_max":296,"o":"m 115 1389 l 294 1389 l 294 0 l 115 0 l 115 1389 m 204 -270 q 140 -243 167 -270 q 113 -179 113 -216 q 140 -114 113 -141 q 204 -87 167 -87 q 269 -114 242 -87 q 296 -179 296 -141 q 269 -243 296 -216 q 204 -270 242 -270 z "},"Ì":{"ha":409,"x_min":34,"x_max":375,"o":"m 115 1389 l 294 1389 l 294 0 l 115 0 l 115 1389 m 34 1641 l 111 1750 l 375 1562 l 319 1480 l 34 1641 z "},"Ỉ":{"ha":409,"x_min":115,"x_max":393,"o":"m 115 1389 l 294 1389 l 294 0 l 115 0 l 115 1389 m 149 1637 q 208 1631 185 1631 q 278 1679 278 1631 q 258 1715 278 1702 q 204 1728 238 1728 q 147 1720 177 1728 l 147 1821 q 230 1831 196 1831 q 350 1793 308 1831 q 393 1679 393 1754 q 350 1577 393 1615 q 252 1540 308 1540 l 252 1482 l 149 1482 l 149 1637 z "},"Ī":{"ha":409,"x_min":2,"x_max":407,"o":"m 2 1621 l 407 1621 l 407 1500 l 2 1500 l 2 1621 m 294 1389 l 294 0 l 115 0 l 115 1389 l 294 1389 z "},"Į":{"ha":409,"x_min":75,"x_max":315,"o":"m 202 -101 q 272 -163 202 -163 q 315 -159 300 -163 l 315 -274 q 242 -282 282 -282 q 120 -242 165 -282 q 75 -131 75 -202 q 137 0 75 -52 l 115 0 l 115 1389 l 294 1389 l 294 0 l 288 0 q 221 -50 240 -26 q 202 -101 202 -73 z "},"Ĩ":{"ha":409,"x_min":0,"x_max":407,"o":"m 407 1506 q 385 1522 405 1508 q 323 1536 365 1536 q 220 1510 278 1536 q 101 1480 153 1480 q 26 1498 50 1480 q 0 1518 2 1516 l 0 1641 q 113 1605 54 1605 q 214 1627 161 1605 q 329 1655 278 1655 q 389 1640 373 1655 q 407 1623 405 1625 l 407 1506 m 294 1389 l 294 0 l 115 0 l 115 1389 l 294 1389 z "},"J":{"ha":766,"x_min":63,"x_max":675,"o":"m 351 -40 q 188 1 262 -40 q 63 123 113 42 l 210 222 q 351 137 266 137 q 457 186 417 137 q 498 312 498 234 l 492 1389 l 669 1389 l 675 313 q 632 133 675 214 q 515 6 589 52 q 351 -40 440 -40 z "},"K":{"ha":978,"x_min":91,"x_max":869,"o":"m 268 1389 l 268 778 q 480 919 391 821 q 615 1140 569 1016 q 661 1389 661 1264 l 837 1389 q 771 1055 837 1220 q 581 770 704 889 q 790 426 712 633 q 869 0 867 218 l 692 0 q 621 370 690 188 q 438 663 552 552 q 268 593 359 617 l 268 0 l 91 0 l 91 1389 l 268 1389 z "},"Ķ":{"ha":978,"x_min":91,"x_max":869,"o":"m 268 1389 l 268 778 q 480 919 391 821 q 615 1140 569 1016 q 661 1389 661 1264 l 837 1389 q 771 1055 837 1220 q 581 770 704 889 q 790 426 712 633 q 869 0 867 218 l 692 0 q 621 370 690 188 q 438 663 552 552 q 268 593 359 617 l 268 0 l 91 0 l 91 1389 l 268 1389 m 466 -429 q 458 -313 466 -361 q 397 -282 423 -310 q 371 -214 371 -254 q 401 -141 371 -171 q 474 -111 431 -111 q 546 -148 516 -113 q 575 -230 575 -183 q 543 -352 575 -292 q 466 -429 510 -413 z "},"L":{"ha":802,"x_min":91,"x_max":692,"o":"m 91 1389 l 268 1389 l 268 179 l 692 179 l 692 2 l 91 2 l 91 1389 z "},"Ĺ":{"ha":802,"x_min":91,"x_max":692,"o":"m 91 1389 l 268 1389 l 268 179 l 692 179 l 692 2 l 91 2 l 91 1389 m 244 1562 l 508 1750 l 585 1641 l 300 1480 l 244 1562 z "},"Ľ":{"ha":802,"x_min":91,"x_max":692,"o":"m 91 1389 l 268 1389 l 268 179 l 692 179 l 692 2 l 91 2 l 91 1389 m 560 1121 q 550 1222 560 1169 q 497 1250 518 1224 q 476 1313 476 1276 q 501 1373 476 1349 q 560 1397 526 1397 q 626 1366 599 1397 q 653 1292 653 1335 q 624 1187 653 1238 q 560 1121 595 1135 z "},"Ļ":{"ha":802,"x_min":91,"x_max":692,"o":"m 91 1389 l 268 1389 l 268 179 l 692 179 l 692 2 l 91 2 l 91 1389 m 389 -429 q 381 -313 389 -361 q 319 -282 345 -310 q 294 -214 294 -254 q 323 -141 294 -171 q 397 -111 353 -111 q 468 -148 438 -113 q 498 -230 498 -183 q 465 -352 498 -292 q 389 -429 433 -413 z "},"Ł":{"ha":819,"x_min":-10,"x_max":698,"o":"m 274 179 l 698 179 l 698 2 l 97 2 l 97 641 l -10 589 l -10 776 l 97 827 l 97 1389 l 274 1389 l 274 911 l 385 964 l 385 778 l 274 724 l 274 179 z "},"M":{"ha":1268,"x_min":91,"x_max":1177,"o":"m 91 1081 q 132 1248 91 1173 q 243 1366 173 1323 q 403 1409 313 1409 q 635 1312 544 1409 q 737 1383 679 1357 q 865 1409 796 1409 q 1025 1366 954 1409 q 1136 1248 1095 1323 q 1177 1079 1177 1173 l 1177 0 l 1000 0 l 1000 1079 q 966 1187 1000 1143 q 865 1230 933 1230 q 760 1187 798 1230 q 722 1081 722 1143 l 722 0 l 546 0 l 546 1081 q 508 1187 546 1143 q 403 1230 470 1230 q 302 1187 335 1230 q 268 1081 268 1143 l 268 0 l 91 0 l 91 1081 z "},"N":{"ha":937,"x_min":91,"x_max":845,"o":"m 226 1389 l 246 1337 q 351 1395 286 1373 q 474 1417 417 1417 q 670 1365 585 1417 q 800 1225 754 1313 q 845 1030 845 1137 l 845 0 l 669 0 l 669 1004 q 618 1175 669 1107 q 470 1242 567 1242 q 326 1185 385 1242 q 268 1052 268 1127 l 268 0 l 91 0 l 91 1389 l 226 1389 z "},"Ń":{"ha":937,"x_min":91,"x_max":845,"o":"m 226 1389 l 246 1337 q 351 1395 286 1373 q 474 1417 417 1417 q 670 1365 585 1417 q 800 1225 754 1313 q 845 1030 845 1137 l 845 0 l 669 0 l 669 1004 q 618 1175 669 1107 q 470 1242 567 1242 q 326 1185 385 1242 q 268 1052 268 1127 l 268 0 l 91 0 l 91 1389 l 226 1389 m 304 1587 l 567 1776 l 645 1667 l 359 1506 l 304 1587 z "},"Ň":{"ha":937,"x_min":91,"x_max":845,"o":"m 226 1389 l 246 1337 q 351 1395 286 1373 q 474 1417 417 1417 q 670 1365 585 1417 q 800 1225 754 1313 q 845 1030 845 1137 l 845 0 l 669 0 l 669 1004 q 618 1175 669 1107 q 470 1242 567 1242 q 326 1185 385 1242 q 268 1052 268 1127 l 268 0 l 91 0 l 91 1389 l 226 1389 m 248 1732 l 472 1659 l 698 1732 l 698 1623 l 472 1510 l 248 1623 l 248 1732 z "},"Ņ":{"ha":937,"x_min":91,"x_max":845,"o":"m 226 1389 l 246 1337 q 351 1395 286 1373 q 474 1417 417 1417 q 670 1365 585 1417 q 800 1225 754 1313 q 845 1030 845 1137 l 845 0 l 669 0 l 669 1004 q 618 1175 669 1107 q 470 1242 567 1242 q 326 1185 385 1242 q 268 1052 268 1127 l 268 0 l 91 0 l 91 1389 l 226 1389 m 460 -429 q 452 -313 460 -361 q 391 -282 417 -310 q 365 -214 365 -254 q 395 -141 365 -171 q 468 -111 425 -111 q 540 -148 510 -113 q 569 -230 569 -183 q 537 -352 569 -292 q 460 -429 504 -413 z "},"Ñ":{"ha":937,"x_min":91,"x_max":845,"o":"m 226 1389 l 246 1337 q 351 1395 286 1373 q 474 1417 417 1417 q 670 1365 585 1417 q 800 1225 754 1313 q 845 1030 845 1137 l 845 0 l 669 0 l 669 1004 q 618 1175 669 1107 q 470 1242 567 1242 q 326 1185 385 1242 q 268 1052 268 1127 l 268 0 l 91 0 l 91 1389 l 226 1389 m 712 1532 q 685 1548 708 1534 q 615 1562 661 1562 q 492 1536 560 1562 q 353 1506 413 1506 q 262 1524 288 1506 q 234 1544 236 1542 l 234 1667 q 269 1648 236 1665 q 367 1631 302 1631 q 486 1653 423 1631 q 621 1681 562 1681 q 691 1666 673 1681 q 712 1649 710 1651 l 712 1532 z "},"O":{"ha":938,"x_min":95,"x_max":843,"o":"m 468 -28 q 275 19 359 -28 q 143 152 190 65 q 95 349 95 238 l 95 1034 q 143 1231 95 1145 q 275 1364 190 1317 q 468 1411 359 1411 q 740 1308 637 1411 q 843 1034 843 1204 l 843 349 q 740 75 843 179 q 468 -28 637 -28 m 468 147 q 615 200 563 147 q 667 349 667 254 l 667 1034 q 615 1183 667 1129 q 468 1236 563 1236 q 323 1183 375 1236 q 272 1034 272 1129 l 272 349 q 324 201 272 256 q 468 147 377 147 z "},"Ó":{"ha":938,"x_min":95,"x_max":843,"o":"m 468 -28 q 275 19 359 -28 q 143 152 190 65 q 95 349 95 238 l 95 1034 q 143 1231 95 1145 q 275 1364 190 1317 q 468 1411 359 1411 q 740 1308 637 1411 q 843 1034 843 1204 l 843 349 q 740 75 843 179 q 468 -28 637 -28 m 468 147 q 615 200 563 147 q 667 349 667 254 l 667 1034 q 615 1183 667 1129 q 468 1236 563 1236 q 323 1183 375 1236 q 272 1034 272 1129 l 272 349 q 324 201 272 256 q 468 147 377 147 m 300 1575 l 563 1764 l 641 1655 l 355 1494 l 300 1575 z "},"Ǒ":{"ha":938,"x_min":95,"x_max":843,"o":"m 468 -28 q 275 19 359 -28 q 143 152 190 65 q 95 349 95 238 l 95 1034 q 143 1231 95 1145 q 275 1364 190 1317 q 468 1411 359 1411 q 740 1308 637 1411 q 843 1034 843 1204 l 843 349 q 740 75 843 179 q 468 -28 637 -28 m 468 147 q 615 200 563 147 q 667 349 667 254 l 667 1034 q 615 1183 667 1129 q 468 1236 563 1236 q 323 1183 375 1236 q 272 1034 272 1129 l 272 349 q 324 201 272 256 q 468 147 377 147 m 244 1706 l 468 1633 l 694 1706 l 694 1597 l 468 1484 l 244 1597 l 244 1706 z "},"Ô":{"ha":938,"x_min":95,"x_max":843,"o":"m 468 -28 q 275 19 359 -28 q 143 152 190 65 q 95 349 95 238 l 95 1034 q 143 1231 95 1145 q 275 1364 190 1317 q 468 1411 359 1411 q 740 1308 637 1411 q 843 1034 843 1204 l 843 349 q 740 75 843 179 q 468 -28 637 -28 m 468 147 q 615 200 563 147 q 667 349 667 254 l 667 1034 q 615 1183 667 1129 q 468 1236 563 1236 q 323 1183 375 1236 q 272 1034 272 1129 l 272 349 q 324 201 272 256 q 468 147 377 147 m 248 1563 l 468 1675 l 690 1563 l 690 1456 l 468 1528 l 248 1456 l 248 1563 z "},"Ố":{"ha":938,"x_min":95,"x_max":891,"o":"m 468 -28 q 275 19 359 -28 q 143 152 190 65 q 95 349 95 238 l 95 1034 q 143 1231 95 1145 q 275 1364 190 1317 q 468 1411 359 1411 q 740 1308 637 1411 q 843 1034 843 1204 l 843 349 q 740 75 843 179 q 468 -28 637 -28 m 468 147 q 615 200 563 147 q 667 349 667 254 l 667 1034 q 615 1183 667 1129 q 468 1236 563 1236 q 323 1183 375 1236 q 272 1034 272 1129 l 272 349 q 324 201 272 256 q 468 147 377 147 z "},"Ộ":{"ha":938,"x_min":95,"x_max":843,"o":"m 468 -28 q 275 19 359 -28 q 143 152 190 65 q 95 349 95 238 l 95 1034 q 143 1231 95 1145 q 275 1364 190 1317 q 468 1411 359 1411 q 740 1308 637 1411 q 843 1034 843 1204 l 843 349 q 740 75 843 179 q 468 -28 637 -28 m 468 147 q 615 200 563 147 q 667 349 667 254 l 667 1034 q 615 1183 667 1129 q 468 1236 563 1236 q 323 1183 375 1236 q 272 1034 272 1129 l 272 349 q 324 201 272 256 q 468 147 377 147 m 470 -290 q 406 -263 433 -290 q 379 -198 379 -236 q 406 -134 379 -161 q 470 -107 433 -107 q 535 -134 508 -107 q 562 -198 562 -161 q 535 -263 562 -236 q 470 -290 508 -290 m 248 1563 l 468 1675 l 690 1563 l 690 1456 l 468 1528 l 248 1456 l 248 1563 z "},"Ồ":{"ha":938,"x_min":95,"x_max":843,"o":"m 468 -28 q 275 19 359 -28 q 143 152 190 65 q 95 349 95 238 l 95 1034 q 143 1231 95 1145 q 275 1364 190 1317 q 468 1411 359 1411 q 740 1308 637 1411 q 843 1034 843 1204 l 843 349 q 740 75 843 179 q 468 -28 637 -28 m 468 147 q 615 200 563 147 q 667 349 667 254 l 667 1034 q 615 1183 667 1129 q 468 1236 563 1236 q 323 1183 375 1236 q 272 1034 272 1129 l 272 349 q 324 201 272 256 q 468 147 377 147 z "},"Ổ":{"ha":938,"x_min":95,"x_max":843,"o":"m 468 -28 q 275 19 359 -28 q 143 152 190 65 q 95 349 95 238 l 95 1034 q 143 1231 95 1145 q 275 1364 190 1317 q 468 1411 359 1411 q 740 1308 637 1411 q 843 1034 843 1204 l 843 349 q 740 75 843 179 q 468 -28 637 -28 m 468 147 q 615 200 563 147 q 667 349 667 254 l 667 1034 q 615 1183 667 1129 q 468 1236 563 1236 q 323 1183 375 1236 q 272 1034 272 1129 l 272 349 q 324 201 272 256 q 468 147 377 147 z "},"Ỗ":{"ha":938,"x_min":95,"x_max":843,"o":"m 468 -28 q 275 19 359 -28 q 143 152 190 65 q 95 349 95 238 l 95 1034 q 143 1231 95 1145 q 275 1364 190 1317 q 468 1411 359 1411 q 740 1308 637 1411 q 843 1034 843 1204 l 843 349 q 740 75 843 179 q 468 -28 637 -28 m 468 147 q 615 200 563 147 q 667 349 667 254 l 667 1034 q 615 1183 667 1129 q 468 1236 563 1236 q 323 1183 375 1236 q 272 1034 272 1129 l 272 349 q 324 201 272 256 q 468 147 377 147 z "},"Ö":{"ha":938,"x_min":95,"x_max":843,"o":"m 468 -28 q 275 19 359 -28 q 143 152 190 65 q 95 349 95 238 l 95 1034 q 143 1231 95 1145 q 275 1364 190 1317 q 468 1411 359 1411 q 740 1308 637 1411 q 843 1034 843 1204 l 843 349 q 740 75 843 179 q 468 -28 637 -28 m 468 147 q 615 200 563 147 q 667 349 667 254 l 667 1034 q 615 1183 667 1129 q 468 1236 563 1236 q 323 1183 375 1236 q 272 1034 272 1129 l 272 349 q 324 201 272 256 q 468 147 377 147 m 306 1480 q 241 1507 268 1480 q 214 1571 214 1534 q 241 1637 214 1609 q 306 1665 268 1665 q 369 1638 343 1665 q 395 1571 395 1611 q 369 1507 395 1534 q 306 1480 343 1480 m 635 1480 q 570 1507 597 1480 q 544 1571 544 1534 q 570 1637 544 1609 q 635 1665 597 1665 q 698 1638 673 1665 q 724 1571 724 1611 q 698 1507 724 1534 q 635 1480 673 1480 z "},"Ọ":{"ha":938,"x_min":95,"x_max":843,"o":"m 468 -28 q 275 19 359 -28 q 143 152 190 65 q 95 349 95 238 l 95 1034 q 143 1231 95 1145 q 275 1364 190 1317 q 468 1411 359 1411 q 740 1308 637 1411 q 843 1034 843 1204 l 843 349 q 740 75 843 179 q 468 -28 637 -28 m 468 147 q 615 200 563 147 q 667 349 667 254 l 667 1034 q 615 1183 667 1129 q 468 1236 563 1236 q 323 1183 375 1236 q 272 1034 272 1129 l 272 349 q 324 201 272 256 q 468 147 377 147 m 470 -290 q 406 -263 433 -290 q 379 -198 379 -236 q 406 -134 379 -161 q 470 -107 433 -107 q 535 -134 508 -107 q 562 -198 562 -161 q 535 -263 562 -236 q 470 -290 508 -290 z "},"Ò":{"ha":938,"x_min":95,"x_max":843,"o":"m 468 -28 q 275 19 359 -28 q 143 152 190 65 q 95 349 95 238 l 95 1034 q 143 1231 95 1145 q 275 1364 190 1317 q 468 1411 359 1411 q 740 1308 637 1411 q 843 1034 843 1204 l 843 349 q 740 75 843 179 q 468 -28 637 -28 m 468 147 q 615 200 563 147 q 667 349 667 254 l 667 1034 q 615 1183 667 1129 q 468 1236 563 1236 q 323 1183 375 1236 q 272 1034 272 1129 l 272 349 q 324 201 272 256 q 468 147 377 147 m 300 1655 l 377 1764 l 641 1575 l 585 1494 l 300 1655 z "},"Ỏ":{"ha":938,"x_min":95,"x_max":843,"o":"m 468 -28 q 275 19 359 -28 q 143 152 190 65 q 95 349 95 238 l 95 1034 q 143 1231 95 1145 q 275 1364 190 1317 q 468 1411 359 1411 q 740 1308 637 1411 q 843 1034 843 1204 l 843 349 q 740 75 843 179 q 468 -28 637 -28 m 468 147 q 615 200 563 147 q 667 349 667 254 l 667 1034 q 615 1183 667 1129 q 468 1236 563 1236 q 323 1183 375 1236 q 272 1034 272 1129 l 272 349 q 324 201 272 256 q 468 147 377 147 m 415 1651 q 474 1645 450 1645 q 544 1692 544 1645 q 524 1729 544 1716 q 470 1742 504 1742 q 413 1734 442 1742 l 413 1835 q 496 1845 462 1845 q 616 1807 573 1845 q 659 1692 659 1768 q 616 1591 659 1629 q 518 1554 573 1554 l 518 1496 l 415 1496 l 415 1651 z "},"Ơ":{"ha":938,"x_min":95,"x_max":871,"o":"m 730 1317 q 843 1034 843 1210 l 843 349 q 740 75 843 179 q 468 -28 637 -28 q 275 19 359 -28 q 143 152 190 65 q 95 349 95 238 l 95 1034 q 143 1231 95 1145 q 275 1364 190 1317 q 468 1411 359 1411 q 635 1379 556 1411 q 696 1413 679 1393 q 694 1435 694 1421 q 709 1483 694 1460 q 750 1516 724 1506 q 786 1524 766 1524 q 833 1509 812 1524 q 865 1466 855 1494 q 871 1437 871 1452 q 819 1347 871 1387 q 730 1317 790 1323 m 667 1034 q 615 1183 667 1129 q 468 1236 563 1236 q 323 1183 375 1236 q 272 1034 272 1129 l 272 349 q 324 201 272 256 q 468 147 377 147 q 615 200 563 147 q 667 349 667 254 l 667 1034 z "},"Ớ":{"ha":938,"x_min":95,"x_max":871,"o":"m 730 1317 q 843 1034 843 1210 l 843 349 q 740 75 843 179 q 468 -28 637 -28 q 275 19 359 -28 q 143 152 190 65 q 95 349 95 238 l 95 1034 q 143 1231 95 1145 q 275 1364 190 1317 q 468 1411 359 1411 q 635 1379 556 1411 q 696 1413 679 1393 q 694 1435 694 1421 q 709 1483 694 1460 q 750 1516 724 1506 q 786 1524 766 1524 q 833 1509 812 1524 q 865 1466 855 1494 q 871 1437 871 1452 q 819 1347 871 1387 q 730 1317 790 1323 m 667 1034 q 615 1183 667 1129 q 468 1236 563 1236 q 323 1183 375 1236 q 272 1034 272 1129 l 272 349 q 324 201 272 256 q 468 147 377 147 q 615 200 563 147 q 667 349 667 254 l 667 1034 m 300 1575 l 563 1764 l 641 1655 l 355 1494 l 300 1575 z "},"Ợ":{"ha":938,"x_min":95,"x_max":871,"o":"m 730 1317 q 843 1034 843 1210 l 843 349 q 740 75 843 179 q 468 -28 637 -28 q 275 19 359 -28 q 143 152 190 65 q 95 349 95 238 l 95 1034 q 143 1231 95 1145 q 275 1364 190 1317 q 468 1411 359 1411 q 635 1379 556 1411 q 696 1413 679 1393 q 694 1435 694 1421 q 709 1483 694 1460 q 750 1516 724 1506 q 786 1524 766 1524 q 833 1509 812 1524 q 865 1466 855 1494 q 871 1437 871 1452 q 819 1347 871 1387 q 730 1317 790 1323 m 667 1034 q 615 1183 667 1129 q 468 1236 563 1236 q 323 1183 375 1236 q 272 1034 272 1129 l 272 349 q 324 201 272 256 q 468 147 377 147 q 615 200 563 147 q 667 349 667 254 l 667 1034 m 470 -290 q 406 -263 433 -290 q 379 -198 379 -236 q 406 -134 379 -161 q 470 -107 433 -107 q 535 -134 508 -107 q 562 -198 562 -161 q 535 -263 562 -236 q 470 -290 508 -290 z "},"Ờ":{"ha":938,"x_min":95,"x_max":871,"o":"m 730 1317 q 843 1034 843 1210 l 843 349 q 740 75 843 179 q 468 -28 637 -28 q 275 19 359 -28 q 143 152 190 65 q 95 349 95 238 l 95 1034 q 143 1231 95 1145 q 275 1364 190 1317 q 468 1411 359 1411 q 635 1379 556 1411 q 696 1413 679 1393 q 694 1435 694 1421 q 709 1483 694 1460 q 750 1516 724 1506 q 786 1524 766 1524 q 833 1509 812 1524 q 865 1466 855 1494 q 871 1437 871 1452 q 819 1347 871 1387 q 730 1317 790 1323 m 667 1034 q 615 1183 667 1129 q 468 1236 563 1236 q 323 1183 375 1236 q 272 1034 272 1129 l 272 349 q 324 201 272 256 q 468 147 377 147 q 615 200 563 147 q 667 349 667 254 l 667 1034 m 300 1655 l 377 1764 l 641 1575 l 585 1494 l 300 1655 z "},"Ở":{"ha":938,"x_min":95,"x_max":871,"o":"m 730 1317 q 843 1034 843 1210 l 843 349 q 740 75 843 179 q 468 -28 637 -28 q 275 19 359 -28 q 143 152 190 65 q 95 349 95 238 l 95 1034 q 143 1231 95 1145 q 275 1364 190 1317 q 468 1411 359 1411 q 635 1379 556 1411 q 696 1413 679 1393 q 694 1435 694 1421 q 709 1483 694 1460 q 750 1516 724 1506 q 786 1524 766 1524 q 833 1509 812 1524 q 865 1466 855 1494 q 871 1437 871 1452 q 819 1347 871 1387 q 730 1317 790 1323 m 667 1034 q 615 1183 667 1129 q 468 1236 563 1236 q 323 1183 375 1236 q 272 1034 272 1129 l 272 349 q 324 201 272 256 q 468 147 377 147 q 615 200 563 147 q 667 349 667 254 l 667 1034 m 415 1651 q 474 1645 450 1645 q 544 1692 544 1645 q 524 1729 544 1716 q 470 1742 504 1742 q 413 1734 442 1742 l 413 1835 q 496 1845 462 1845 q 616 1807 573 1845 q 659 1692 659 1768 q 616 1591 659 1629 q 518 1554 573 1554 l 518 1496 l 415 1496 l 415 1651 z "},"Ỡ":{"ha":938,"x_min":95,"x_max":871,"o":"m 730 1317 q 843 1034 843 1210 l 843 349 q 740 75 843 179 q 468 -28 637 -28 q 275 19 359 -28 q 143 152 190 65 q 95 349 95 238 l 95 1034 q 143 1231 95 1145 q 275 1364 190 1317 q 468 1411 359 1411 q 635 1379 556 1411 q 696 1413 679 1393 q 694 1435 694 1421 q 709 1483 694 1460 q 750 1516 724 1506 q 786 1524 766 1524 q 833 1509 812 1524 q 865 1466 855 1494 q 871 1437 871 1452 q 819 1347 871 1387 q 730 1317 790 1323 m 667 1034 q 615 1183 667 1129 q 468 1236 563 1236 q 323 1183 375 1236 q 272 1034 272 1129 l 272 349 q 324 201 272 256 q 468 147 377 147 q 615 200 563 147 q 667 349 667 254 l 667 1034 m 708 1520 q 681 1536 704 1522 q 611 1550 657 1550 q 488 1524 556 1550 q 349 1494 409 1494 q 258 1512 284 1494 q 230 1532 232 1530 l 230 1655 q 265 1636 232 1653 q 363 1619 298 1619 q 482 1641 419 1619 q 617 1669 558 1669 q 688 1654 669 1669 q 708 1637 706 1639 l 708 1520 z "},"Ő":{"ha":938,"x_min":95,"x_max":843,"o":"m 468 -28 q 275 19 359 -28 q 143 152 190 65 q 95 349 95 238 l 95 1034 q 143 1231 95 1145 q 275 1364 190 1317 q 468 1411 359 1411 q 740 1308 637 1411 q 843 1034 843 1204 l 843 349 q 740 75 843 179 q 468 -28 637 -28 m 468 147 q 615 200 563 147 q 667 349 667 254 l 667 1034 q 615 1183 667 1129 q 468 1236 563 1236 q 323 1183 375 1236 q 272 1034 272 1129 l 272 349 q 324 201 272 256 q 468 147 377 147 m 748 1794 l 843 1698 l 589 1492 l 520 1562 l 748 1794 m 429 1792 l 524 1696 l 270 1490 l 200 1560 l 429 1792 z "},"Ō":{"ha":938,"x_min":95,"x_max":843,"o":"m 468 -28 q 275 19 359 -28 q 143 152 190 65 q 95 349 95 238 l 95 1034 q 143 1231 95 1145 q 275 1364 190 1317 q 468 1411 359 1411 q 740 1308 637 1411 q 843 1034 843 1204 l 843 349 q 740 75 843 179 q 468 -28 637 -28 m 468 147 q 615 200 563 147 q 667 349 667 254 l 667 1034 q 615 1183 667 1129 q 468 1236 563 1236 q 323 1183 375 1236 q 272 1034 272 1129 l 272 349 q 324 201 272 256 q 468 147 377 147 m 232 1635 l 708 1635 l 708 1514 l 232 1514 l 232 1635 z "},"Ø":{"ha":938,"x_min":95,"x_max":843,"o":"m 780 1260 q 843 1034 843 1165 l 843 349 q 740 75 843 179 q 468 -28 637 -28 q 290 12 369 -28 l 262 -62 l 111 0 l 159 123 q 95 349 95 222 l 95 1034 q 143 1231 95 1145 q 275 1364 190 1317 q 468 1411 359 1411 q 647 1373 565 1411 l 677 1446 l 827 1385 l 780 1260 m 272 411 l 583 1208 q 468 1236 534 1236 q 323 1183 375 1236 q 272 1034 272 1129 l 272 411 m 468 147 q 615 200 563 147 q 667 349 667 254 l 667 974 l 355 177 q 468 147 399 147 z "},"Õ":{"ha":938,"x_min":95,"x_max":843,"o":"m 468 -28 q 275 19 359 -28 q 143 152 190 65 q 95 349 95 238 l 95 1034 q 143 1231 95 1145 q 275 1364 190 1317 q 468 1411 359 1411 q 740 1308 637 1411 q 843 1034 843 1204 l 843 349 q 740 75 843 179 q 468 -28 637 -28 m 468 147 q 615 200 563 147 q 667 349 667 254 l 667 1034 q 615 1183 667 1129 q 468 1236 563 1236 q 323 1183 375 1236 q 272 1034 272 1129 l 272 349 q 324 201 272 256 q 468 147 377 147 m 708 1520 q 681 1536 704 1522 q 611 1550 657 1550 q 488 1524 556 1550 q 349 1494 409 1494 q 258 1512 284 1494 q 230 1532 232 1530 l 230 1655 q 265 1636 232 1653 q 363 1619 298 1619 q 482 1641 419 1619 q 617 1669 558 1669 q 688 1654 669 1669 q 708 1637 706 1639 l 708 1520 z "},"Œ":{"ha":1470,"x_min":95,"x_max":1375,"o":"m 1375 179 l 1375 0 l 754 0 l 754 69 q 635 -20 706 12 q 472 -52 563 -52 q 274 -4 359 -52 q 142 128 188 44 q 95 319 95 212 l 95 1069 q 141 1259 95 1175 q 270 1392 187 1343 q 464 1440 353 1440 q 754 1317 651 1440 l 754 1389 l 1298 1389 l 1298 1210 l 893 1210 l 893 859 l 1183 859 l 1183 681 l 893 681 l 893 179 l 1375 179 m 683 1062 q 624 1210 683 1157 q 464 1264 565 1264 q 321 1211 369 1264 q 274 1062 274 1159 l 274 329 q 321 179 274 232 q 464 125 369 125 q 626 180 569 125 q 683 329 683 234 l 683 1062 z "},"P":{"ha":853,"x_min":91,"x_max":764,"o":"m 399 1387 q 512 1372 450 1387 q 629 1319 573 1357 q 725 1213 687 1282 q 764 1040 764 1145 q 643 746 764 863 q 468 639 569 675 q 268 597 367 603 l 268 0 l 91 0 l 91 1387 l 399 1387 m 268 774 q 405 804 335 778 q 520 873 474 829 q 587 1040 587 938 q 533 1173 587 1135 q 399 1210 478 1210 l 268 1210 l 268 774 z "},"Q":{"ha":1024,"x_min":95,"x_max":974,"o":"m 974 159 l 974 -6 l 871 -6 l 756 91 q 632 3 706 34 q 468 -28 558 -28 q 275 19 359 -28 q 143 152 190 65 q 95 349 95 238 l 95 1034 q 143 1231 95 1145 q 275 1364 190 1317 q 468 1411 359 1411 q 740 1308 637 1411 q 843 1034 843 1204 l 843 349 q 831 244 843 292 l 974 159 m 468 147 q 621 206 567 147 l 518 294 l 585 389 l 667 341 l 667 349 l 667 1034 q 615 1183 667 1129 q 468 1236 563 1236 q 323 1183 375 1236 q 272 1034 272 1129 l 272 349 q 324 201 272 256 q 468 147 377 147 z "},"R":{"ha":925,"x_min":91,"x_max":837,"o":"m 387 1389 q 565 1349 480 1389 q 704 1228 651 1310 q 758 1032 758 1147 q 714 846 758 931 q 595 702 671 762 q 775 391 712 571 q 837 0 837 210 l 659 0 q 601 350 659 192 q 435 615 544 508 q 268 583 347 585 l 268 0 l 91 0 l 91 1389 l 387 1389 m 268 760 q 392 787 325 760 q 502 857 458 813 q 581 1032 581 937 q 517 1176 581 1139 q 387 1212 452 1212 l 268 1212 l 268 760 z "},"Ŕ":{"ha":925,"x_min":91,"x_max":837,"o":"m 387 1389 q 565 1349 480 1389 q 704 1228 651 1310 q 758 1032 758 1147 q 714 846 758 931 q 595 702 671 762 q 775 391 712 571 q 837 0 837 210 l 659 0 q 601 350 659 192 q 435 615 544 508 q 268 583 347 585 l 268 0 l 91 0 l 91 1389 l 387 1389 m 268 760 q 392 787 325 760 q 502 857 458 813 q 581 1032 581 937 q 517 1176 581 1139 q 387 1212 452 1212 l 268 1212 l 268 760 m 228 1562 l 492 1750 l 569 1641 l 284 1480 l 228 1562 z "},"Ř":{"ha":925,"x_min":91,"x_max":837,"o":"m 387 1389 q 565 1349 480 1389 q 704 1228 651 1310 q 758 1032 758 1147 q 714 846 758 931 q 595 702 671 762 q 775 391 712 571 q 837 0 837 210 l 659 0 q 601 350 659 192 q 435 615 544 508 q 268 583 347 585 l 268 0 l 91 0 l 91 1389 l 387 1389 m 268 760 q 392 787 325 760 q 502 857 458 813 q 581 1032 581 937 q 517 1176 581 1139 q 387 1212 452 1212 l 268 1212 l 268 760 m 173 1692 l 397 1619 l 623 1692 l 623 1583 l 397 1470 l 173 1583 l 173 1692 z "},"Ŗ":{"ha":925,"x_min":91,"x_max":837,"o":"m 387 1389 q 565 1349 480 1389 q 704 1228 651 1310 q 758 1032 758 1147 q 714 846 758 931 q 595 702 671 762 q 775 391 712 571 q 837 0 837 210 l 659 0 q 601 350 659 192 q 435 615 544 508 q 268 583 347 585 l 268 0 l 91 0 l 91 1389 l 387 1389 m 268 760 q 392 787 325 760 q 502 857 458 813 q 581 1032 581 937 q 517 1176 581 1139 q 387 1212 452 1212 l 268 1212 l 268 760 m 437 -429 q 429 -313 437 -361 q 367 -282 393 -310 q 341 -214 341 -254 q 371 -141 341 -171 q 444 -111 401 -111 q 516 -148 486 -113 q 546 -230 546 -183 q 513 -352 546 -292 q 437 -429 480 -413 z "},"S":{"ha":909,"x_min":79,"x_max":829,"o":"m 446 -38 q 333 -22 387 -38 q 167 88 230 10 q 79 256 103 167 l 244 329 q 383 145 280 183 q 458 131 419 131 q 597 188 542 131 q 653 323 653 246 q 534 546 653 427 q 357 710 512 569 q 228 829 329 734 q 142 956 173 887 q 111 1095 111 1026 q 143 1233 111 1169 q 234 1345 175 1298 q 440 1419 325 1419 q 534 1405 490 1419 q 704 1296 635 1379 l 583 1165 q 488 1236 546 1218 q 440 1242 464 1242 q 332 1199 377 1242 q 288 1095 288 1157 q 306 1023 288 1060 q 355 954 323 986 q 542 780 393 915 q 661 671 661 671 q 829 325 829 496 q 716 62 829 165 q 592 -11 667 16 q 446 -38 518 -38 z "},"Ś":{"ha":909,"x_min":79,"x_max":829,"o":"m 446 -38 q 333 -22 387 -38 q 167 88 230 10 q 79 256 103 167 l 244 329 q 383 145 280 183 q 458 131 419 131 q 597 188 542 131 q 653 323 653 246 q 534 546 653 427 q 357 710 512 569 q 228 829 329 734 q 142 956 173 887 q 111 1095 111 1026 q 143 1233 111 1169 q 234 1345 175 1298 q 440 1419 325 1419 q 534 1405 490 1419 q 704 1296 635 1379 l 583 1165 q 488 1236 546 1218 q 440 1242 464 1242 q 332 1199 377 1242 q 288 1095 288 1157 q 306 1023 288 1060 q 355 954 323 986 q 542 780 393 915 q 661 671 661 671 q 829 325 829 496 q 716 62 829 165 q 592 -11 667 16 q 446 -38 518 -38 m 272 1583 l 536 1772 l 613 1663 l 327 1502 l 272 1583 z "},"Š":{"ha":909,"x_min":79,"x_max":829,"o":"m 446 -38 q 333 -22 387 -38 q 167 88 230 10 q 79 256 103 167 l 244 329 q 383 145 280 183 q 458 131 419 131 q 597 188 542 131 q 653 323 653 246 q 534 546 653 427 q 357 710 512 569 q 228 829 329 734 q 142 956 173 887 q 111 1095 111 1026 q 143 1233 111 1169 q 234 1345 175 1298 q 440 1419 325 1419 q 534 1405 490 1419 q 704 1296 635 1379 l 583 1165 q 488 1236 546 1218 q 440 1242 464 1242 q 332 1199 377 1242 q 288 1095 288 1157 q 306 1023 288 1060 q 355 954 323 986 q 542 780 393 915 q 661 671 661 671 q 829 325 829 496 q 716 62 829 165 q 592 -11 667 16 q 446 -38 518 -38 m 216 1732 l 440 1659 l 667 1732 l 667 1623 l 440 1510 l 216 1623 l 216 1732 z "},"Ş":{"ha":909,"x_min":79,"x_max":829,"o":"m 661 671 q 829 325 829 496 q 716 62 829 165 q 524 -30 647 -6 l 474 -81 q 539 -141 518 -105 q 560 -216 560 -177 q 538 -296 560 -258 q 481 -346 518 -327 q 401 -365 444 -365 q 319 -349 357 -365 l 319 -238 q 373 -246 345 -246 q 420 -233 405 -246 q 435 -198 435 -220 q 404 -141 435 -167 q 313 -107 373 -115 l 387 -34 q 333 -22 339 -24 q 167 88 230 10 q 79 256 103 167 l 244 329 q 383 145 280 183 q 458 131 419 131 q 597 188 542 131 q 653 323 653 246 q 534 546 653 427 q 357 710 512 569 q 228 829 329 734 q 142 956 173 887 q 111 1095 111 1026 q 143 1233 111 1169 q 234 1345 175 1298 q 440 1419 325 1419 q 534 1405 490 1419 q 704 1296 635 1379 l 583 1165 q 488 1236 546 1218 q 440 1242 464 1242 q 332 1199 377 1242 q 288 1095 288 1157 q 306 1023 288 1060 q 355 954 323 986 q 542 780 393 915 q 661 671 661 671 z "},"Ș":{"ha":909,"x_min":79,"x_max":829,"o":"m 446 -38 q 333 -22 387 -38 q 167 88 230 10 q 79 256 103 167 l 244 329 q 383 145 280 183 q 458 131 419 131 q 597 188 542 131 q 653 323 653 246 q 534 546 653 427 q 357 710 512 569 q 228 829 329 734 q 142 956 173 887 q 111 1095 111 1026 q 143 1233 111 1169 q 234 1345 175 1298 q 440 1419 325 1419 q 534 1405 490 1419 q 704 1296 635 1379 l 583 1165 q 488 1236 546 1218 q 440 1242 464 1242 q 332 1199 377 1242 q 288 1095 288 1157 q 306 1023 288 1060 q 355 954 323 986 q 542 780 393 915 q 661 671 661 671 q 829 325 829 496 q 716 62 829 165 q 592 -11 667 16 q 446 -38 518 -38 m 435 -452 q 427 -337 435 -385 q 365 -306 391 -333 q 339 -238 339 -278 q 369 -165 339 -194 q 442 -135 399 -135 q 514 -172 484 -137 q 544 -254 544 -206 q 511 -376 544 -315 q 435 -452 478 -437 z "},"T":{"ha":927,"x_min":91,"x_max":835,"o":"m 375 1210 l 91 1210 l 91 1389 l 835 1389 l 835 1210 l 554 1210 l 554 0 l 375 0 l 375 1210 z "},"Ŧ":{"ha":927,"x_min":91,"x_max":835,"o":"m 835 1210 l 554 1210 l 554 810 l 744 810 l 744 647 l 554 647 l 554 0 l 375 0 l 375 647 l 181 647 l 181 810 l 375 810 l 375 1210 l 91 1210 l 91 1389 l 835 1389 l 835 1210 z "},"Ť":{"ha":927,"x_min":91,"x_max":835,"o":"m 375 1210 l 91 1210 l 91 1389 l 835 1389 l 835 1210 l 554 1210 l 554 0 l 375 0 l 375 1210 m 238 1692 l 462 1619 l 688 1692 l 688 1583 l 462 1470 l 238 1583 l 238 1692 z "},"Ţ":{"ha":927,"x_min":91,"x_max":835,"o":"m 554 0 l 498 -58 q 563 -117 542 -81 q 583 -192 583 -153 q 562 -272 583 -234 q 505 -322 542 -304 q 425 -341 468 -341 q 343 -325 381 -341 l 343 -214 q 397 -222 369 -222 q 443 -209 429 -222 q 458 -175 458 -196 q 428 -117 458 -143 q 337 -83 397 -91 l 419 0 l 375 0 l 375 1210 l 91 1210 l 91 1389 l 835 1389 l 835 1210 l 554 1210 l 554 0 z "},"Ț":{"ha":927,"x_min":91,"x_max":835,"o":"m 375 1210 l 91 1210 l 91 1389 l 835 1389 l 835 1210 l 554 1210 l 554 0 l 375 0 l 375 1210 m 458 -429 q 450 -313 458 -361 q 389 -282 415 -310 q 363 -214 363 -254 q 393 -141 363 -171 q 466 -111 423 -111 q 538 -148 508 -113 q 567 -230 567 -183 q 535 -352 567 -292 q 458 -429 502 -413 z "},"U":{"ha":937,"x_min":91,"x_max":845,"o":"m 452 -26 q 184 80 276 -26 q 91 373 91 187 l 91 1389 l 266 1389 l 268 351 q 318 197 268 250 q 462 145 369 145 q 607 217 552 145 q 667 385 663 290 l 667 1389 l 845 1389 l 845 0 l 708 0 l 677 54 q 452 -26 595 -26 z "},"Ú":{"ha":937,"x_min":91,"x_max":845,"o":"m 452 -26 q 184 80 276 -26 q 91 373 91 187 l 91 1389 l 266 1389 l 268 351 q 318 197 268 250 q 462 145 369 145 q 607 217 552 145 q 667 385 663 290 l 667 1389 l 845 1389 l 845 0 l 708 0 l 677 54 q 452 -26 595 -26 m 300 1562 l 563 1750 l 641 1641 l 355 1480 l 300 1562 z "},"Ǔ":{"ha":937,"x_min":91,"x_max":845,"o":"m 452 -26 q 184 80 276 -26 q 91 373 91 187 l 91 1389 l 266 1389 l 268 351 q 318 197 268 250 q 462 145 369 145 q 607 217 552 145 q 667 385 663 290 l 667 1389 l 845 1389 l 845 0 l 708 0 l 677 54 q 452 -26 595 -26 m 244 1692 l 468 1619 l 694 1692 l 694 1583 l 468 1470 l 244 1583 l 244 1692 z "},"Û":{"ha":937,"x_min":91,"x_max":845,"o":"m 452 -26 q 184 80 276 -26 q 91 373 91 187 l 91 1389 l 266 1389 l 268 351 q 318 197 268 250 q 462 145 369 145 q 607 217 552 145 q 667 385 663 290 l 667 1389 l 845 1389 l 845 0 l 708 0 l 677 54 q 452 -26 595 -26 m 250 1583 l 470 1694 l 692 1583 l 692 1476 l 470 1548 l 250 1476 l 250 1583 z "},"Ü":{"ha":937,"x_min":91,"x_max":845,"o":"m 452 -26 q 184 80 276 -26 q 91 373 91 187 l 91 1389 l 266 1389 l 268 351 q 318 197 268 250 q 462 145 369 145 q 607 217 552 145 q 667 385 663 290 l 667 1389 l 845 1389 l 845 0 l 708 0 l 677 54 q 452 -26 595 -26 m 306 1466 q 241 1493 268 1466 q 214 1558 214 1520 q 241 1623 214 1595 q 306 1651 268 1651 q 369 1624 343 1651 q 395 1558 395 1597 q 369 1493 395 1520 q 306 1466 343 1466 m 635 1466 q 570 1493 597 1466 q 544 1558 544 1520 q 570 1623 544 1595 q 635 1651 597 1651 q 698 1624 673 1651 q 724 1558 724 1597 q 698 1493 724 1520 q 635 1466 673 1466 z "},"Ǘ":{"ha":937,"x_min":91,"x_max":845,"o":"m 452 -26 q 184 80 276 -26 q 91 373 91 187 l 91 1389 l 266 1389 l 268 351 q 318 197 268 250 q 462 145 369 145 q 607 217 552 145 q 667 385 663 290 l 667 1389 l 845 1389 l 845 0 l 708 0 l 677 54 q 452 -26 595 -26 z "},"Ǚ":{"ha":937,"x_min":91,"x_max":845,"o":"m 452 -26 q 184 80 276 -26 q 91 373 91 187 l 91 1389 l 266 1389 l 268 351 q 318 197 268 250 q 462 145 369 145 q 607 217 552 145 q 667 385 663 290 l 667 1389 l 845 1389 l 845 0 l 708 0 l 677 54 q 452 -26 595 -26 z "},"Ǜ":{"ha":937,"x_min":91,"x_max":845,"o":"m 452 -26 q 184 80 276 -26 q 91 373 91 187 l 91 1389 l 266 1389 l 268 351 q 318 197 268 250 q 462 145 369 145 q 607 217 552 145 q 667 385 663 290 l 667 1389 l 845 1389 l 845 0 l 708 0 l 677 54 q 452 -26 595 -26 z "},"Ǖ":{"ha":937,"x_min":91,"x_max":845,"o":"m 452 -26 q 184 80 276 -26 q 91 373 91 187 l 91 1389 l 266 1389 l 268 351 q 318 197 268 250 q 462 145 369 145 q 607 217 552 145 q 667 385 663 290 l 667 1389 l 845 1389 l 845 0 l 708 0 l 677 54 q 452 -26 595 -26 z "},"Ụ":{"ha":937,"x_min":91,"x_max":845,"o":"m 452 -26 q 184 80 276 -26 q 91 373 91 187 l 91 1389 l 266 1389 l 268 351 q 318 197 268 250 q 462 145 369 145 q 607 217 552 145 q 667 385 663 290 l 667 1389 l 845 1389 l 845 0 l 708 0 l 677 54 q 452 -26 595 -26 m 466 -282 q 402 -255 429 -282 q 375 -190 375 -228 q 402 -126 375 -153 q 466 -99 429 -99 q 531 -126 504 -99 q 558 -190 558 -153 q 531 -255 558 -228 q 466 -282 504 -282 z "},"Ù":{"ha":937,"x_min":91,"x_max":845,"o":"m 452 -26 q 184 80 276 -26 q 91 373 91 187 l 91 1389 l 266 1389 l 268 351 q 318 197 268 250 q 462 145 369 145 q 607 217 552 145 q 667 385 663 290 l 667 1389 l 845 1389 l 845 0 l 708 0 l 677 54 q 452 -26 595 -26 m 300 1641 l 377 1750 l 641 1562 l 585 1480 l 300 1641 z "},"Ủ":{"ha":937,"x_min":91,"x_max":845,"o":"m 452 -26 q 184 80 276 -26 q 91 373 91 187 l 91 1389 l 266 1389 l 268 351 q 318 197 268 250 q 462 145 369 145 q 607 217 552 145 q 667 385 663 290 l 667 1389 l 845 1389 l 845 0 l 708 0 l 677 54 q 452 -26 595 -26 m 415 1637 q 474 1631 450 1631 q 544 1679 544 1631 q 524 1715 544 1702 q 470 1728 504 1728 q 413 1720 442 1728 l 413 1821 q 496 1831 462 1831 q 616 1793 573 1831 q 659 1679 659 1754 q 616 1577 659 1615 q 518 1540 573 1540 l 518 1482 l 415 1482 l 415 1637 z "},"Ư":{"ha":937,"x_min":91,"x_max":1018,"o":"m 1012 1482 q 1018 1452 1018 1468 q 966 1363 1018 1403 q 845 1331 921 1331 l 845 0 l 708 0 l 677 54 q 452 -26 595 -26 q 184 80 276 -26 q 91 373 91 187 l 91 1389 l 266 1389 l 268 351 q 318 197 268 250 q 462 145 369 145 q 607 217 552 145 q 667 385 663 290 l 667 1389 l 754 1389 q 806 1403 780 1391 q 843 1429 831 1415 q 841 1450 841 1437 q 856 1499 841 1476 q 897 1532 871 1522 q 933 1540 913 1540 q 980 1525 958 1540 q 1012 1482 1002 1510 z "},"Ứ":{"ha":937,"x_min":91,"x_max":1018,"o":"m 1012 1482 q 1018 1452 1018 1468 q 966 1363 1018 1403 q 845 1331 921 1331 l 845 0 l 708 0 l 677 54 q 452 -26 595 -26 q 184 80 276 -26 q 91 373 91 187 l 91 1389 l 266 1389 l 268 351 q 318 197 268 250 q 462 145 369 145 q 607 217 552 145 q 667 385 663 290 l 667 1389 l 754 1389 q 806 1403 780 1391 q 843 1429 831 1415 q 841 1450 841 1437 q 856 1499 841 1476 q 897 1532 871 1522 q 933 1540 913 1540 q 980 1525 958 1540 q 1012 1482 1002 1510 m 300 1562 l 563 1750 l 641 1641 l 355 1480 l 300 1562 z "},"Ự":{"ha":937,"x_min":91,"x_max":1018,"o":"m 1012 1482 q 1018 1452 1018 1468 q 966 1363 1018 1403 q 845 1331 921 1331 l 845 0 l 708 0 l 677 54 q 452 -26 595 -26 q 184 80 276 -26 q 91 373 91 187 l 91 1389 l 266 1389 l 268 351 q 318 197 268 250 q 462 145 369 145 q 607 217 552 145 q 667 385 663 290 l 667 1389 l 754 1389 q 806 1403 780 1391 q 843 1429 831 1415 q 841 1450 841 1437 q 856 1499 841 1476 q 897 1532 871 1522 q 933 1540 913 1540 q 980 1525 958 1540 q 1012 1482 1002 1510 m 466 -282 q 402 -255 429 -282 q 375 -190 375 -228 q 402 -126 375 -153 q 466 -99 429 -99 q 531 -126 504 -99 q 558 -190 558 -153 q 531 -255 558 -228 q 466 -282 504 -282 z "},"Ừ":{"ha":937,"x_min":91,"x_max":1018,"o":"m 1012 1482 q 1018 1452 1018 1468 q 966 1363 1018 1403 q 845 1331 921 1331 l 845 0 l 708 0 l 677 54 q 452 -26 595 -26 q 184 80 276 -26 q 91 373 91 187 l 91 1389 l 266 1389 l 268 351 q 318 197 268 250 q 462 145 369 145 q 607 217 552 145 q 667 385 663 290 l 667 1389 l 754 1389 q 806 1403 780 1391 q 843 1429 831 1415 q 841 1450 841 1437 q 856 1499 841 1476 q 897 1532 871 1522 q 933 1540 913 1540 q 980 1525 958 1540 q 1012 1482 1002 1510 m 300 1641 l 377 1750 l 641 1562 l 585 1480 l 300 1641 z "},"Ử":{"ha":937,"x_min":91,"x_max":1018,"o":"m 1012 1482 q 1018 1452 1018 1468 q 966 1363 1018 1403 q 845 1331 921 1331 l 845 0 l 708 0 l 677 54 q 452 -26 595 -26 q 184 80 276 -26 q 91 373 91 187 l 91 1389 l 266 1389 l 268 351 q 318 197 268 250 q 462 145 369 145 q 607 217 552 145 q 667 385 663 290 l 667 1389 l 754 1389 q 806 1403 780 1391 q 843 1429 831 1415 q 841 1450 841 1437 q 856 1499 841 1476 q 897 1532 871 1522 q 933 1540 913 1540 q 980 1525 958 1540 q 1012 1482 1002 1510 m 415 1637 q 474 1631 450 1631 q 544 1679 544 1631 q 524 1715 544 1702 q 470 1728 504 1728 q 413 1720 442 1728 l 413 1821 q 496 1831 462 1831 q 616 1793 573 1831 q 659 1679 659 1754 q 616 1577 659 1615 q 518 1540 573 1540 l 518 1482 l 415 1482 l 415 1637 z "},"Ữ":{"ha":937,"x_min":91,"x_max":1018,"o":"m 1012 1482 q 1018 1452 1018 1468 q 966 1363 1018 1403 q 845 1331 921 1331 l 845 0 l 708 0 l 677 54 q 452 -26 595 -26 q 184 80 276 -26 q 91 373 91 187 l 91 1389 l 266 1389 l 268 351 q 318 197 268 250 q 462 145 369 145 q 607 217 552 145 q 667 385 663 290 l 667 1389 l 754 1389 q 806 1403 780 1391 q 843 1429 831 1415 q 841 1450 841 1437 q 856 1499 841 1476 q 897 1532 871 1522 q 933 1540 913 1540 q 980 1525 958 1540 q 1012 1482 1002 1510 m 708 1506 q 681 1522 704 1508 q 611 1536 657 1536 q 488 1510 556 1536 q 349 1480 409 1480 q 258 1498 284 1480 q 230 1518 232 1516 l 230 1641 q 265 1622 232 1639 q 363 1605 298 1605 q 482 1627 419 1605 q 617 1655 558 1655 q 688 1640 669 1655 q 708 1623 706 1625 l 708 1506 z "},"Ű":{"ha":937,"x_min":91,"x_max":845,"o":"m 452 -26 q 184 80 276 -26 q 91 373 91 187 l 91 1389 l 266 1389 l 268 351 q 318 197 268 250 q 462 145 369 145 q 607 217 552 145 q 667 385 663 290 l 667 1389 l 845 1389 l 845 0 l 708 0 l 677 54 q 452 -26 595 -26 m 748 1780 l 843 1685 l 589 1478 l 520 1548 l 748 1780 m 429 1778 l 524 1683 l 270 1476 l 200 1546 l 429 1778 z "},"Ū":{"ha":937,"x_min":91,"x_max":845,"o":"m 452 -26 q 184 80 276 -26 q 91 373 91 187 l 91 1389 l 266 1389 l 268 351 q 318 197 268 250 q 462 145 369 145 q 607 217 552 145 q 667 385 663 290 l 667 1389 l 845 1389 l 845 0 l 708 0 l 677 54 q 452 -26 595 -26 m 232 1621 l 708 1621 l 708 1500 l 232 1500 l 232 1621 z "},"Ų":{"ha":937,"x_min":91,"x_max":845,"o":"m 845 1389 l 845 0 l 708 0 l 677 54 q 542 -16 623 2 q 481 -63 498 -40 q 464 -113 464 -87 q 536 -175 464 -175 q 577 -171 546 -175 l 577 -286 q 504 -294 544 -294 q 382 -254 427 -294 q 337 -143 337 -214 q 387 -22 337 -67 q 166 101 240 -2 q 91 373 91 204 l 91 1389 l 266 1389 l 268 351 q 318 197 268 250 q 462 145 369 145 q 607 217 552 145 q 667 385 663 290 l 667 1389 l 845 1389 z "},"Ů":{"ha":937,"x_min":91,"x_max":845,"o":"m 452 -26 q 184 80 276 -26 q 91 373 91 187 l 91 1389 l 266 1389 l 268 351 q 318 197 268 250 q 462 145 369 145 q 607 217 552 145 q 667 385 663 290 l 667 1389 l 845 1389 l 845 0 l 708 0 l 677 54 q 452 -26 595 -26 m 468 1423 q 290 1495 363 1423 q 216 1675 216 1567 q 290 1854 216 1782 q 468 1927 363 1927 q 650 1854 575 1927 q 724 1675 724 1782 q 650 1495 724 1567 q 468 1423 575 1423 m 470 1552 q 559 1587 522 1552 q 595 1675 595 1623 q 559 1762 595 1726 q 470 1798 522 1798 q 383 1762 419 1798 q 347 1675 347 1726 q 383 1588 347 1625 q 470 1552 419 1552 z "},"Ũ":{"ha":937,"x_min":91,"x_max":845,"o":"m 452 -26 q 184 80 276 -26 q 91 373 91 187 l 91 1389 l 266 1389 l 268 351 q 318 197 268 250 q 462 145 369 145 q 607 217 552 145 q 667 385 663 290 l 667 1389 l 845 1389 l 845 0 l 708 0 l 677 54 q 452 -26 595 -26 m 708 1506 q 681 1522 704 1508 q 611 1536 657 1536 q 488 1510 556 1536 q 349 1480 409 1480 q 258 1498 284 1480 q 230 1518 232 1516 l 230 1641 q 265 1622 232 1639 q 363 1605 298 1605 q 482 1627 419 1605 q 617 1655 558 1655 q 688 1640 669 1655 q 708 1623 706 1625 l 708 1506 z "},"V":{"ha":972,"x_min":91,"x_max":881,"o":"m 881 -24 q 548 134 708 10 q 274 447 387 258 q 125 857 161 637 q 98 1096 105 982 q 91 1389 91 1210 l 270 1389 q 276 1104 270 1208 q 300 887 282 1000 q 453 489 335 657 q 702 242 571 321 l 702 1389 l 881 1389 l 881 -24 z "},"W":{"ha":1268,"x_min":91,"x_max":1177,"o":"m 268 1389 l 268 308 q 302 202 268 246 q 403 159 335 159 q 508 202 470 159 q 546 308 546 246 l 546 1389 l 722 1389 l 722 308 q 760 202 722 246 q 865 159 798 159 q 966 202 933 159 q 1000 310 1000 246 l 1000 1389 l 1177 1389 l 1177 310 q 1136 141 1177 216 q 1025 23 1095 65 q 865 -20 954 -20 q 737 6 796 -20 q 635 77 679 32 q 403 -20 544 -20 q 243 23 313 -20 q 132 141 173 65 q 91 308 91 216 l 91 1389 l 268 1389 z "},"Ẃ":{"ha":1268,"x_min":91,"x_max":1177,"o":"m 268 1389 l 268 308 q 302 202 268 246 q 403 159 335 159 q 508 202 470 159 q 546 308 546 246 l 546 1389 l 722 1389 l 722 308 q 760 202 722 246 q 865 159 798 159 q 966 202 933 159 q 1000 310 1000 246 l 1000 1389 l 1177 1389 l 1177 310 q 1136 141 1177 216 q 1025 23 1095 65 q 865 -20 954 -20 q 737 6 796 -20 q 635 77 679 32 q 403 -20 544 -20 q 243 23 313 -20 q 132 141 173 65 q 91 308 91 216 l 91 1389 l 268 1389 m 532 1562 l 796 1750 l 873 1641 l 587 1480 l 532 1562 z "},"Ŵ":{"ha":1268,"x_min":91,"x_max":1177,"o":"m 268 1389 l 268 308 q 302 202 268 246 q 403 159 335 159 q 508 202 470 159 q 546 308 546 246 l 546 1389 l 722 1389 l 722 308 q 760 202 722 246 q 865 159 798 159 q 966 202 933 159 q 1000 310 1000 246 l 1000 1389 l 1177 1389 l 1177 310 q 1136 141 1177 216 q 1025 23 1095 65 q 865 -20 954 -20 q 737 6 796 -20 q 635 77 679 32 q 403 -20 544 -20 q 243 23 313 -20 q 132 141 173 65 q 91 308 91 216 l 91 1389 l 268 1389 m 482 1583 l 702 1694 l 925 1583 l 925 1476 l 702 1548 l 482 1476 l 482 1583 z "},"Ẅ":{"ha":1268,"x_min":91,"x_max":1177,"o":"m 268 1389 l 268 308 q 302 202 268 246 q 403 159 335 159 q 508 202 470 159 q 546 308 546 246 l 546 1389 l 722 1389 l 722 308 q 760 202 722 246 q 865 159 798 159 q 966 202 933 159 q 1000 310 1000 246 l 1000 1389 l 1177 1389 l 1177 310 q 1136 141 1177 216 q 1025 23 1095 65 q 865 -20 954 -20 q 737 6 796 -20 q 635 77 679 32 q 403 -20 544 -20 q 243 23 313 -20 q 132 141 173 65 q 91 308 91 216 l 91 1389 l 268 1389 m 538 1466 q 473 1493 500 1466 q 446 1558 446 1520 q 473 1623 446 1595 q 538 1651 500 1651 q 601 1624 575 1651 q 627 1558 627 1597 q 601 1493 627 1520 q 538 1466 575 1466 m 867 1466 q 803 1493 829 1466 q 776 1558 776 1520 q 803 1623 776 1595 q 867 1651 829 1651 q 931 1624 905 1651 q 956 1558 956 1597 q 931 1493 956 1520 q 867 1466 905 1466 z "},"Ẁ":{"ha":1268,"x_min":91,"x_max":1177,"o":"m 268 1389 l 268 308 q 302 202 268 246 q 403 159 335 159 q 508 202 470 159 q 546 308 546 246 l 546 1389 l 722 1389 l 722 308 q 760 202 722 246 q 865 159 798 159 q 966 202 933 159 q 1000 310 1000 246 l 1000 1389 l 1177 1389 l 1177 310 q 1136 141 1177 216 q 1025 23 1095 65 q 865 -20 954 -20 q 737 6 796 -20 q 635 77 679 32 q 403 -20 544 -20 q 243 23 313 -20 q 132 141 173 65 q 91 308 91 216 l 91 1389 l 268 1389 m 532 1641 l 609 1750 l 873 1562 l 817 1480 l 532 1641 z "},"X":{"ha":1109,"x_min":89,"x_max":1020,"o":"m 89 0 q 135 344 89 198 q 251 589 181 490 q 421 784 321 688 q 214 1037 288 901 q 141 1389 141 1173 l 319 1389 q 377 1109 319 1214 q 550 905 435 1004 q 715 1116 661 1010 q 770 1389 770 1222 l 946 1389 q 877 1046 946 1183 q 685 788 808 909 q 857 600 786 698 q 974 353 929 502 q 1020 0 1020 204 l 843 0 q 806 299 843 175 q 706 505 768 423 q 554 667 645 587 q 402 497 462 579 q 304 293 341 415 q 266 0 266 171 l 89 0 z "},"Y":{"ha":1151,"x_min":91,"x_max":1063,"o":"m 379 -38 q 285 -25 333 -38 q 204 12 236 -12 l 240 196 q 375 141 302 141 q 516 216 448 141 q 659 413 597 306 q 258 710 409 520 q 129 954 167 831 q 91 1230 91 1077 q 99 1397 91 1317 l 278 1377 q 272 1244 272 1310 q 323 948 272 1071 q 742 562 433 696 q 887 1274 887 869 q 885 1383 887 1347 l 1062 1393 q 1063 1300 1063 1361 q 893 468 1063 833 q 724 191 825 331 q 534 2 623 52 q 379 -38 464 -38 z "},"Ý":{"ha":1151,"x_min":91,"x_max":1063,"o":"m 379 -38 q 285 -25 333 -38 q 204 12 236 -12 l 240 196 q 375 141 302 141 q 516 216 448 141 q 659 413 597 306 q 258 710 409 520 q 129 954 167 831 q 91 1230 91 1077 q 99 1397 91 1317 l 278 1377 q 272 1244 272 1310 q 323 948 272 1071 q 742 562 433 696 q 887 1274 887 869 q 885 1383 887 1347 l 1062 1393 q 1063 1300 1063 1361 q 893 468 1063 833 q 724 191 825 331 q 534 2 623 52 q 379 -38 464 -38 m 411 1558 l 675 1746 l 752 1637 l 466 1476 l 411 1558 z "},"Ŷ":{"ha":1151,"x_min":91,"x_max":1063,"o":"m 379 -38 q 285 -25 333 -38 q 204 12 236 -12 l 240 196 q 375 141 302 141 q 516 216 448 141 q 659 413 597 306 q 258 710 409 520 q 129 954 167 831 q 91 1230 91 1077 q 99 1397 91 1317 l 278 1377 q 272 1244 272 1310 q 323 948 272 1071 q 742 562 433 696 q 887 1274 887 869 q 885 1383 887 1347 l 1062 1393 q 1063 1300 1063 1361 q 893 468 1063 833 q 724 191 825 331 q 534 2 623 52 q 379 -38 464 -38 m 361 1579 l 581 1690 l 804 1579 l 804 1472 l 581 1544 l 361 1472 l 361 1579 z "},"Ÿ":{"ha":1151,"x_min":91,"x_max":1063,"o":"m 379 -38 q 285 -25 333 -38 q 204 12 236 -12 l 240 196 q 375 141 302 141 q 516 216 448 141 q 659 413 597 306 q 258 710 409 520 q 129 954 167 831 q 91 1230 91 1077 q 99 1397 91 1317 l 278 1377 q 272 1244 272 1310 q 323 948 272 1071 q 742 562 433 696 q 887 1274 887 869 q 885 1383 887 1347 l 1062 1393 q 1063 1300 1063 1361 q 893 468 1063 833 q 724 191 825 331 q 534 2 623 52 q 379 -38 464 -38 m 417 1462 q 352 1489 379 1462 q 325 1554 325 1516 q 352 1619 325 1591 q 417 1647 379 1647 q 480 1620 454 1647 q 506 1554 506 1593 q 480 1489 506 1516 q 417 1462 454 1462 m 746 1462 q 682 1489 708 1462 q 655 1554 655 1516 q 682 1619 655 1591 q 746 1647 708 1647 q 810 1620 784 1647 q 835 1554 835 1593 q 810 1489 835 1516 q 746 1462 784 1462 z "},"Ỵ":{"ha":1151,"x_min":91,"x_max":1063,"o":"m 379 -38 q 285 -25 333 -38 q 204 12 236 -12 l 240 196 q 375 141 302 141 q 516 216 448 141 q 659 413 597 306 q 258 710 409 520 q 129 954 167 831 q 91 1230 91 1077 q 99 1397 91 1317 l 278 1377 q 272 1244 272 1310 q 323 948 272 1071 q 742 562 433 696 q 887 1274 887 869 q 885 1383 887 1347 l 1062 1393 q 1063 1300 1063 1361 q 893 468 1063 833 q 724 191 825 331 q 534 2 623 52 q 379 -38 464 -38 m 599 -282 q 535 -255 562 -282 q 508 -190 508 -228 q 535 -126 508 -153 q 599 -99 562 -99 q 664 -126 637 -99 q 690 -190 690 -153 q 664 -255 690 -228 q 599 -282 637 -282 z "},"Ỳ":{"ha":1151,"x_min":91,"x_max":1063,"o":"m 379 -38 q 285 -25 333 -38 q 204 12 236 -12 l 240 196 q 375 141 302 141 q 516 216 448 141 q 659 413 597 306 q 258 710 409 520 q 129 954 167 831 q 91 1230 91 1077 q 99 1397 91 1317 l 278 1377 q 272 1244 272 1310 q 323 948 272 1071 q 742 562 433 696 q 887 1274 887 869 q 885 1383 887 1347 l 1062 1393 q 1063 1300 1063 1361 q 893 468 1063 833 q 724 191 825 331 q 534 2 623 52 q 379 -38 464 -38 m 411 1637 l 488 1746 l 752 1558 l 696 1476 l 411 1637 z "},"Ỷ":{"ha":1151,"x_min":91,"x_max":1063,"o":"m 379 -38 q 285 -25 333 -38 q 204 12 236 -12 l 240 196 q 375 141 302 141 q 516 216 448 141 q 659 413 597 306 q 258 710 409 520 q 129 954 167 831 q 91 1230 91 1077 q 99 1397 91 1317 l 278 1377 q 272 1244 272 1310 q 323 948 272 1071 q 742 562 433 696 q 887 1274 887 869 q 885 1383 887 1347 l 1062 1393 q 1063 1300 1063 1361 q 893 468 1063 833 q 724 191 825 331 q 534 2 623 52 q 379 -38 464 -38 m 526 1633 q 585 1627 562 1627 q 655 1675 655 1627 q 635 1711 655 1698 q 581 1724 615 1724 q 524 1716 554 1724 l 524 1817 q 607 1827 573 1827 q 727 1789 685 1827 q 770 1675 770 1750 q 727 1573 770 1611 q 629 1536 685 1536 l 629 1478 l 526 1478 l 526 1633 z "},"Ỹ":{"ha":1151,"x_min":91,"x_max":1063,"o":"m 379 -38 q 285 -25 333 -38 q 204 12 236 -12 l 240 196 q 375 141 302 141 q 516 216 448 141 q 659 413 597 306 q 258 710 409 520 q 129 954 167 831 q 91 1230 91 1077 q 99 1397 91 1317 l 278 1377 q 272 1244 272 1310 q 323 948 272 1071 q 742 562 433 696 q 887 1274 887 869 q 885 1383 887 1347 l 1062 1393 q 1063 1300 1063 1361 q 893 468 1063 833 q 724 191 825 331 q 534 2 623 52 q 379 -38 464 -38 m 819 1502 q 792 1518 815 1504 q 722 1532 768 1532 q 599 1506 667 1532 q 460 1476 520 1476 q 369 1494 395 1476 q 341 1514 343 1512 l 341 1637 q 376 1618 343 1635 q 474 1601 409 1601 q 593 1623 530 1601 q 728 1651 669 1651 q 799 1636 780 1651 q 819 1619 817 1621 l 819 1502 z "},"Z":{"ha":976,"x_min":87,"x_max":889,"o":"m 87 0 q 164 368 87 204 q 419 730 240 532 q 562 949 508 843 q 635 1210 615 1056 l 151 1210 l 151 1389 l 821 1389 q 784 1056 821 1198 q 690 815 746 913 q 556 621 635 718 q 363 369 417 452 q 284 177 310 286 l 889 177 l 889 0 l 87 0 z "},"Ź":{"ha":976,"x_min":87,"x_max":889,"o":"m 87 0 q 164 368 87 204 q 419 730 240 532 q 562 949 508 843 q 635 1210 615 1056 l 151 1210 l 151 1389 l 821 1389 q 784 1056 821 1198 q 690 815 746 913 q 556 621 635 718 q 363 369 417 452 q 284 177 310 286 l 889 177 l 889 0 l 87 0 m 335 1562 l 599 1750 l 677 1641 l 391 1480 l 335 1562 z "},"Ž":{"ha":976,"x_min":87,"x_max":889,"o":"m 87 0 q 164 368 87 204 q 419 730 240 532 q 562 949 508 843 q 635 1210 615 1056 l 151 1210 l 151 1389 l 821 1389 q 784 1056 821 1198 q 690 815 746 913 q 556 621 635 718 q 363 369 417 452 q 284 177 310 286 l 889 177 l 889 0 l 87 0 m 280 1692 l 504 1619 l 730 1692 l 730 1583 l 504 1470 l 280 1583 l 280 1692 z "},"Ż":{"ha":976,"x_min":87,"x_max":889,"o":"m 87 0 q 164 368 87 204 q 419 730 240 532 q 562 949 508 843 q 635 1210 615 1056 l 151 1210 l 151 1389 l 821 1389 q 784 1056 821 1198 q 690 815 746 913 q 556 621 635 718 q 363 369 417 452 q 284 177 310 286 l 889 177 l 889 0 l 87 0 m 506 1466 q 441 1493 468 1466 q 415 1558 415 1520 q 441 1622 415 1595 q 506 1649 468 1649 q 570 1622 544 1649 q 597 1558 597 1595 q 570 1493 597 1520 q 506 1466 544 1466 z "},"a":{"ha":778,"x_min":75,"x_max":700,"o":"m 75 871 q 163 1099 75 1012 q 389 1187 250 1187 q 615 1097 530 1187 q 700 871 700 1008 l 700 0 l 554 0 l 554 520 l 222 520 l 222 0 l 75 0 l 75 871 m 554 871 q 509 993 554 946 q 389 1040 464 1040 q 266 994 310 1040 q 222 871 222 948 l 222 669 l 554 669 l 554 871 z "},"á":{"ha":778,"x_min":75,"x_max":700,"o":"m 75 871 q 163 1099 75 1012 q 389 1187 250 1187 q 615 1097 530 1187 q 700 871 700 1008 l 700 0 l 554 0 l 554 520 l 222 520 l 222 0 l 75 0 l 75 871 m 554 871 q 509 993 554 946 q 389 1040 464 1040 q 266 994 310 1040 q 222 871 222 948 l 222 669 l 554 669 l 554 871 m 218 1355 l 482 1544 l 560 1435 l 274 1274 l 218 1355 z "},"ă":{"ha":778,"x_min":75,"x_max":700,"o":"m 75 871 q 163 1099 75 1012 q 389 1187 250 1187 q 615 1097 530 1187 q 700 871 700 1008 l 700 0 l 554 0 l 554 520 l 222 520 l 222 0 l 75 0 l 75 871 m 554 871 q 509 993 554 946 q 389 1040 464 1040 q 266 994 310 1040 q 222 871 222 948 l 222 669 l 554 669 l 554 871 m 391 1262 q 226 1316 300 1262 q 145 1454 153 1371 l 268 1454 q 312 1402 276 1423 q 387 1381 347 1381 q 462 1402 427 1381 q 508 1454 498 1423 l 631 1454 q 550 1316 621 1371 q 391 1262 478 1262 z "},"ắ":{"ha":778,"x_min":75,"x_max":700,"o":"m 75 871 q 163 1099 75 1012 q 389 1187 250 1187 q 615 1097 530 1187 q 700 871 700 1008 l 700 0 l 554 0 l 554 520 l 222 520 l 222 0 l 75 0 l 75 871 m 554 871 q 509 993 554 946 q 389 1040 464 1040 q 266 994 310 1040 q 222 871 222 948 l 222 669 l 554 669 l 554 871 z "},"ặ":{"ha":778,"x_min":75,"x_max":700,"o":"m 75 871 q 163 1099 75 1012 q 389 1187 250 1187 q 615 1097 530 1187 q 700 871 700 1008 l 700 0 l 554 0 l 554 520 l 222 520 l 222 0 l 75 0 l 75 871 m 554 871 q 509 993 554 946 q 389 1040 464 1040 q 266 994 310 1040 q 222 871 222 948 l 222 669 l 554 669 l 554 871 m 389 -270 q 324 -243 351 -270 q 298 -179 298 -216 q 324 -114 298 -141 q 389 -87 351 -87 q 453 -114 427 -87 q 480 -179 480 -141 q 453 -243 480 -216 q 389 -270 427 -270 m 391 1262 q 226 1316 300 1262 q 145 1454 153 1371 l 268 1454 q 312 1402 276 1423 q 387 1381 347 1381 q 462 1402 427 1381 q 508 1454 498 1423 l 631 1454 q 550 1316 621 1371 q 391 1262 478 1262 z "},"ằ":{"ha":778,"x_min":75,"x_max":700,"o":"m 75 871 q 163 1099 75 1012 q 389 1187 250 1187 q 615 1097 530 1187 q 700 871 700 1008 l 700 0 l 554 0 l 554 520 l 222 520 l 222 0 l 75 0 l 75 871 m 554 871 q 509 993 554 946 q 389 1040 464 1040 q 266 994 310 1040 q 222 871 222 948 l 222 669 l 554 669 l 554 871 z "},"ẳ":{"ha":778,"x_min":75,"x_max":700,"o":"m 75 871 q 163 1099 75 1012 q 389 1187 250 1187 q 615 1097 530 1187 q 700 871 700 1008 l 700 0 l 554 0 l 554 520 l 222 520 l 222 0 l 75 0 l 75 871 m 554 871 q 509 993 554 946 q 389 1040 464 1040 q 266 994 310 1040 q 222 871 222 948 l 222 669 l 554 669 l 554 871 z "},"ẵ":{"ha":778,"x_min":75,"x_max":700,"o":"m 75 871 q 163 1099 75 1012 q 389 1187 250 1187 q 615 1097 530 1187 q 700 871 700 1008 l 700 0 l 554 0 l 554 520 l 222 520 l 222 0 l 75 0 l 75 871 m 554 871 q 509 993 554 946 q 389 1040 464 1040 q 266 994 310 1040 q 222 871 222 948 l 222 669 l 554 669 l 554 871 z "},"ǎ":{"ha":778,"x_min":75,"x_max":700,"o":"m 75 871 q 163 1099 75 1012 q 389 1187 250 1187 q 615 1097 530 1187 q 700 871 700 1008 l 700 0 l 554 0 l 554 520 l 222 520 l 222 0 l 75 0 l 75 871 m 554 871 q 509 993 554 946 q 389 1040 464 1040 q 266 994 310 1040 q 222 871 222 948 l 222 669 l 554 669 l 554 871 m 163 1486 l 387 1413 l 613 1486 l 613 1377 l 387 1264 l 163 1377 l 163 1486 z "},"â":{"ha":778,"x_min":75,"x_max":700,"o":"m 75 871 q 163 1099 75 1012 q 389 1187 250 1187 q 615 1097 530 1187 q 700 871 700 1008 l 700 0 l 554 0 l 554 520 l 222 520 l 222 0 l 75 0 l 75 871 m 554 871 q 509 993 554 946 q 389 1040 464 1040 q 266 994 310 1040 q 222 871 222 948 l 222 669 l 554 669 l 554 871 m 169 1357 l 389 1468 l 611 1357 l 611 1250 l 389 1321 l 169 1250 l 169 1357 z "},"ấ":{"ha":778,"x_min":75,"x_max":812,"o":"m 75 871 q 163 1099 75 1012 q 389 1187 250 1187 q 615 1097 530 1187 q 700 871 700 1008 l 700 0 l 554 0 l 554 520 l 222 520 l 222 0 l 75 0 l 75 871 m 554 871 q 509 993 554 946 q 389 1040 464 1040 q 266 994 310 1040 q 222 871 222 948 l 222 669 l 554 669 l 554 871 z "},"ậ":{"ha":778,"x_min":75,"x_max":700,"o":"m 75 871 q 163 1099 75 1012 q 389 1187 250 1187 q 615 1097 530 1187 q 700 871 700 1008 l 700 0 l 554 0 l 554 520 l 222 520 l 222 0 l 75 0 l 75 871 m 554 871 q 509 993 554 946 q 389 1040 464 1040 q 266 994 310 1040 q 222 871 222 948 l 222 669 l 554 669 l 554 871 m 389 -270 q 324 -243 351 -270 q 298 -179 298 -216 q 324 -114 298 -141 q 389 -87 351 -87 q 453 -114 427 -87 q 480 -179 480 -141 q 453 -243 480 -216 q 389 -270 427 -270 m 169 1357 l 389 1468 l 611 1357 l 611 1250 l 389 1321 l 169 1250 l 169 1357 z "},"ầ":{"ha":778,"x_min":75,"x_max":716,"o":"m 75 871 q 163 1099 75 1012 q 389 1187 250 1187 q 615 1097 530 1187 q 700 871 700 1008 l 700 0 l 554 0 l 554 520 l 222 520 l 222 0 l 75 0 l 75 871 m 554 871 q 509 993 554 946 q 389 1040 464 1040 q 266 994 310 1040 q 222 871 222 948 l 222 669 l 554 669 l 554 871 z "},"ẩ":{"ha":778,"x_min":75,"x_max":762,"o":"m 75 871 q 163 1099 75 1012 q 389 1187 250 1187 q 615 1097 530 1187 q 700 871 700 1008 l 700 0 l 554 0 l 554 520 l 222 520 l 222 0 l 75 0 l 75 871 m 554 871 q 509 993 554 946 q 389 1040 464 1040 q 266 994 310 1040 q 222 871 222 948 l 222 669 l 554 669 l 554 871 z "},"ẫ":{"ha":778,"x_min":75,"x_max":700,"o":"m 75 871 q 163 1099 75 1012 q 389 1187 250 1187 q 615 1097 530 1187 q 700 871 700 1008 l 700 0 l 554 0 l 554 520 l 222 520 l 222 0 l 75 0 l 75 871 m 554 871 q 509 993 554 946 q 389 1040 464 1040 q 266 994 310 1040 q 222 871 222 948 l 222 669 l 554 669 l 554 871 z "},"ä":{"ha":778,"x_min":75,"x_max":700,"o":"m 75 871 q 163 1099 75 1012 q 389 1187 250 1187 q 615 1097 530 1187 q 700 871 700 1008 l 700 0 l 554 0 l 554 520 l 222 520 l 222 0 l 75 0 l 75 871 m 554 871 q 509 993 554 946 q 389 1040 464 1040 q 266 994 310 1040 q 222 871 222 948 l 222 669 l 554 669 l 554 871 m 224 1260 q 160 1287 187 1260 q 133 1351 133 1313 q 160 1417 133 1389 q 224 1444 187 1444 q 288 1418 262 1444 q 313 1351 313 1391 q 288 1287 313 1313 q 224 1260 262 1260 m 554 1260 q 489 1287 516 1260 q 462 1351 462 1313 q 489 1417 462 1389 q 554 1444 516 1444 q 617 1418 591 1444 q 643 1351 643 1391 q 617 1287 643 1313 q 554 1260 591 1260 z "},"ạ":{"ha":778,"x_min":75,"x_max":700,"o":"m 75 871 q 163 1099 75 1012 q 389 1187 250 1187 q 615 1097 530 1187 q 700 871 700 1008 l 700 0 l 554 0 l 554 520 l 222 520 l 222 0 l 75 0 l 75 871 m 554 871 q 509 993 554 946 q 389 1040 464 1040 q 266 994 310 1040 q 222 871 222 948 l 222 669 l 554 669 l 554 871 m 389 -270 q 324 -243 351 -270 q 298 -179 298 -216 q 324 -114 298 -141 q 389 -87 351 -87 q 453 -114 427 -87 q 480 -179 480 -141 q 453 -243 480 -216 q 389 -270 427 -270 z "},"à":{"ha":778,"x_min":75,"x_max":700,"o":"m 75 871 q 163 1099 75 1012 q 389 1187 250 1187 q 615 1097 530 1187 q 700 871 700 1008 l 700 0 l 554 0 l 554 520 l 222 520 l 222 0 l 75 0 l 75 871 m 554 871 q 509 993 554 946 q 389 1040 464 1040 q 266 994 310 1040 q 222 871 222 948 l 222 669 l 554 669 l 554 871 m 218 1435 l 296 1544 l 560 1355 l 504 1274 l 218 1435 z "},"ả":{"ha":778,"x_min":75,"x_max":700,"o":"m 75 871 q 163 1099 75 1012 q 389 1187 250 1187 q 615 1097 530 1187 q 700 871 700 1008 l 700 0 l 554 0 l 554 520 l 222 520 l 222 0 l 75 0 l 75 871 m 554 871 q 509 993 554 946 q 389 1040 464 1040 q 266 994 310 1040 q 222 871 222 948 l 222 669 l 554 669 l 554 871 m 333 1431 q 393 1425 369 1425 q 462 1472 462 1425 q 442 1509 462 1496 q 389 1522 423 1522 q 331 1514 361 1522 l 331 1615 q 415 1625 381 1625 q 535 1586 492 1625 q 577 1472 577 1548 q 535 1371 577 1409 q 437 1333 492 1333 l 437 1276 l 333 1276 l 333 1431 z "},"ā":{"ha":778,"x_min":75,"x_max":700,"o":"m 75 871 q 163 1099 75 1012 q 389 1187 250 1187 q 615 1097 530 1187 q 700 871 700 1008 l 700 0 l 554 0 l 554 520 l 222 520 l 222 0 l 75 0 l 75 871 m 554 871 q 509 993 554 946 q 389 1040 464 1040 q 266 994 310 1040 q 222 871 222 948 l 222 669 l 554 669 l 554 871 m 151 1415 l 627 1415 l 627 1294 l 151 1294 l 151 1415 z "},"ą":{"ha":778,"x_min":75,"x_max":724,"o":"m 629 -87 q 687 -137 629 -137 q 724 -133 696 -137 l 724 -230 q 663 -238 681 -238 q 562 -204 599 -238 q 524 -113 524 -171 q 575 0 524 -40 l 554 0 l 554 520 l 222 520 l 222 0 l 75 0 l 75 871 q 163 1099 75 1012 q 389 1187 250 1187 q 615 1097 530 1187 q 700 871 700 1008 l 700 0 q 645 -44 661 -24 q 629 -87 629 -63 m 554 871 q 509 993 554 946 q 389 1040 464 1040 q 266 994 310 1040 q 222 871 222 948 l 222 669 l 554 669 l 554 871 z "},"å":{"ha":778,"x_min":75,"x_max":700,"o":"m 548 1149 q 661 1037 621 1109 q 700 871 700 964 l 700 0 l 554 0 l 554 520 l 222 520 l 222 0 l 75 0 l 75 871 q 116 1037 75 964 q 228 1149 157 1109 q 161 1312 161 1212 q 226 1473 161 1409 q 387 1538 292 1538 q 551 1473 484 1538 q 617 1312 617 1409 q 548 1149 617 1212 m 389 1423 q 311 1390 343 1423 q 278 1312 278 1357 q 312 1234 278 1268 q 389 1200 345 1200 q 469 1233 437 1200 q 502 1312 502 1266 q 469 1390 502 1357 q 389 1423 437 1423 m 554 871 q 509 993 554 946 q 389 1040 464 1040 q 266 994 310 1040 q 222 871 222 948 l 222 669 l 554 669 l 554 871 z "},"ã":{"ha":778,"x_min":75,"x_max":700,"o":"m 75 871 q 163 1099 75 1012 q 389 1187 250 1187 q 615 1097 530 1187 q 700 871 700 1008 l 700 0 l 554 0 l 554 520 l 222 520 l 222 0 l 75 0 l 75 871 m 554 871 q 509 993 554 946 q 389 1040 464 1040 q 266 994 310 1040 q 222 871 222 948 l 222 669 l 554 669 l 554 871 m 627 1300 q 599 1315 623 1302 q 530 1329 575 1329 q 407 1304 474 1329 q 268 1274 327 1274 q 177 1292 202 1274 q 149 1312 151 1310 l 149 1435 q 184 1416 151 1433 q 282 1399 216 1399 q 401 1421 337 1399 q 536 1448 476 1448 q 606 1434 587 1448 q 627 1417 625 1419 l 627 1300 z "},"æ":{"ha":1236,"x_min":75,"x_max":1157,"o":"m 1157 149 l 1157 0 l 554 0 l 554 520 l 222 520 l 222 0 l 75 0 l 75 871 q 163 1099 75 1012 q 389 1187 250 1187 q 619 1093 532 1187 q 689 1154 647 1131 q 788 1177 732 1177 l 1093 1177 l 1093 1028 l 819 1028 q 728 931 728 1028 l 728 669 l 998 669 l 998 520 l 728 520 l 728 149 l 1157 149 m 554 871 q 509 993 554 946 q 389 1040 464 1040 q 266 994 310 1040 q 222 871 222 948 l 222 669 l 554 669 l 554 871 z "},"b":{"ha":770,"x_min":75,"x_max":712,"o":"m 349 1157 q 441 1140 395 1157 q 526 1093 488 1123 q 631 859 631 1010 q 560 659 631 746 q 671 508 629 603 q 702 302 712 413 q 646 138 696 206 q 518 35 595 69 q 355 0 440 0 l 75 0 l 75 1157 l 349 1157 m 222 643 q 409 713 333 655 q 484 859 484 772 q 434 981 484 952 q 349 1010 383 1010 l 222 1010 l 222 643 m 355 147 q 496 195 435 147 q 558 331 558 244 q 520 478 558 407 q 440 560 486 538 q 222 494 337 502 l 222 147 l 355 147 z "},"c":{"ha":861,"x_min":65,"x_max":798,"o":"m 496 -24 q 218 131 331 2 q 65 603 65 302 q 133 903 65 778 q 292 1094 200 1028 q 460 1175 383 1161 q 544 1183 516 1183 q 682 1162 615 1183 q 796 1103 748 1141 l 702 988 q 634 1022 677 1010 q 544 1034 591 1034 q 484 1030 504 1034 q 370 969 435 1020 q 259 825 306 919 q 212 603 212 732 q 268 323 212 433 q 404 166 323 214 q 565 117 484 117 q 648 129 609 117 q 702 155 687 141 l 798 44 q 573 -30 714 -30 q 496 -24 536 -30 z "},"ć":{"ha":861,"x_min":65,"x_max":798,"o":"m 496 -24 q 218 131 331 2 q 65 603 65 302 q 133 903 65 778 q 292 1094 200 1028 q 460 1175 383 1161 q 544 1183 516 1183 q 682 1162 615 1183 q 796 1103 748 1141 l 702 988 q 634 1022 677 1010 q 544 1034 591 1034 q 484 1030 504 1034 q 370 969 435 1020 q 259 825 306 919 q 212 603 212 732 q 268 323 212 433 q 404 166 323 214 q 565 117 484 117 q 648 129 609 117 q 702 155 687 141 l 798 44 q 573 -30 714 -30 q 496 -24 536 -30 m 347 1349 l 611 1538 l 688 1429 l 403 1268 l 347 1349 z "},"č":{"ha":861,"x_min":65,"x_max":798,"o":"m 496 -24 q 218 131 331 2 q 65 603 65 302 q 133 903 65 778 q 292 1094 200 1028 q 460 1175 383 1161 q 544 1183 516 1183 q 682 1162 615 1183 q 796 1103 748 1141 l 702 988 q 634 1022 677 1010 q 544 1034 591 1034 q 484 1030 504 1034 q 370 969 435 1020 q 259 825 306 919 q 212 603 212 732 q 268 323 212 433 q 404 166 323 214 q 565 117 484 117 q 648 129 609 117 q 702 155 687 141 l 798 44 q 573 -30 714 -30 q 496 -24 536 -30 m 292 1480 l 516 1407 l 742 1480 l 742 1371 l 516 1258 l 292 1371 l 292 1480 z "},"ç":{"ha":861,"x_min":65,"x_max":798,"o":"m 530 -69 q 594 -129 573 -93 q 615 -204 615 -165 q 593 -284 615 -246 q 537 -334 573 -315 q 456 -353 500 -353 q 375 -337 413 -353 l 375 -226 q 429 -234 401 -234 q 475 -221 460 -234 q 490 -187 490 -208 q 459 -129 490 -155 q 369 -95 429 -103 l 448 -14 q 218 131 315 22 q 65 603 65 302 q 133 903 65 778 q 292 1094 200 1028 q 460 1175 383 1161 q 544 1183 516 1183 q 682 1162 615 1183 q 796 1103 748 1141 l 702 988 q 634 1022 677 1010 q 544 1034 591 1034 q 484 1030 504 1034 q 370 969 435 1020 q 259 825 306 919 q 212 603 212 732 q 268 323 212 433 q 404 166 323 214 q 565 117 484 117 q 648 129 609 117 q 702 155 687 141 l 798 44 q 569 -30 714 -30 l 530 -69 z "},"ċ":{"ha":861,"x_min":65,"x_max":798,"o":"m 496 -24 q 218 131 331 2 q 65 603 65 302 q 133 903 65 778 q 292 1094 200 1028 q 460 1175 383 1161 q 544 1183 516 1183 q 682 1162 615 1183 q 796 1103 748 1141 l 702 988 q 634 1022 677 1010 q 544 1034 591 1034 q 484 1030 504 1034 q 370 969 435 1020 q 259 825 306 919 q 212 603 212 732 q 268 323 212 433 q 404 166 323 214 q 565 117 484 117 q 648 129 609 117 q 702 155 687 141 l 798 44 q 573 -30 714 -30 q 496 -24 536 -30 m 518 1254 q 453 1281 480 1254 q 427 1345 427 1308 q 453 1410 427 1383 q 518 1437 480 1437 q 582 1410 556 1437 q 609 1345 609 1383 q 582 1281 609 1308 q 518 1254 556 1254 z "},"d":{"ha":815,"x_min":75,"x_max":748,"o":"m 242 1157 q 507 1085 393 1157 q 685 885 621 1014 q 748 585 748 756 q 684 282 748 415 q 503 74 619 149 q 238 0 387 0 l 75 0 l 75 1157 l 242 1157 m 238 147 q 428 201 345 147 q 556 356 510 256 q 601 585 601 456 q 504 896 601 782 q 242 1010 407 1010 l 222 1010 l 222 147 l 238 147 z "},"ð":{"ha":815,"x_min":2,"x_max":748,"o":"m 242 1157 q 507 1085 393 1157 q 685 885 621 1014 q 748 585 748 756 q 684 282 748 415 q 503 74 619 149 q 238 0 387 0 l 75 0 l 75 569 l 2 569 l 2 694 l 75 694 l 75 1157 l 242 1157 m 238 147 q 428 201 345 147 q 556 356 510 256 q 601 585 601 456 q 504 896 601 782 q 242 1010 407 1010 l 222 1010 l 222 694 l 427 694 l 427 569 l 222 569 l 222 147 l 238 147 z "},"ď":{"ha":913,"x_min":75,"x_max":929,"o":"m 242 1157 q 507 1085 393 1157 q 685 885 621 1014 q 748 585 748 756 q 684 282 748 415 q 503 74 619 149 q 238 0 387 0 l 75 0 l 75 1157 l 242 1157 m 238 147 q 428 201 345 147 q 556 356 510 256 q 601 585 601 456 q 504 896 601 782 q 242 1010 407 1010 l 222 1010 l 222 147 l 238 147 m 835 897 q 825 998 835 944 q 773 1026 794 1000 q 752 1089 752 1052 q 777 1149 752 1125 q 835 1173 802 1173 q 902 1142 875 1173 q 929 1067 929 1111 q 900 962 929 1014 q 835 897 871 911 z "},"đ":{"ha":815,"x_min":2,"x_max":748,"o":"m 242 1157 q 507 1085 393 1157 q 685 885 621 1014 q 748 585 748 756 q 684 282 748 415 q 503 74 619 149 q 238 0 387 0 l 75 0 l 75 569 l 2 569 l 2 694 l 75 694 l 75 1157 l 242 1157 m 238 147 q 428 201 345 147 q 556 356 510 256 q 601 585 601 456 q 504 896 601 782 q 242 1010 407 1010 l 222 1010 l 222 694 l 427 694 l 427 569 l 222 569 l 222 147 l 238 147 z "},"e":{"ha":704,"x_min":75,"x_max":625,"o":"m 583 1157 l 583 1010 l 222 1010 l 222 698 l 466 698 l 466 552 l 222 552 l 222 147 l 625 147 l 625 0 l 75 0 l 75 1157 l 583 1157 z "},"é":{"ha":704,"x_min":75,"x_max":625,"o":"m 583 1157 l 583 1010 l 222 1010 l 222 698 l 466 698 l 466 552 l 222 552 l 222 147 l 625 147 l 625 0 l 75 0 l 75 1157 l 583 1157 m 151 1329 l 415 1518 l 492 1409 l 206 1248 l 151 1329 z "},"ě":{"ha":704,"x_min":75,"x_max":625,"o":"m 583 1157 l 583 1010 l 222 1010 l 222 698 l 466 698 l 466 552 l 222 552 l 222 147 l 625 147 l 625 0 l 75 0 l 75 1157 l 583 1157 m 95 1460 l 319 1387 l 546 1460 l 546 1351 l 319 1238 l 95 1351 l 95 1460 z "},"ê":{"ha":704,"x_min":75,"x_max":625,"o":"m 583 1157 l 583 1010 l 222 1010 l 222 698 l 466 698 l 466 552 l 222 552 l 222 147 l 625 147 l 625 0 l 75 0 l 75 1157 l 583 1157 m 101 1351 l 321 1462 l 544 1351 l 544 1244 l 321 1315 l 101 1244 l 101 1351 z "},"ế":{"ha":704,"x_min":75,"x_max":744,"o":"m 583 1157 l 583 1010 l 222 1010 l 222 698 l 466 698 l 466 552 l 222 552 l 222 147 l 625 147 l 625 0 l 75 0 l 75 1157 l 583 1157 z "},"ệ":{"ha":704,"x_min":75,"x_max":625,"o":"m 583 1157 l 583 1010 l 222 1010 l 222 698 l 466 698 l 466 552 l 222 552 l 222 147 l 625 147 l 625 0 l 75 0 l 75 1157 l 583 1157 m 345 -270 q 281 -243 308 -270 q 254 -179 254 -216 q 281 -114 254 -141 q 345 -87 308 -87 q 410 -114 383 -87 q 437 -179 437 -141 q 410 -243 437 -216 q 345 -270 383 -270 m 101 1351 l 321 1462 l 544 1351 l 544 1244 l 321 1315 l 101 1244 l 101 1351 z "},"ề":{"ha":704,"x_min":75,"x_max":649,"o":"m 583 1157 l 583 1010 l 222 1010 l 222 698 l 466 698 l 466 552 l 222 552 l 222 147 l 625 147 l 625 0 l 75 0 l 75 1157 l 583 1157 z "},"ể":{"ha":704,"x_min":75,"x_max":694,"o":"m 583 1157 l 583 1010 l 222 1010 l 222 698 l 466 698 l 466 552 l 222 552 l 222 147 l 625 147 l 625 0 l 75 0 l 75 1157 l 583 1157 z "},"ễ":{"ha":704,"x_min":75,"x_max":625,"o":"m 583 1157 l 583 1010 l 222 1010 l 222 698 l 466 698 l 466 552 l 222 552 l 222 147 l 625 147 l 625 0 l 75 0 l 75 1157 l 583 1157 z "},"ë":{"ha":704,"x_min":65,"x_max":625,"o":"m 583 1157 l 583 1010 l 222 1010 l 222 698 l 466 698 l 466 552 l 222 552 l 222 147 l 625 147 l 625 0 l 75 0 l 75 1157 l 583 1157 m 157 1234 q 92 1261 119 1234 q 65 1325 65 1288 q 92 1391 65 1363 q 157 1419 119 1419 q 220 1392 194 1419 q 246 1325 246 1365 q 220 1261 246 1288 q 157 1234 194 1234 m 486 1234 q 422 1261 448 1234 q 395 1325 395 1288 q 422 1391 395 1363 q 486 1419 448 1419 q 550 1392 524 1419 q 575 1325 575 1365 q 550 1261 575 1288 q 486 1234 524 1234 z "},"ė":{"ha":704,"x_min":75,"x_max":625,"o":"m 583 1157 l 583 1010 l 222 1010 l 222 698 l 466 698 l 466 552 l 222 552 l 222 147 l 625 147 l 625 0 l 75 0 l 75 1157 l 583 1157 m 321 1234 q 257 1261 284 1234 q 230 1325 230 1288 q 257 1390 230 1363 q 321 1417 284 1417 q 386 1390 359 1417 q 413 1325 413 1363 q 386 1261 413 1288 q 321 1234 359 1234 z "},"ẹ":{"ha":704,"x_min":75,"x_max":625,"o":"m 583 1157 l 583 1010 l 222 1010 l 222 698 l 466 698 l 466 552 l 222 552 l 222 147 l 625 147 l 625 0 l 75 0 l 75 1157 l 583 1157 m 345 -270 q 281 -243 308 -270 q 254 -179 254 -216 q 281 -114 254 -141 q 345 -87 308 -87 q 410 -114 383 -87 q 437 -179 437 -141 q 410 -243 437 -216 q 345 -270 383 -270 z "},"è":{"ha":704,"x_min":75,"x_max":625,"o":"m 583 1157 l 583 1010 l 222 1010 l 222 698 l 466 698 l 466 552 l 222 552 l 222 147 l 625 147 l 625 0 l 75 0 l 75 1157 l 583 1157 m 151 1409 l 228 1518 l 492 1329 l 437 1248 l 151 1409 z "},"ẻ":{"ha":704,"x_min":75,"x_max":625,"o":"m 583 1157 l 583 1010 l 222 1010 l 222 698 l 466 698 l 466 552 l 222 552 l 222 147 l 625 147 l 625 0 l 75 0 l 75 1157 l 583 1157 m 266 1405 q 325 1399 302 1399 q 395 1446 395 1399 q 375 1483 395 1470 q 321 1496 355 1496 q 264 1488 294 1496 l 264 1589 q 347 1599 313 1599 q 467 1561 425 1599 q 510 1446 510 1522 q 467 1345 510 1383 q 369 1308 425 1308 l 369 1250 l 266 1250 l 266 1405 z "},"ē":{"ha":704,"x_min":75,"x_max":625,"o":"m 583 1157 l 583 1010 l 222 1010 l 222 698 l 466 698 l 466 552 l 222 552 l 222 147 l 625 147 l 625 0 l 75 0 l 75 1157 l 583 1157 m 83 1389 l 560 1389 l 560 1268 l 83 1268 l 83 1389 z "},"ę":{"ha":704,"x_min":75,"x_max":625,"o":"m 419 0 q 362 -44 379 -24 q 345 -87 345 -63 q 405 -143 345 -143 q 444 -139 417 -143 l 444 -240 q 377 -248 413 -248 q 271 -212 310 -248 q 232 -113 232 -177 q 288 0 232 -44 l 75 0 l 75 1157 l 583 1157 l 583 1010 l 222 1010 l 222 698 l 466 698 l 466 552 l 222 552 l 222 147 l 625 147 l 625 0 l 419 0 z "},"ẽ":{"ha":704,"x_min":75,"x_max":625,"o":"m 583 1157 l 583 1010 l 222 1010 l 222 698 l 466 698 l 466 552 l 222 552 l 222 147 l 625 147 l 625 0 l 75 0 l 75 1157 l 583 1157 m 560 1274 q 532 1290 556 1276 q 462 1304 508 1304 q 339 1278 407 1304 q 200 1248 260 1248 q 109 1266 135 1248 q 81 1286 83 1284 l 81 1409 q 116 1390 83 1407 q 214 1373 149 1373 q 333 1395 270 1373 q 468 1423 409 1423 q 539 1408 520 1423 q 560 1391 558 1393 l 560 1274 z "},"f":{"ha":665,"x_min":75,"x_max":589,"o":"m 589 1157 l 589 1010 l 222 1010 l 222 704 l 470 704 l 470 558 l 222 558 l 222 0 l 75 0 l 75 1157 l 589 1157 z "},"g":{"ha":927,"x_min":65,"x_max":845,"o":"m 478 -16 q 187 156 308 12 q 65 605 65 300 q 135 902 65 778 q 300 1091 204 1026 q 472 1171 395 1157 q 560 1179 528 1179 q 716 1155 641 1179 q 841 1081 792 1131 l 738 976 q 662 1017 710 1004 q 558 1030 613 1030 q 498 1026 534 1030 q 315 905 397 1010 q 240 765 268 843 q 212 605 212 687 q 280 284 212 405 q 383 172 325 202 q 506 127 440 141 q 560 123 526 123 q 698 161 631 123 l 698 534 l 845 534 l 845 69 q 721 3 804 28 q 552 -22 639 -22 q 478 -16 514 -22 z "},"ğ":{"ha":927,"x_min":65,"x_max":845,"o":"m 478 -16 q 187 156 308 12 q 65 605 65 300 q 135 902 65 778 q 300 1091 204 1026 q 472 1171 395 1157 q 560 1179 528 1179 q 716 1155 641 1179 q 841 1081 792 1131 l 738 976 q 662 1017 710 1004 q 558 1030 613 1030 q 498 1026 534 1030 q 315 905 397 1010 q 240 765 268 843 q 212 605 212 687 q 280 284 212 405 q 383 172 325 202 q 506 127 440 141 q 560 123 526 123 q 698 161 631 123 l 698 534 l 845 534 l 845 69 q 721 3 804 28 q 552 -22 639 -22 q 478 -16 514 -22 m 512 1260 q 347 1314 421 1260 q 266 1452 274 1369 l 389 1452 q 433 1400 397 1421 q 508 1379 468 1379 q 583 1400 548 1379 q 629 1452 619 1421 l 752 1452 q 671 1314 742 1369 q 512 1260 599 1260 z "},"ģ":{"ha":927,"x_min":65,"x_max":845,"o":"m 478 -16 q 187 156 308 12 q 65 605 65 300 q 135 902 65 778 q 300 1091 204 1026 q 472 1171 395 1157 q 560 1179 528 1179 q 716 1155 641 1179 q 841 1081 792 1131 l 738 976 q 662 1017 710 1004 q 558 1030 613 1030 q 498 1026 534 1030 q 315 905 397 1010 q 240 765 268 843 q 212 605 212 687 q 280 284 212 405 q 383 172 325 202 q 506 127 440 141 q 560 123 526 123 q 698 161 631 123 l 698 534 l 845 534 l 845 69 q 721 3 804 28 q 552 -22 639 -22 q 478 -16 514 -22 m 516 1552 q 526 1452 516 1502 q 578 1423 558 1448 q 599 1359 599 1397 q 574 1301 599 1325 q 516 1276 550 1276 q 449 1308 476 1276 q 423 1381 423 1339 q 451 1486 423 1435 q 516 1552 480 1538 z "},"ġ":{"ha":927,"x_min":65,"x_max":845,"o":"m 478 -16 q 187 156 308 12 q 65 605 65 300 q 135 902 65 778 q 300 1091 204 1026 q 472 1171 395 1157 q 560 1179 528 1179 q 716 1155 641 1179 q 841 1081 792 1131 l 738 976 q 662 1017 710 1004 q 558 1030 613 1030 q 498 1026 534 1030 q 315 905 397 1010 q 240 765 268 843 q 212 605 212 687 q 280 284 212 405 q 383 172 325 202 q 506 127 440 141 q 560 123 526 123 q 698 161 631 123 l 698 534 l 845 534 l 845 69 q 721 3 804 28 q 552 -22 639 -22 q 478 -16 514 -22 m 510 1258 q 445 1285 472 1258 q 419 1349 419 1312 q 445 1414 419 1387 q 510 1440 472 1440 q 574 1414 548 1440 q 601 1349 601 1387 q 574 1285 601 1312 q 510 1258 548 1258 z "},"h":{"ha":786,"x_min":75,"x_max":708,"o":"m 222 1157 l 222 728 l 562 728 l 562 1157 l 708 1157 l 708 0 l 562 0 l 562 581 l 222 581 l 222 0 l 75 0 l 75 1157 l 222 1157 z "},"ħ":{"ha":786,"x_min":10,"x_max":778,"o":"m 778 1016 l 778 877 l 708 877 l 708 0 l 562 0 l 562 581 l 222 581 l 222 0 l 75 0 l 75 877 l 10 877 l 10 1016 l 75 1016 l 75 1157 l 222 1157 l 222 1016 l 562 1016 l 562 1157 l 708 1157 l 708 1016 l 778 1016 m 562 728 l 562 877 l 222 877 l 222 728 l 562 728 z "},"i":{"ha":341,"x_min":95,"x_max":244,"o":"m 244 1157 l 244 0 l 95 0 l 95 1157 l 244 1157 z "},"ı":{"ha":341,"x_min":95,"x_max":244,"o":"m 244 1157 l 244 0 l 95 0 l 95 1157 l 244 1157 z "},"í":{"ha":341,"x_min":0,"x_max":341,"o":"m 244 1157 l 244 0 l 95 0 l 95 1157 l 244 1157 m 0 1329 l 264 1518 l 341 1409 l 56 1248 l 0 1329 z "},"ǐ":{"ha":341,"x_min":-10,"x_max":351,"o":"m 169 1387 l 351 1460 l 351 1351 l 169 1238 l -10 1351 l -10 1460 l 169 1387 m 244 0 l 95 0 l 95 1157 l 244 1157 l 244 0 z "},"î":{"ha":341,"x_min":-6,"x_max":347,"o":"m -6 1351 l 171 1462 l 347 1351 l 347 1244 l 171 1315 l -6 1244 l -6 1351 m 244 0 l 95 0 l 95 1157 l 244 1157 l 244 0 z "},"ï":{"ha":341,"x_min":-85,"x_max":425,"o":"m 244 1157 l 244 0 l 95 0 l 95 1157 l 244 1157 m 6 1234 q -59 1261 -32 1234 q -85 1325 -85 1288 q -59 1391 -85 1363 q 6 1419 -32 1419 q 69 1392 44 1419 q 95 1325 95 1365 q 69 1261 95 1288 q 6 1234 44 1234 m 335 1234 q 271 1261 298 1234 q 244 1325 244 1288 q 271 1391 244 1363 q 335 1419 298 1419 q 399 1392 373 1419 q 425 1325 425 1365 q 399 1261 425 1288 q 335 1234 373 1234 z "},"ị":{"ha":341,"x_min":79,"x_max":262,"o":"m 244 1157 l 244 0 l 95 0 l 95 1157 l 244 1157 m 171 -270 q 106 -243 133 -270 q 79 -179 79 -216 q 106 -114 79 -141 q 171 -87 133 -87 q 235 -114 208 -87 q 262 -179 262 -141 q 235 -243 262 -216 q 171 -270 208 -270 z "},"ì":{"ha":341,"x_min":0,"x_max":341,"o":"m 244 1157 l 244 0 l 95 0 l 95 1157 l 244 1157 m 0 1409 l 77 1518 l 341 1329 l 286 1248 l 0 1409 z "},"ỉ":{"ha":341,"x_min":95,"x_max":359,"o":"m 244 1157 l 244 0 l 95 0 l 95 1157 l 244 1157 m 115 1405 q 175 1399 151 1399 q 244 1446 244 1399 q 224 1483 244 1470 q 171 1496 204 1496 q 113 1488 143 1496 l 113 1589 q 196 1599 163 1599 q 316 1561 274 1599 q 359 1446 359 1522 q 316 1345 359 1383 q 218 1308 274 1308 l 218 1250 l 115 1250 l 115 1405 z "},"ī":{"ha":341,"x_min":-8,"x_max":349,"o":"m -8 1389 l 349 1389 l 349 1268 l -8 1268 l -8 1389 m 244 0 l 95 0 l 95 1157 l 244 1157 l 244 0 z "},"į":{"ha":341,"x_min":71,"x_max":278,"o":"m 171 1234 q 106 1261 133 1234 q 79 1325 79 1288 q 106 1390 79 1363 q 171 1417 133 1417 q 235 1390 208 1417 q 262 1325 262 1363 q 235 1261 262 1288 q 171 1234 208 1234 m 181 -89 q 240 -141 181 -141 q 278 -137 250 -141 l 278 -236 q 216 -244 234 -244 q 110 -209 149 -244 q 71 -117 71 -175 q 125 0 71 -40 l 95 0 l 95 1157 l 244 1157 l 244 2 l 254 0 q 196 -43 212 -22 q 181 -89 181 -63 z "},"ĩ":{"ha":341,"x_min":-10,"x_max":349,"o":"m 349 1274 q 328 1290 345 1276 q 276 1304 312 1304 q 185 1278 236 1304 q 79 1248 125 1248 q 12 1266 32 1248 q -10 1286 -8 1284 l -10 1409 q 89 1373 36 1373 q 179 1395 133 1373 q 280 1423 234 1423 q 334 1408 321 1423 q 349 1391 347 1393 l 349 1274 m 244 0 l 95 0 l 95 1157 l 244 1157 l 244 0 z "},"j":{"ha":639,"x_min":54,"x_max":562,"o":"m 292 -34 q 156 0 218 -34 q 54 103 93 34 l 175 185 q 292 113 224 113 q 381 155 347 113 q 415 260 415 196 l 411 1157 l 558 1157 l 562 262 q 526 111 562 179 q 429 5 490 44 q 292 -34 367 -34 z "},"k":{"ha":815,"x_min":75,"x_max":724,"o":"m 222 649 q 400 765 325 685 q 512 948 474 845 q 550 1157 550 1052 l 698 1157 q 643 879 698 1016 q 484 641 587 742 q 658 354 593 528 q 724 0 722 181 l 577 0 q 517 310 575 159 q 365 552 458 460 q 222 494 296 514 l 222 0 l 75 0 l 75 1157 l 222 1157 l 222 649 z "},"ķ":{"ha":815,"x_min":75,"x_max":724,"o":"m 222 649 q 400 765 325 685 q 512 948 474 845 q 550 1157 550 1052 l 698 1157 q 643 879 698 1016 q 484 641 587 742 q 658 354 593 528 q 724 0 722 181 l 577 0 q 517 310 575 159 q 365 552 458 460 q 222 494 296 514 l 222 0 l 75 0 l 75 1157 l 222 1157 l 222 649 m 389 -377 q 381 -276 389 -339 q 326 -247 347 -272 q 306 -185 306 -222 q 330 -124 306 -149 q 391 -99 355 -99 q 456 -130 429 -99 q 484 -202 484 -161 q 455 -310 484 -256 q 389 -377 427 -363 z "},"l":{"ha":669,"x_min":75,"x_max":577,"o":"m 222 1157 l 222 149 l 577 149 l 577 2 l 75 2 l 75 1157 l 222 1157 z "},"ĺ":{"ha":669,"x_min":75,"x_max":577,"o":"m 222 1157 l 222 149 l 577 149 l 577 2 l 75 2 l 75 1157 l 222 1157 m 175 1329 l 438 1518 l 516 1409 l 230 1248 l 175 1329 z "},"ľ":{"ha":669,"x_min":75,"x_max":577,"o":"m 222 1157 l 222 149 l 577 149 l 577 2 l 75 2 l 75 1157 l 222 1157 m 464 907 q 454 1008 464 954 q 402 1036 423 1010 q 381 1099 381 1062 q 406 1159 381 1135 q 464 1183 431 1183 q 531 1152 504 1183 q 558 1077 558 1121 q 529 972 558 1024 q 464 907 500 921 z "},"ļ":{"ha":669,"x_min":75,"x_max":577,"o":"m 222 149 l 577 149 l 577 2 l 75 2 l 75 1157 l 222 1157 l 222 149 m 325 -377 q 317 -276 325 -339 q 263 -247 284 -272 q 242 -185 242 -222 q 267 -124 242 -149 q 327 -99 292 -99 q 393 -130 365 -99 q 421 -202 421 -161 q 392 -310 421 -256 q 325 -377 363 -363 z "},"ł":{"ha":683,"x_min":-8,"x_max":581,"o":"m 228 149 l 581 149 l 581 2 l 81 2 l 81 534 l -8 490 l -8 647 l 81 688 l 81 1157 l 228 1157 l 228 760 l 321 804 l 321 649 l 228 603 l 228 149 z "},"m":{"ha":1056,"x_min":75,"x_max":980,"o":"m 75 901 q 149 1095 75 1018 q 335 1173 222 1173 q 530 1093 454 1173 q 720 1173 603 1173 q 907 1094 833 1173 q 980 899 980 1016 l 980 0 l 833 0 l 833 899 q 805 987 833 950 q 720 1024 776 1024 q 633 988 665 1024 q 601 901 601 952 l 601 0 l 454 0 l 454 901 q 423 988 454 952 q 335 1024 391 1024 q 251 988 280 1024 q 222 901 222 952 l 222 0 l 75 0 l 75 901 z "},"n":{"ha":780,"x_min":75,"x_max":704,"o":"m 204 1113 q 293 1162 238 1143 q 395 1181 347 1181 q 620 1088 536 1181 q 704 857 704 996 l 704 0 l 558 0 l 558 835 q 515 978 558 923 q 391 1034 472 1034 q 272 986 321 1034 q 222 875 222 938 l 222 0 l 75 0 l 75 1157 l 188 1157 l 204 1113 z "},"ń":{"ha":780,"x_min":75,"x_max":704,"o":"m 204 1113 q 293 1162 238 1143 q 395 1181 347 1181 q 620 1088 536 1181 q 704 857 704 996 l 704 0 l 558 0 l 558 835 q 515 978 558 923 q 391 1034 472 1034 q 272 986 321 1034 q 222 875 222 938 l 222 0 l 75 0 l 75 1157 l 188 1157 l 204 1113 m 224 1351 l 488 1540 l 565 1431 l 280 1270 l 224 1351 z "},"ň":{"ha":780,"x_min":75,"x_max":704,"o":"m 204 1113 q 293 1162 238 1143 q 395 1181 347 1181 q 620 1088 536 1181 q 704 857 704 996 l 704 0 l 558 0 l 558 835 q 515 978 558 923 q 391 1034 472 1034 q 272 986 321 1034 q 222 875 222 938 l 222 0 l 75 0 l 75 1157 l 188 1157 l 204 1113 m 169 1482 l 393 1409 l 619 1482 l 619 1373 l 393 1260 l 169 1373 l 169 1482 z "},"ņ":{"ha":780,"x_min":75,"x_max":704,"o":"m 204 1113 q 293 1162 238 1143 q 395 1181 347 1181 q 620 1088 536 1181 q 704 857 704 996 l 704 0 l 558 0 l 558 835 q 515 978 558 923 q 391 1034 472 1034 q 272 986 321 1034 q 222 875 222 938 l 222 0 l 75 0 l 75 1157 l 188 1157 l 204 1113 m 383 -429 q 375 -313 383 -361 q 313 -282 339 -310 q 288 -214 288 -254 q 317 -141 288 -171 q 391 -111 347 -111 q 462 -148 433 -113 q 492 -230 492 -183 q 459 -352 492 -292 q 383 -429 427 -413 z "},"ñ":{"ha":780,"x_min":75,"x_max":704,"o":"m 204 1113 q 293 1162 238 1143 q 395 1181 347 1181 q 620 1088 536 1181 q 704 857 704 996 l 704 0 l 558 0 l 558 835 q 515 978 558 923 q 391 1034 472 1034 q 272 986 321 1034 q 222 875 222 938 l 222 0 l 75 0 l 75 1157 l 188 1157 l 204 1113 m 633 1296 q 605 1312 629 1298 q 536 1325 581 1325 q 413 1300 480 1325 q 274 1270 333 1270 q 183 1288 208 1270 q 155 1308 157 1306 l 155 1431 q 189 1412 157 1429 q 288 1395 222 1395 q 407 1417 343 1395 q 542 1444 482 1444 q 612 1430 593 1444 q 633 1413 631 1415 l 633 1296 z "},"o":{"ha":782,"x_min":79,"x_max":702,"o":"m 391 -24 q 166 63 252 -24 q 79 292 79 151 l 79 861 q 166 1088 79 1002 q 391 1175 252 1175 q 617 1088 532 1175 q 702 861 702 1002 l 702 292 q 617 63 702 151 q 391 -24 532 -24 m 391 123 q 513 168 470 123 q 556 292 556 212 l 556 861 q 512 984 556 938 q 391 1030 468 1030 q 270 984 313 1030 q 226 861 226 938 l 226 292 q 271 168 226 212 q 391 123 315 123 z "},"ó":{"ha":782,"x_min":79,"x_max":702,"o":"m 391 -24 q 166 63 252 -24 q 79 292 79 151 l 79 861 q 166 1088 79 1002 q 391 1175 252 1175 q 617 1088 532 1175 q 702 861 702 1002 l 702 292 q 617 63 702 151 q 391 -24 532 -24 m 391 123 q 513 168 470 123 q 556 292 556 212 l 556 861 q 512 984 556 938 q 391 1030 468 1030 q 270 984 313 1030 q 226 861 226 938 l 226 292 q 271 168 226 212 q 391 123 315 123 m 220 1341 l 484 1530 l 562 1421 l 276 1260 l 220 1341 z "},"ǒ":{"ha":782,"x_min":79,"x_max":702,"o":"m 391 -24 q 166 63 252 -24 q 79 292 79 151 l 79 861 q 166 1088 79 1002 q 391 1175 252 1175 q 617 1088 532 1175 q 702 861 702 1002 l 702 292 q 617 63 702 151 q 391 -24 532 -24 m 391 123 q 513 168 470 123 q 556 292 556 212 l 556 861 q 512 984 556 938 q 391 1030 468 1030 q 270 984 313 1030 q 226 861 226 938 l 226 292 q 271 168 226 212 q 391 123 315 123 m 165 1472 l 389 1399 l 615 1472 l 615 1363 l 389 1250 l 165 1363 l 165 1472 z "},"ô":{"ha":782,"x_min":79,"x_max":702,"o":"m 391 -24 q 166 63 252 -24 q 79 292 79 151 l 79 861 q 166 1088 79 1002 q 391 1175 252 1175 q 617 1088 532 1175 q 702 861 702 1002 l 702 292 q 617 63 702 151 q 391 -24 532 -24 m 391 123 q 513 168 470 123 q 556 292 556 212 l 556 861 q 512 984 556 938 q 391 1030 468 1030 q 270 984 313 1030 q 226 861 226 938 l 226 292 q 271 168 226 212 q 391 123 315 123 m 171 1335 l 391 1446 l 613 1335 l 613 1228 l 391 1300 l 171 1228 l 171 1335 z "},"ố":{"ha":782,"x_min":79,"x_max":813,"o":"m 391 -24 q 166 63 252 -24 q 79 292 79 151 l 79 861 q 166 1088 79 1002 q 391 1175 252 1175 q 617 1088 532 1175 q 702 861 702 1002 l 702 292 q 617 63 702 151 q 391 -24 532 -24 m 391 123 q 513 168 470 123 q 556 292 556 212 l 556 861 q 512 984 556 938 q 391 1030 468 1030 q 270 984 313 1030 q 226 861 226 938 l 226 292 q 271 168 226 212 q 391 123 315 123 z "},"ộ":{"ha":782,"x_min":79,"x_max":702,"o":"m 391 -24 q 166 63 252 -24 q 79 292 79 151 l 79 861 q 166 1088 79 1002 q 391 1175 252 1175 q 617 1088 532 1175 q 702 861 702 1002 l 702 292 q 617 63 702 151 q 391 -24 532 -24 m 391 123 q 513 168 470 123 q 556 292 556 212 l 556 861 q 512 984 556 938 q 391 1030 468 1030 q 270 984 313 1030 q 226 861 226 938 l 226 292 q 271 168 226 212 q 391 123 315 123 m 391 -286 q 326 -259 353 -286 q 300 -194 300 -232 q 326 -130 300 -157 q 391 -103 353 -103 q 455 -130 429 -103 q 482 -194 482 -157 q 455 -259 482 -232 q 391 -286 429 -286 m 171 1335 l 391 1446 l 613 1335 l 613 1228 l 391 1300 l 171 1228 l 171 1335 z "},"ồ":{"ha":782,"x_min":79,"x_max":718,"o":"m 391 -24 q 166 63 252 -24 q 79 292 79 151 l 79 861 q 166 1088 79 1002 q 391 1175 252 1175 q 617 1088 532 1175 q 702 861 702 1002 l 702 292 q 617 63 702 151 q 391 -24 532 -24 m 391 123 q 513 168 470 123 q 556 292 556 212 l 556 861 q 512 984 556 938 q 391 1030 468 1030 q 270 984 313 1030 q 226 861 226 938 l 226 292 q 271 168 226 212 q 391 123 315 123 z "},"ổ":{"ha":782,"x_min":79,"x_max":764,"o":"m 391 -24 q 166 63 252 -24 q 79 292 79 151 l 79 861 q 166 1088 79 1002 q 391 1175 252 1175 q 617 1088 532 1175 q 702 861 702 1002 l 702 292 q 617 63 702 151 q 391 -24 532 -24 m 391 123 q 513 168 470 123 q 556 292 556 212 l 556 861 q 512 984 556 938 q 391 1030 468 1030 q 270 984 313 1030 q 226 861 226 938 l 226 292 q 271 168 226 212 q 391 123 315 123 z "},"ỗ":{"ha":782,"x_min":79,"x_max":702,"o":"m 391 -24 q 166 63 252 -24 q 79 292 79 151 l 79 861 q 166 1088 79 1002 q 391 1175 252 1175 q 617 1088 532 1175 q 702 861 702 1002 l 702 292 q 617 63 702 151 q 391 -24 532 -24 m 391 123 q 513 168 470 123 q 556 292 556 212 l 556 861 q 512 984 556 938 q 391 1030 468 1030 q 270 984 313 1030 q 226 861 226 938 l 226 292 q 271 168 226 212 q 391 123 315 123 z "},"ö":{"ha":782,"x_min":79,"x_max":702,"o":"m 391 -24 q 166 63 252 -24 q 79 292 79 151 l 79 861 q 166 1088 79 1002 q 391 1175 252 1175 q 617 1088 532 1175 q 702 861 702 1002 l 702 292 q 617 63 702 151 q 391 -24 532 -24 m 391 123 q 513 168 470 123 q 556 292 556 212 l 556 861 q 512 984 556 938 q 391 1030 468 1030 q 270 984 313 1030 q 226 861 226 938 l 226 292 q 271 168 226 212 q 391 123 315 123 m 226 1246 q 162 1273 188 1246 q 135 1337 135 1300 q 162 1403 135 1375 q 226 1431 188 1431 q 290 1404 264 1431 q 315 1337 315 1377 q 290 1273 315 1300 q 226 1246 264 1246 m 556 1246 q 491 1273 518 1246 q 464 1337 464 1300 q 491 1403 464 1375 q 556 1431 518 1431 q 619 1404 593 1431 q 645 1337 645 1377 q 619 1273 645 1300 q 556 1246 593 1246 z "},"ọ":{"ha":782,"x_min":79,"x_max":702,"o":"m 391 -24 q 166 63 252 -24 q 79 292 79 151 l 79 861 q 166 1088 79 1002 q 391 1175 252 1175 q 617 1088 532 1175 q 702 861 702 1002 l 702 292 q 617 63 702 151 q 391 -24 532 -24 m 391 123 q 513 168 470 123 q 556 292 556 212 l 556 861 q 512 984 556 938 q 391 1030 468 1030 q 270 984 313 1030 q 226 861 226 938 l 226 292 q 271 168 226 212 q 391 123 315 123 m 391 -286 q 326 -259 353 -286 q 300 -194 300 -232 q 326 -130 300 -157 q 391 -103 353 -103 q 455 -130 429 -103 q 482 -194 482 -157 q 455 -259 482 -232 q 391 -286 429 -286 z "},"ò":{"ha":782,"x_min":79,"x_max":702,"o":"m 391 -24 q 166 63 252 -24 q 79 292 79 151 l 79 861 q 166 1088 79 1002 q 391 1175 252 1175 q 617 1088 532 1175 q 702 861 702 1002 l 702 292 q 617 63 702 151 q 391 -24 532 -24 m 391 123 q 513 168 470 123 q 556 292 556 212 l 556 861 q 512 984 556 938 q 391 1030 468 1030 q 270 984 313 1030 q 226 861 226 938 l 226 292 q 271 168 226 212 q 391 123 315 123 m 220 1421 l 298 1530 l 562 1341 l 506 1260 l 220 1421 z "},"ỏ":{"ha":782,"x_min":79,"x_max":702,"o":"m 391 -24 q 166 63 252 -24 q 79 292 79 151 l 79 861 q 166 1088 79 1002 q 391 1175 252 1175 q 617 1088 532 1175 q 702 861 702 1002 l 702 292 q 617 63 702 151 q 391 -24 532 -24 m 391 123 q 513 168 470 123 q 556 292 556 212 l 556 861 q 512 984 556 938 q 391 1030 468 1030 q 270 984 313 1030 q 226 861 226 938 l 226 292 q 271 168 226 212 q 391 123 315 123 m 335 1417 q 395 1411 371 1411 q 464 1458 464 1411 q 444 1495 464 1482 q 391 1508 425 1508 q 333 1500 363 1508 l 333 1601 q 417 1611 383 1611 q 537 1572 494 1611 q 579 1458 579 1534 q 537 1357 579 1395 q 438 1319 494 1319 l 438 1262 l 335 1262 l 335 1417 z "},"ơ":{"ha":782,"x_min":79,"x_max":738,"o":"m 734 1218 q 738 1192 738 1210 q 726 1150 738 1171 q 694 1113 714 1129 q 619 1085 665 1091 q 702 861 702 1002 l 702 292 q 617 63 702 151 q 391 -24 532 -24 q 166 63 252 -24 q 79 292 79 151 l 79 861 q 166 1088 79 1002 q 391 1175 252 1175 q 540 1143 472 1175 q 585 1171 569 1155 q 583 1188 583 1177 q 605 1243 583 1218 q 663 1268 627 1268 q 706 1255 687 1268 q 734 1218 726 1242 m 556 861 q 512 984 556 938 q 391 1030 468 1030 q 270 984 313 1030 q 226 861 226 938 l 226 292 q 271 168 226 212 q 391 123 315 123 q 513 168 470 123 q 556 292 556 212 l 556 861 z "},"ớ":{"ha":782,"x_min":79,"x_max":738,"o":"m 734 1218 q 738 1192 738 1210 q 726 1150 738 1171 q 694 1113 714 1129 q 619 1085 665 1091 q 702 861 702 1002 l 702 292 q 617 63 702 151 q 391 -24 532 -24 q 166 63 252 -24 q 79 292 79 151 l 79 861 q 166 1088 79 1002 q 391 1175 252 1175 q 540 1143 472 1175 q 585 1171 569 1155 q 583 1188 583 1177 q 605 1243 583 1218 q 663 1268 627 1268 q 706 1255 687 1268 q 734 1218 726 1242 m 556 861 q 512 984 556 938 q 391 1030 468 1030 q 270 984 313 1030 q 226 861 226 938 l 226 292 q 271 168 226 212 q 391 123 315 123 q 513 168 470 123 q 556 292 556 212 l 556 861 m 220 1341 l 484 1530 l 562 1421 l 276 1260 l 220 1341 z "},"ợ":{"ha":782,"x_min":79,"x_max":738,"o":"m 734 1218 q 738 1192 738 1210 q 726 1150 738 1171 q 694 1113 714 1129 q 619 1085 665 1091 q 702 861 702 1002 l 702 292 q 617 63 702 151 q 391 -24 532 -24 q 166 63 252 -24 q 79 292 79 151 l 79 861 q 166 1088 79 1002 q 391 1175 252 1175 q 540 1143 472 1175 q 585 1171 569 1155 q 583 1188 583 1177 q 605 1243 583 1218 q 663 1268 627 1268 q 706 1255 687 1268 q 734 1218 726 1242 m 556 861 q 512 984 556 938 q 391 1030 468 1030 q 270 984 313 1030 q 226 861 226 938 l 226 292 q 271 168 226 212 q 391 123 315 123 q 513 168 470 123 q 556 292 556 212 l 556 861 m 391 -286 q 326 -259 353 -286 q 300 -194 300 -232 q 326 -130 300 -157 q 391 -103 353 -103 q 455 -130 429 -103 q 482 -194 482 -157 q 455 -259 482 -232 q 391 -286 429 -286 z "},"ờ":{"ha":782,"x_min":79,"x_max":738,"o":"m 734 1218 q 738 1192 738 1210 q 726 1150 738 1171 q 694 1113 714 1129 q 619 1085 665 1091 q 702 861 702 1002 l 702 292 q 617 63 702 151 q 391 -24 532 -24 q 166 63 252 -24 q 79 292 79 151 l 79 861 q 166 1088 79 1002 q 391 1175 252 1175 q 540 1143 472 1175 q 585 1171 569 1155 q 583 1188 583 1177 q 605 1243 583 1218 q 663 1268 627 1268 q 706 1255 687 1268 q 734 1218 726 1242 m 556 861 q 512 984 556 938 q 391 1030 468 1030 q 270 984 313 1030 q 226 861 226 938 l 226 292 q 271 168 226 212 q 391 123 315 123 q 513 168 470 123 q 556 292 556 212 l 556 861 m 220 1421 l 298 1530 l 562 1341 l 506 1260 l 220 1421 z "},"ở":{"ha":782,"x_min":79,"x_max":738,"o":"m 734 1218 q 738 1192 738 1210 q 726 1150 738 1171 q 694 1113 714 1129 q 619 1085 665 1091 q 702 861 702 1002 l 702 292 q 617 63 702 151 q 391 -24 532 -24 q 166 63 252 -24 q 79 292 79 151 l 79 861 q 166 1088 79 1002 q 391 1175 252 1175 q 540 1143 472 1175 q 585 1171 569 1155 q 583 1188 583 1177 q 605 1243 583 1218 q 663 1268 627 1268 q 706 1255 687 1268 q 734 1218 726 1242 m 556 861 q 512 984 556 938 q 391 1030 468 1030 q 270 984 313 1030 q 226 861 226 938 l 226 292 q 271 168 226 212 q 391 123 315 123 q 513 168 470 123 q 556 292 556 212 l 556 861 m 335 1417 q 395 1411 371 1411 q 464 1458 464 1411 q 444 1495 464 1482 q 391 1508 425 1508 q 333 1500 363 1508 l 333 1601 q 417 1611 383 1611 q 537 1572 494 1611 q 579 1458 579 1534 q 537 1357 579 1395 q 438 1319 494 1319 l 438 1262 l 335 1262 l 335 1417 z "},"ỡ":{"ha":782,"x_min":79,"x_max":738,"o":"m 407 1290 q 294 1260 345 1260 q 223 1278 244 1260 q 200 1298 202 1296 l 200 1421 q 246 1395 222 1405 q 306 1385 270 1385 q 403 1407 351 1385 q 510 1435 460 1435 q 566 1420 552 1435 q 583 1403 581 1405 l 583 1286 q 563 1302 581 1288 q 506 1315 544 1315 q 407 1290 460 1315 m 734 1218 q 738 1192 738 1210 q 726 1150 738 1171 q 694 1113 714 1129 q 619 1085 665 1091 q 702 861 702 1002 l 702 292 q 617 63 702 151 q 391 -24 532 -24 q 166 63 252 -24 q 79 292 79 151 l 79 861 q 166 1088 79 1002 q 391 1175 252 1175 q 540 1143 472 1175 q 585 1171 569 1155 q 583 1188 583 1177 q 605 1243 583 1218 q 663 1268 627 1268 q 706 1255 687 1268 q 734 1218 726 1242 m 556 861 q 512 984 556 938 q 391 1030 468 1030 q 270 984 313 1030 q 226 861 226 938 l 226 292 q 271 168 226 212 q 391 123 315 123 q 513 168 470 123 q 556 292 556 212 l 556 861 z "},"ő":{"ha":782,"x_min":79,"x_max":764,"o":"m 391 -24 q 166 63 252 -24 q 79 292 79 151 l 79 861 q 166 1088 79 1002 q 391 1175 252 1175 q 617 1088 532 1175 q 702 861 702 1002 l 702 292 q 617 63 702 151 q 391 -24 532 -24 m 391 123 q 513 168 470 123 q 556 292 556 212 l 556 861 q 512 984 556 938 q 391 1030 468 1030 q 270 984 313 1030 q 226 861 226 938 l 226 292 q 271 168 226 212 q 391 123 315 123 m 669 1560 l 764 1464 l 510 1258 l 440 1327 l 669 1560 m 349 1558 l 444 1462 l 190 1256 l 121 1325 l 349 1558 z "},"ō":{"ha":782,"x_min":79,"x_max":702,"o":"m 391 -24 q 166 63 252 -24 q 79 292 79 151 l 79 861 q 166 1088 79 1002 q 391 1175 252 1175 q 617 1088 532 1175 q 702 861 702 1002 l 702 292 q 617 63 702 151 q 391 -24 532 -24 m 391 123 q 513 168 470 123 q 556 292 556 212 l 556 861 q 512 984 556 938 q 391 1030 468 1030 q 270 984 313 1030 q 226 861 226 938 l 226 292 q 271 168 226 212 q 391 123 315 123 m 153 1401 l 629 1401 l 629 1280 l 153 1280 l 153 1401 z "},"ø":{"ha":782,"x_min":79,"x_max":702,"o":"m 649 1052 q 702 861 702 970 l 702 292 q 617 63 702 151 q 391 -24 532 -24 q 240 10 308 -24 l 220 -42 l 95 10 l 133 105 q 79 292 79 185 l 79 861 q 166 1088 79 1002 q 391 1175 252 1175 q 540 1143 476 1175 l 560 1196 l 685 1145 l 649 1052 m 226 345 l 484 1006 q 391 1030 448 1030 q 270 984 313 1030 q 226 861 226 938 l 226 345 m 391 123 q 513 168 470 123 q 556 292 556 212 l 556 815 l 294 149 q 391 123 333 123 z "},"õ":{"ha":782,"x_min":79,"x_max":702,"o":"m 391 -24 q 166 63 252 -24 q 79 292 79 151 l 79 861 q 166 1088 79 1002 q 391 1175 252 1175 q 617 1088 532 1175 q 702 861 702 1002 l 702 292 q 617 63 702 151 q 391 -24 532 -24 m 391 123 q 513 168 470 123 q 556 292 556 212 l 556 861 q 512 984 556 938 q 391 1030 468 1030 q 270 984 313 1030 q 226 861 226 938 l 226 292 q 271 168 226 212 q 391 123 315 123 m 629 1286 q 601 1302 625 1288 q 532 1315 577 1315 q 409 1290 476 1315 q 270 1260 329 1260 q 179 1278 204 1260 q 151 1298 153 1296 l 151 1421 q 186 1402 153 1419 q 284 1385 218 1385 q 403 1407 339 1385 q 538 1435 478 1435 q 608 1420 589 1435 q 629 1403 627 1405 l 629 1286 z "},"œ":{"ha":1224,"x_min":79,"x_max":1145,"o":"m 1145 149 l 1145 0 l 629 0 l 629 60 q 387 -44 546 -44 q 164 45 248 -42 q 79 266 79 131 l 79 891 q 164 1112 79 1024 q 387 1200 248 1200 q 629 1097 546 1200 l 629 1157 l 1081 1157 l 1081 1008 l 744 1008 l 744 716 l 984 716 l 984 567 l 744 567 l 744 149 l 1145 149 m 569 885 q 520 1009 569 964 q 387 1054 470 1054 q 268 1010 308 1054 q 228 885 228 966 l 228 274 q 269 149 228 194 q 387 103 310 103 q 522 149 474 103 q 569 274 569 194 l 569 885 z "},"p":{"ha":710,"x_min":75,"x_max":637,"o":"m 331 1155 q 524 1099 442 1155 q 637 865 637 1022 q 536 621 637 722 q 389 533 474 563 q 222 498 304 502 l 222 0 l 75 0 l 75 1155 l 331 1155 m 222 645 q 337 671 278 649 q 433 728 397 692 q 490 865 490 782 q 444 977 490 946 q 331 1008 399 1008 l 222 1008 l 222 645 z "},"q":{"ha":853,"x_min":79,"x_max":812,"o":"m 812 133 l 812 -4 l 726 -4 l 629 77 q 527 3 587 30 q 391 -24 466 -24 q 166 63 252 -24 q 79 292 79 151 l 79 861 q 166 1088 79 1002 q 391 1175 252 1175 q 617 1088 532 1175 q 702 861 702 1002 l 702 292 q 692 202 702 248 l 812 133 m 391 123 q 516 173 472 123 l 431 244 l 488 323 l 556 284 l 556 292 l 556 861 q 512 984 556 938 q 391 1030 468 1030 q 270 984 313 1030 q 226 861 226 938 l 226 292 q 271 168 226 212 q 391 123 315 123 z "},"r":{"ha":770,"x_min":75,"x_max":698,"o":"m 321 1157 q 470 1124 399 1157 q 586 1024 542 1091 q 631 859 631 956 q 595 705 631 776 q 496 585 560 635 q 647 325 595 476 q 698 0 698 175 l 550 0 q 501 291 550 159 q 361 512 452 423 q 222 486 290 488 l 222 0 l 75 0 l 75 1157 l 321 1157 m 222 633 q 327 656 272 633 q 419 714 383 679 q 484 859 484 784 q 431 979 484 948 q 321 1010 377 1010 l 222 1010 l 222 633 z "},"ŕ":{"ha":770,"x_min":75,"x_max":698,"o":"m 321 1157 q 470 1124 399 1157 q 586 1024 542 1091 q 631 859 631 956 q 595 705 631 776 q 496 585 560 635 q 647 325 595 476 q 698 0 698 175 l 550 0 q 501 291 550 159 q 361 512 452 423 q 222 486 290 488 l 222 0 l 75 0 l 75 1157 l 321 1157 m 222 633 q 327 656 272 633 q 419 714 383 679 q 484 859 484 784 q 431 979 484 948 q 321 1010 377 1010 l 222 1010 l 222 633 m 161 1329 l 425 1518 l 502 1409 l 216 1248 l 161 1329 z "},"ř":{"ha":770,"x_min":75,"x_max":698,"o":"m 321 1157 q 470 1124 399 1157 q 586 1024 542 1091 q 631 859 631 956 q 595 705 631 776 q 496 585 560 635 q 647 325 595 476 q 698 0 698 175 l 550 0 q 501 291 550 159 q 361 512 452 423 q 222 486 290 488 l 222 0 l 75 0 l 75 1157 l 321 1157 m 222 633 q 327 656 272 633 q 419 714 383 679 q 484 859 484 784 q 431 979 484 948 q 321 1010 377 1010 l 222 1010 l 222 633 m 105 1460 l 329 1387 l 556 1460 l 556 1351 l 329 1238 l 105 1351 l 105 1460 z "},"ŗ":{"ha":770,"x_min":75,"x_max":698,"o":"m 321 1157 q 470 1124 399 1157 q 586 1024 542 1091 q 631 859 631 956 q 595 705 631 776 q 496 585 560 635 q 647 325 595 476 q 698 0 698 175 l 550 0 q 501 291 550 159 q 361 512 452 423 q 222 486 290 488 l 222 0 l 75 0 l 75 1157 l 321 1157 m 222 633 q 327 656 272 633 q 419 714 383 679 q 484 859 484 784 q 431 979 484 948 q 321 1010 377 1010 l 222 1010 l 222 633 m 365 -377 q 357 -276 365 -339 q 303 -247 323 -272 q 282 -185 282 -222 q 307 -124 282 -149 q 367 -99 331 -99 q 433 -130 405 -99 q 460 -202 460 -161 q 432 -310 460 -256 q 365 -377 403 -363 z "},"s":{"ha":758,"x_min":65,"x_max":690,"o":"m 373 -32 q 278 -18 327 -32 q 140 72 192 8 q 65 212 87 137 l 202 274 q 319 121 234 151 q 383 109 353 109 q 497 158 450 109 q 544 270 544 206 q 444 454 544 355 q 292 597 391 508 q 237 648 264 625 q 190 690 210 671 q 118 795 143 738 q 93 909 93 851 q 119 1027 93 972 q 194 1121 145 1081 q 367 1183 272 1183 q 444 1171 405 1183 q 587 1079 530 1147 l 486 970 q 407 1030 454 1016 q 367 1036 385 1036 q 277 1000 313 1036 q 240 911 240 964 q 296 796 240 851 q 454 647 341 748 q 550 560 530 579 q 690 272 690 417 q 597 52 690 137 q 495 -10 558 12 q 373 -32 433 -32 z "},"ś":{"ha":758,"x_min":65,"x_max":690,"o":"m 373 -32 q 278 -18 327 -32 q 140 72 192 8 q 65 212 87 137 l 202 274 q 319 121 234 151 q 383 109 353 109 q 497 158 450 109 q 544 270 544 206 q 444 454 544 355 q 292 597 391 508 q 237 648 264 625 q 190 690 210 671 q 118 795 143 738 q 93 909 93 851 q 119 1027 93 972 q 194 1121 145 1081 q 367 1183 272 1183 q 444 1171 405 1183 q 587 1079 530 1147 l 486 970 q 407 1030 454 1016 q 367 1036 385 1036 q 277 1000 313 1036 q 240 911 240 964 q 296 796 240 851 q 454 647 341 748 q 550 560 530 579 q 690 272 690 417 q 597 52 690 137 q 495 -10 558 12 q 373 -32 433 -32 m 198 1347 l 462 1536 l 540 1427 l 254 1266 l 198 1347 z "},"š":{"ha":758,"x_min":65,"x_max":690,"o":"m 373 -32 q 278 -18 327 -32 q 140 72 192 8 q 65 212 87 137 l 202 274 q 319 121 234 151 q 383 109 353 109 q 497 158 450 109 q 544 270 544 206 q 444 454 544 355 q 292 597 391 508 q 237 648 264 625 q 190 690 210 671 q 118 795 143 738 q 93 909 93 851 q 119 1027 93 972 q 194 1121 145 1081 q 367 1183 272 1183 q 444 1171 405 1183 q 587 1079 530 1147 l 486 970 q 407 1030 454 1016 q 367 1036 385 1036 q 277 1000 313 1036 q 240 911 240 964 q 296 796 240 851 q 454 647 341 748 q 550 560 530 579 q 690 272 690 417 q 597 52 690 137 q 495 -10 558 12 q 373 -32 433 -32 m 143 1478 l 367 1405 l 593 1478 l 593 1369 l 367 1256 l 143 1369 l 143 1478 z "},"ş":{"ha":758,"x_min":65,"x_max":690,"o":"m 550 560 q 690 272 690 417 q 597 52 690 137 q 438 -26 540 -6 l 395 -71 q 453 -124 435 -93 q 472 -190 472 -155 q 452 -260 472 -226 q 403 -305 437 -288 q 329 -321 369 -321 q 260 -308 294 -321 l 260 -208 q 306 -214 288 -214 q 361 -175 361 -214 q 333 -124 361 -147 q 254 -93 306 -101 l 319 -28 q 278 -18 272 -16 q 140 72 192 8 q 65 212 87 137 l 202 274 q 319 121 234 151 q 383 109 353 109 q 497 158 450 109 q 544 270 544 206 q 444 454 544 355 q 292 597 391 508 q 237 648 264 625 q 190 690 210 671 q 118 795 143 738 q 93 909 93 851 q 119 1027 93 972 q 194 1121 145 1081 q 367 1183 272 1183 q 444 1171 405 1183 q 587 1079 530 1147 l 486 970 q 407 1030 454 1016 q 367 1036 385 1036 q 277 1000 313 1036 q 240 911 240 964 q 296 796 240 851 q 454 647 341 748 q 550 560 530 579 z "},"ș":{"ha":758,"x_min":65,"x_max":690,"o":"m 373 -32 q 278 -18 327 -32 q 140 72 192 8 q 65 212 87 137 l 202 274 q 319 121 234 151 q 383 109 353 109 q 497 158 450 109 q 544 270 544 206 q 444 454 544 355 q 292 597 391 508 q 237 648 264 625 q 190 690 210 671 q 118 795 143 738 q 93 909 93 851 q 119 1027 93 972 q 194 1121 145 1081 q 367 1183 272 1183 q 444 1171 405 1183 q 587 1079 530 1147 l 486 970 q 407 1030 454 1016 q 367 1036 385 1036 q 277 1000 313 1036 q 240 911 240 964 q 296 796 240 851 q 454 647 341 748 q 550 560 530 579 q 690 272 690 417 q 597 52 690 137 q 495 -10 558 12 q 373 -32 433 -32 m 363 -397 q 355 -296 363 -359 q 301 -267 321 -292 q 280 -204 280 -242 q 305 -144 280 -169 q 365 -119 329 -119 q 431 -150 403 -119 q 458 -222 458 -181 q 430 -329 458 -276 q 363 -397 401 -383 z "},"ß":{"ha":1508,"x_min":65,"x_max":1440,"o":"m 373 -32 q 278 -18 327 -32 q 140 72 192 8 q 65 212 87 137 l 202 274 q 319 121 234 151 q 383 109 353 109 q 497 158 450 109 q 544 270 544 206 q 444 454 544 355 q 292 597 391 508 q 237 648 264 625 q 190 690 210 671 q 118 795 143 738 q 93 909 93 851 q 119 1027 93 972 q 194 1121 145 1081 q 367 1183 272 1183 q 444 1171 405 1183 q 587 1079 530 1147 l 486 970 q 407 1030 454 1016 q 367 1036 385 1036 q 277 1000 313 1036 q 240 911 240 964 q 296 796 240 851 q 454 647 341 748 q 550 560 530 579 q 690 272 690 417 q 597 52 690 137 q 495 -10 558 12 q 373 -32 433 -32 m 1123 -32 q 1028 -18 1077 -32 q 890 72 942 8 q 815 212 837 137 l 952 274 q 1069 121 984 151 q 1133 109 1103 109 q 1247 158 1200 109 q 1294 270 1294 206 q 1194 454 1294 355 q 1042 597 1141 508 q 987 648 1014 625 q 940 690 960 671 q 868 795 893 738 q 843 909 843 851 q 869 1027 843 972 q 944 1121 895 1081 q 1117 1183 1022 1183 q 1194 1171 1155 1183 q 1337 1079 1280 1147 l 1236 970 q 1157 1030 1204 1016 q 1117 1036 1135 1036 q 1027 1000 1063 1036 q 990 911 990 964 q 1046 796 990 851 q 1204 647 1091 748 q 1300 560 1280 579 q 1440 272 1440 417 q 1347 52 1440 137 q 1245 -10 1308 12 q 1123 -32 1183 -32 z "},"t":{"ha":772,"x_min":75,"x_max":696,"o":"m 75 1008 l 75 1157 l 696 1157 l 696 1008 l 460 1008 l 460 0 l 312 0 l 312 1008 l 75 1008 z "},"ŧ":{"ha":772,"x_min":75,"x_max":696,"o":"m 696 1008 l 460 1008 l 460 671 l 667 671 l 667 540 l 460 540 l 460 0 l 312 0 l 312 540 l 103 540 l 103 671 l 312 671 l 312 1008 l 75 1008 l 75 1157 l 696 1157 l 696 1008 z "},"ť":{"ha":1052,"x_min":75,"x_max":1008,"o":"m 75 1008 l 75 1157 l 696 1157 l 696 1008 l 460 1008 l 460 0 l 312 0 l 312 1008 l 75 1008 m 915 889 q 905 990 915 937 q 852 1018 873 992 q 831 1081 831 1044 q 856 1141 831 1117 q 915 1165 881 1165 q 981 1134 954 1165 q 1008 1060 1008 1103 q 979 954 1008 1006 q 915 889 950 903 z "},"ţ":{"ha":772,"x_min":75,"x_max":696,"o":"m 460 1008 l 460 0 l 468 0 l 421 -52 q 476 -102 458 -71 q 494 -169 494 -133 q 474 -240 494 -208 q 427 -284 458 -268 q 357 -300 395 -300 q 286 -286 319 -300 l 286 -188 q 331 -194 313 -194 q 385 -155 385 -194 q 358 -104 385 -127 q 280 -73 331 -81 l 351 0 l 312 0 l 312 1008 l 75 1008 l 75 1157 l 696 1157 l 696 1008 l 460 1008 z "},"ț":{"ha":772,"x_min":75,"x_max":696,"o":"m 75 1008 l 75 1157 l 696 1157 l 696 1008 l 460 1008 l 460 0 l 312 0 l 312 1008 l 75 1008 m 381 -429 q 373 -313 381 -361 q 312 -282 337 -310 q 286 -214 286 -254 q 315 -141 286 -171 q 389 -111 345 -111 q 460 -148 431 -113 q 490 -230 490 -183 q 457 -352 490 -292 q 381 -429 425 -413 z "},"u":{"ha":780,"x_min":75,"x_max":704,"o":"m 377 -22 q 152 66 228 -22 q 75 312 75 155 l 75 1157 l 222 1157 l 222 292 q 265 165 222 208 q 385 121 308 121 q 506 181 460 121 q 556 321 552 240 l 556 1157 l 704 1157 l 704 0 l 589 0 l 563 44 q 377 -22 496 -22 z "},"ú":{"ha":780,"x_min":75,"x_max":704,"o":"m 377 -22 q 152 66 228 -22 q 75 312 75 155 l 75 1157 l 222 1157 l 222 292 q 265 165 222 208 q 385 121 308 121 q 506 181 460 121 q 556 321 552 240 l 556 1157 l 704 1157 l 704 0 l 589 0 l 563 44 q 377 -22 496 -22 m 220 1329 l 484 1518 l 562 1409 l 276 1248 l 220 1329 z "},"ǔ":{"ha":780,"x_min":75,"x_max":704,"o":"m 377 -22 q 152 66 228 -22 q 75 312 75 155 l 75 1157 l 222 1157 l 222 292 q 265 165 222 208 q 385 121 308 121 q 506 181 460 121 q 556 321 552 240 l 556 1157 l 704 1157 l 704 0 l 589 0 l 563 44 q 377 -22 496 -22 m 165 1460 l 389 1387 l 615 1460 l 615 1351 l 389 1238 l 165 1351 l 165 1460 z "},"û":{"ha":780,"x_min":75,"x_max":704,"o":"m 377 -22 q 152 66 228 -22 q 75 312 75 155 l 75 1157 l 222 1157 l 222 292 q 265 165 222 208 q 385 121 308 121 q 506 181 460 121 q 556 321 552 240 l 556 1157 l 704 1157 l 704 0 l 589 0 l 563 44 q 377 -22 496 -22 m 171 1351 l 391 1462 l 613 1351 l 613 1244 l 391 1315 l 171 1244 l 171 1351 z "},"ü":{"ha":780,"x_min":75,"x_max":704,"o":"m 377 -22 q 152 66 228 -22 q 75 312 75 155 l 75 1157 l 222 1157 l 222 292 q 265 165 222 208 q 385 121 308 121 q 506 181 460 121 q 556 321 552 240 l 556 1157 l 704 1157 l 704 0 l 589 0 l 563 44 q 377 -22 496 -22 m 226 1234 q 162 1261 188 1234 q 135 1325 135 1288 q 162 1391 135 1363 q 226 1419 188 1419 q 290 1392 264 1419 q 315 1325 315 1365 q 290 1261 315 1288 q 226 1234 264 1234 m 556 1234 q 491 1261 518 1234 q 464 1325 464 1288 q 491 1391 464 1363 q 556 1419 518 1419 q 619 1392 593 1419 q 645 1325 645 1365 q 619 1261 645 1288 q 556 1234 593 1234 z "},"ǘ":{"ha":780,"x_min":75,"x_max":704,"o":"m 377 -22 q 152 66 228 -22 q 75 312 75 155 l 75 1157 l 222 1157 l 222 292 q 265 165 222 208 q 385 121 308 121 q 506 181 460 121 q 556 321 552 240 l 556 1157 l 704 1157 l 704 0 l 589 0 l 563 44 q 377 -22 496 -22 z "},"ǚ":{"ha":780,"x_min":75,"x_max":704,"o":"m 377 -22 q 152 66 228 -22 q 75 312 75 155 l 75 1157 l 222 1157 l 222 292 q 265 165 222 208 q 385 121 308 121 q 506 181 460 121 q 556 321 552 240 l 556 1157 l 704 1157 l 704 0 l 589 0 l 563 44 q 377 -22 496 -22 z "},"ǜ":{"ha":780,"x_min":75,"x_max":704,"o":"m 377 -22 q 152 66 228 -22 q 75 312 75 155 l 75 1157 l 222 1157 l 222 292 q 265 165 222 208 q 385 121 308 121 q 506 181 460 121 q 556 321 552 240 l 556 1157 l 704 1157 l 704 0 l 589 0 l 563 44 q 377 -22 496 -22 z "},"ǖ":{"ha":780,"x_min":75,"x_max":704,"o":"m 377 -22 q 152 66 228 -22 q 75 312 75 155 l 75 1157 l 222 1157 l 222 292 q 265 165 222 208 q 385 121 308 121 q 506 181 460 121 q 556 321 552 240 l 556 1157 l 704 1157 l 704 0 l 589 0 l 563 44 q 377 -22 496 -22 z "},"ụ":{"ha":780,"x_min":75,"x_max":704,"o":"m 377 -22 q 152 66 228 -22 q 75 312 75 155 l 75 1157 l 222 1157 l 222 292 q 265 165 222 208 q 385 121 308 121 q 506 181 460 121 q 556 321 552 240 l 556 1157 l 704 1157 l 704 0 l 589 0 l 563 44 q 377 -22 496 -22 m 389 -280 q 324 -253 351 -280 q 298 -188 298 -226 q 324 -124 298 -151 q 389 -97 351 -97 q 453 -124 427 -97 q 480 -188 480 -151 q 453 -253 480 -226 q 389 -280 427 -280 z "},"ù":{"ha":780,"x_min":75,"x_max":704,"o":"m 377 -22 q 152 66 228 -22 q 75 312 75 155 l 75 1157 l 222 1157 l 222 292 q 265 165 222 208 q 385 121 308 121 q 506 181 460 121 q 556 321 552 240 l 556 1157 l 704 1157 l 704 0 l 589 0 l 563 44 q 377 -22 496 -22 m 220 1409 l 298 1518 l 562 1329 l 506 1248 l 220 1409 z "},"ủ":{"ha":780,"x_min":75,"x_max":704,"o":"m 377 -22 q 152 66 228 -22 q 75 312 75 155 l 75 1157 l 222 1157 l 222 292 q 265 165 222 208 q 385 121 308 121 q 506 181 460 121 q 556 321 552 240 l 556 1157 l 704 1157 l 704 0 l 589 0 l 563 44 q 377 -22 496 -22 m 335 1405 q 395 1399 371 1399 q 464 1446 464 1399 q 444 1483 464 1470 q 391 1496 425 1496 q 333 1488 363 1496 l 333 1589 q 417 1599 383 1599 q 537 1561 494 1599 q 579 1446 579 1522 q 537 1345 579 1383 q 438 1308 494 1308 l 438 1250 l 335 1250 l 335 1405 z "},"ư":{"ha":780,"x_min":75,"x_max":839,"o":"m 835 1238 q 839 1212 839 1230 q 827 1170 839 1190 q 796 1133 815 1149 q 704 1105 764 1109 l 704 0 l 589 0 l 563 44 q 377 -22 496 -22 q 152 66 228 -22 q 75 312 75 155 l 75 1157 l 222 1157 l 222 292 q 265 165 222 208 q 385 121 308 121 q 506 181 460 121 q 556 321 552 240 l 556 1157 l 621 1157 q 660 1171 641 1161 q 687 1190 679 1181 q 685 1208 685 1196 q 706 1263 685 1238 q 764 1288 728 1288 q 808 1275 788 1288 q 835 1238 827 1262 z "},"ứ":{"ha":780,"x_min":75,"x_max":839,"o":"m 835 1238 q 839 1212 839 1230 q 827 1170 839 1190 q 796 1133 815 1149 q 704 1105 764 1109 l 704 0 l 589 0 l 563 44 q 377 -22 496 -22 q 152 66 228 -22 q 75 312 75 155 l 75 1157 l 222 1157 l 222 292 q 265 165 222 208 q 385 121 308 121 q 506 181 460 121 q 556 321 552 240 l 556 1157 l 621 1157 q 660 1171 641 1161 q 687 1190 679 1181 q 685 1208 685 1196 q 706 1263 685 1238 q 764 1288 728 1288 q 808 1275 788 1288 q 835 1238 827 1262 m 220 1329 l 484 1518 l 562 1409 l 276 1248 l 220 1329 z "},"ự":{"ha":780,"x_min":75,"x_max":839,"o":"m 835 1238 q 839 1212 839 1230 q 827 1170 839 1190 q 796 1133 815 1149 q 704 1105 764 1109 l 704 0 l 589 0 l 563 44 q 377 -22 496 -22 q 152 66 228 -22 q 75 312 75 155 l 75 1157 l 222 1157 l 222 292 q 265 165 222 208 q 385 121 308 121 q 506 181 460 121 q 556 321 552 240 l 556 1157 l 621 1157 q 660 1171 641 1161 q 687 1190 679 1181 q 685 1208 685 1196 q 706 1263 685 1238 q 764 1288 728 1288 q 808 1275 788 1288 q 835 1238 827 1262 m 389 -280 q 324 -253 351 -280 q 298 -188 298 -226 q 324 -124 298 -151 q 389 -97 351 -97 q 453 -124 427 -97 q 480 -188 480 -151 q 453 -253 480 -226 q 389 -280 427 -280 z "},"ừ":{"ha":780,"x_min":75,"x_max":839,"o":"m 835 1238 q 839 1212 839 1230 q 827 1170 839 1190 q 796 1133 815 1149 q 704 1105 764 1109 l 704 0 l 589 0 l 563 44 q 377 -22 496 -22 q 152 66 228 -22 q 75 312 75 155 l 75 1157 l 222 1157 l 222 292 q 265 165 222 208 q 385 121 308 121 q 506 181 460 121 q 556 321 552 240 l 556 1157 l 621 1157 q 660 1171 641 1161 q 687 1190 679 1181 q 685 1208 685 1196 q 706 1263 685 1238 q 764 1288 728 1288 q 808 1275 788 1288 q 835 1238 827 1262 m 220 1409 l 298 1518 l 562 1329 l 506 1248 l 220 1409 z "},"ử":{"ha":780,"x_min":75,"x_max":839,"o":"m 835 1238 q 839 1212 839 1230 q 827 1170 839 1190 q 796 1133 815 1149 q 704 1105 764 1109 l 704 0 l 589 0 l 563 44 q 377 -22 496 -22 q 152 66 228 -22 q 75 312 75 155 l 75 1157 l 222 1157 l 222 292 q 265 165 222 208 q 385 121 308 121 q 506 181 460 121 q 556 321 552 240 l 556 1157 l 621 1157 q 660 1171 641 1161 q 687 1190 679 1181 q 685 1208 685 1196 q 706 1263 685 1238 q 764 1288 728 1288 q 808 1275 788 1288 q 835 1238 827 1262 m 335 1405 q 395 1399 371 1399 q 464 1446 464 1399 q 444 1483 464 1470 q 391 1496 425 1496 q 333 1488 363 1496 l 333 1589 q 417 1599 383 1599 q 537 1561 494 1599 q 579 1446 579 1522 q 537 1345 579 1383 q 438 1308 494 1308 l 438 1250 l 335 1250 l 335 1405 z "},"ữ":{"ha":780,"x_min":75,"x_max":839,"o":"m 835 1238 q 839 1212 839 1230 q 827 1170 839 1190 q 796 1133 815 1149 q 704 1105 764 1109 l 704 0 l 589 0 l 563 44 q 377 -22 496 -22 q 152 66 228 -22 q 75 312 75 155 l 75 1157 l 222 1157 l 222 292 q 265 165 222 208 q 385 121 308 121 q 506 181 460 121 q 556 321 552 240 l 556 1157 l 621 1157 q 660 1171 641 1161 q 687 1190 679 1181 q 685 1208 685 1196 q 706 1263 685 1238 q 764 1288 728 1288 q 808 1275 788 1288 q 835 1238 827 1262 m 629 1274 q 601 1290 625 1276 q 532 1304 577 1304 q 409 1278 476 1304 q 270 1248 329 1248 q 179 1266 204 1248 q 151 1286 153 1284 l 151 1409 q 186 1390 153 1407 q 284 1373 218 1373 q 403 1395 339 1373 q 538 1423 478 1423 q 608 1408 589 1423 q 629 1391 627 1393 l 629 1274 z "},"ű":{"ha":780,"x_min":75,"x_max":764,"o":"m 377 -22 q 152 66 228 -22 q 75 312 75 155 l 75 1157 l 222 1157 l 222 292 q 265 165 222 208 q 385 121 308 121 q 506 181 460 121 q 556 321 552 240 l 556 1157 l 704 1157 l 704 0 l 589 0 l 563 44 q 377 -22 496 -22 m 669 1548 l 764 1452 l 510 1246 l 440 1315 l 669 1548 m 349 1546 l 444 1450 l 190 1244 l 121 1313 l 349 1546 z "},"ū":{"ha":780,"x_min":75,"x_max":704,"o":"m 377 -22 q 152 66 228 -22 q 75 312 75 155 l 75 1157 l 222 1157 l 222 292 q 265 165 222 208 q 385 121 308 121 q 506 181 460 121 q 556 321 552 240 l 556 1157 l 704 1157 l 704 0 l 589 0 l 563 44 q 377 -22 496 -22 m 153 1389 l 629 1389 l 629 1268 l 153 1268 l 153 1389 z "},"ų":{"ha":780,"x_min":75,"x_max":704,"o":"m 704 1157 l 704 0 l 589 0 l 563 44 q 454 -14 518 2 q 387 -97 387 -54 q 446 -153 387 -153 q 486 -149 458 -153 l 486 -250 q 419 -258 454 -258 q 313 -222 351 -258 q 274 -123 274 -187 q 319 -18 274 -58 q 137 85 198 0 q 75 312 75 171 l 75 1157 l 222 1157 l 222 292 q 265 165 222 208 q 385 121 308 121 q 506 181 460 121 q 556 321 552 240 l 556 1157 l 704 1157 z "},"ů":{"ha":780,"x_min":75,"x_max":704,"o":"m 391 1200 q 233 1264 298 1200 q 169 1421 169 1327 q 233 1579 169 1516 q 391 1643 298 1643 q 551 1579 486 1643 q 615 1421 615 1516 q 550 1264 615 1327 q 391 1200 484 1200 m 393 1313 q 470 1344 438 1313 q 502 1421 502 1375 q 470 1498 502 1466 q 393 1530 438 1530 q 316 1498 349 1530 q 284 1421 284 1466 q 315 1345 284 1377 q 393 1313 347 1313 m 377 -22 q 152 66 228 -22 q 75 312 75 155 l 75 1157 l 222 1157 l 222 292 q 265 165 222 208 q 385 121 308 121 q 506 181 460 121 q 556 321 552 240 l 556 1157 l 704 1157 l 704 0 l 589 0 l 563 44 q 377 -22 496 -22 z "},"ũ":{"ha":780,"x_min":75,"x_max":704,"o":"m 377 -22 q 152 66 228 -22 q 75 312 75 155 l 75 1157 l 222 1157 l 222 292 q 265 165 222 208 q 385 121 308 121 q 506 181 460 121 q 556 321 552 240 l 556 1157 l 704 1157 l 704 0 l 589 0 l 563 44 q 377 -22 496 -22 m 629 1274 q 601 1290 625 1276 q 532 1304 577 1304 q 409 1278 476 1304 q 270 1248 329 1248 q 179 1266 204 1248 q 151 1286 153 1284 l 151 1409 q 186 1390 153 1407 q 284 1373 218 1373 q 403 1395 339 1373 q 538 1423 478 1423 q 608 1408 589 1423 q 629 1391 627 1393 l 629 1274 z "},"v":{"ha":810,"x_min":75,"x_max":734,"o":"m 734 -20 q 457 111 591 8 q 228 372 323 214 q 103 714 133 530 q 81 916 87 819 q 75 1157 75 1012 l 224 1157 q 229 921 224 1008 q 250 738 234 833 q 378 407 280 548 q 585 202 476 266 l 585 1157 l 734 1157 l 734 -20 z "},"w":{"ha":1056,"x_min":75,"x_max":980,"o":"m 222 256 q 251 169 222 204 q 335 133 280 133 q 423 169 391 133 q 454 256 454 204 l 454 1157 l 601 1157 l 601 256 q 633 169 601 204 q 720 133 665 133 q 805 170 776 133 q 833 258 833 206 l 833 1157 l 980 1157 l 980 258 q 907 63 980 141 q 720 -16 833 -16 q 530 63 603 -16 q 335 -16 454 -16 q 149 62 222 -16 q 75 256 75 139 l 75 1157 l 222 1157 l 222 256 z "},"ẃ":{"ha":1056,"x_min":75,"x_max":980,"o":"m 222 256 q 251 169 222 204 q 335 133 280 133 q 423 169 391 133 q 454 256 454 204 l 454 1157 l 601 1157 l 601 256 q 633 169 601 204 q 720 133 665 133 q 805 170 776 133 q 833 258 833 206 l 833 1157 l 980 1157 l 980 258 q 907 63 980 141 q 720 -16 833 -16 q 530 63 603 -16 q 335 -16 454 -16 q 149 62 222 -16 q 75 256 75 139 l 75 1157 l 222 1157 l 222 256 m 415 1329 l 679 1518 l 756 1409 l 470 1248 l 415 1329 z "},"ŵ":{"ha":1056,"x_min":75,"x_max":980,"o":"m 222 256 q 251 169 222 204 q 335 133 280 133 q 423 169 391 133 q 454 256 454 204 l 454 1157 l 601 1157 l 601 256 q 633 169 601 204 q 720 133 665 133 q 805 170 776 133 q 833 258 833 206 l 833 1157 l 980 1157 l 980 258 q 907 63 980 141 q 720 -16 833 -16 q 530 63 603 -16 q 335 -16 454 -16 q 149 62 222 -16 q 75 256 75 139 l 75 1157 l 222 1157 l 222 256 m 365 1351 l 585 1462 l 808 1351 l 808 1244 l 585 1315 l 365 1244 l 365 1351 z "},"ẅ":{"ha":1056,"x_min":75,"x_max":980,"o":"m 222 256 q 251 169 222 204 q 335 133 280 133 q 423 169 391 133 q 454 256 454 204 l 454 1157 l 601 1157 l 601 256 q 633 169 601 204 q 720 133 665 133 q 805 170 776 133 q 833 258 833 206 l 833 1157 l 980 1157 l 980 258 q 907 63 980 141 q 720 -16 833 -16 q 530 63 603 -16 q 335 -16 454 -16 q 149 62 222 -16 q 75 256 75 139 l 75 1157 l 222 1157 l 222 256 m 421 1234 q 356 1261 383 1234 q 329 1325 329 1288 q 356 1391 329 1363 q 421 1419 383 1419 q 484 1392 458 1419 q 510 1325 510 1365 q 484 1261 510 1288 q 421 1234 458 1234 m 750 1234 q 686 1261 712 1234 q 659 1325 659 1288 q 686 1391 659 1363 q 750 1419 712 1419 q 813 1392 788 1419 q 839 1325 839 1365 q 813 1261 839 1288 q 750 1234 788 1234 z "},"ẁ":{"ha":1056,"x_min":75,"x_max":980,"o":"m 222 256 q 251 169 222 204 q 335 133 280 133 q 423 169 391 133 q 454 256 454 204 l 454 1157 l 601 1157 l 601 256 q 633 169 601 204 q 720 133 665 133 q 805 170 776 133 q 833 258 833 206 l 833 1157 l 980 1157 l 980 258 q 907 63 980 141 q 720 -16 833 -16 q 530 63 603 -16 q 335 -16 454 -16 q 149 62 222 -16 q 75 256 75 139 l 75 1157 l 222 1157 l 222 256 m 415 1409 l 492 1518 l 756 1329 l 700 1248 l 415 1409 z "},"x":{"ha":925,"x_min":73,"x_max":849,"o":"m 73 0 q 111 286 73 165 q 208 490 149 407 q 351 653 268 573 q 179 863 240 750 q 117 1157 117 976 l 266 1157 q 313 925 266 1012 q 458 754 361 837 q 595 931 550 843 q 641 1157 641 1018 l 788 1157 q 730 869 788 984 q 569 657 673 754 q 775 393 700 540 q 849 0 849 246 l 702 0 q 671 249 702 147 q 588 420 639 351 q 460 556 538 488 q 334 415 385 484 q 253 244 284 345 q 222 0 222 143 l 73 0 z "},"y":{"ha":958,"x_min":77,"x_max":887,"o":"m 315 -32 q 237 -21 278 -32 q 171 10 196 -10 l 200 163 q 312 117 252 117 q 431 181 375 117 q 550 343 504 264 q 214 591 343 433 q 108 795 139 692 q 77 1024 77 897 q 83 1163 77 1089 l 232 1147 q 226 1034 226 1087 q 270 790 226 893 q 619 468 361 579 q 740 1071 740 724 q 738 1153 740 1125 l 885 1161 l 887 1083 q 744 391 887 698 q 602 160 687 276 q 444 2 518 44 q 315 -32 387 -32 z "},"ý":{"ha":958,"x_min":77,"x_max":887,"o":"m 315 -32 q 237 -21 278 -32 q 171 10 196 -10 l 200 163 q 312 117 252 117 q 431 181 375 117 q 550 343 504 264 q 214 591 343 433 q 108 795 139 692 q 77 1024 77 897 q 83 1163 77 1089 l 232 1147 q 226 1034 226 1087 q 270 790 226 893 q 619 468 361 579 q 740 1071 740 724 q 738 1153 740 1125 l 885 1161 l 887 1083 q 744 391 887 698 q 602 160 687 276 q 444 2 518 44 q 315 -32 387 -32 m 313 1325 l 577 1514 l 655 1405 l 369 1244 l 313 1325 z "},"ŷ":{"ha":958,"x_min":77,"x_max":887,"o":"m 315 -32 q 237 -21 278 -32 q 171 10 196 -10 l 200 163 q 312 117 252 117 q 431 181 375 117 q 550 343 504 264 q 214 591 343 433 q 108 795 139 692 q 77 1024 77 897 q 83 1163 77 1089 l 232 1147 q 226 1034 226 1087 q 270 790 226 893 q 619 468 361 579 q 740 1071 740 724 q 738 1153 740 1125 l 885 1161 l 887 1083 q 744 391 887 698 q 602 160 687 276 q 444 2 518 44 q 315 -32 387 -32 m 264 1347 l 484 1458 l 706 1347 l 706 1240 l 484 1312 l 264 1240 l 264 1347 z "},"ÿ":{"ha":958,"x_min":77,"x_max":887,"o":"m 315 -32 q 237 -21 278 -32 q 171 10 196 -10 l 200 163 q 312 117 252 117 q 431 181 375 117 q 550 343 504 264 q 214 591 343 433 q 108 795 139 692 q 77 1024 77 897 q 83 1163 77 1089 l 232 1147 q 226 1034 226 1087 q 270 790 226 893 q 619 468 361 579 q 740 1071 740 724 q 738 1153 740 1125 l 885 1161 l 887 1083 q 744 391 887 698 q 602 160 687 276 q 444 2 518 44 q 315 -32 387 -32 m 319 1230 q 255 1257 282 1230 q 228 1321 228 1284 q 255 1387 228 1359 q 319 1415 282 1415 q 383 1388 357 1415 q 409 1321 409 1361 q 383 1257 409 1284 q 319 1230 357 1230 m 649 1230 q 584 1257 611 1230 q 558 1321 558 1284 q 584 1387 558 1359 q 649 1415 611 1415 q 712 1388 687 1415 q 738 1321 738 1361 q 712 1257 738 1284 q 649 1230 687 1230 z "},"ỵ":{"ha":958,"x_min":77,"x_max":887,"o":"m 315 -32 q 237 -21 278 -32 q 171 10 196 -10 l 200 163 q 312 117 252 117 q 431 181 375 117 q 550 343 504 264 q 214 591 343 433 q 108 795 139 692 q 77 1024 77 897 q 83 1163 77 1089 l 232 1147 q 226 1034 226 1087 q 270 790 226 893 q 619 468 361 579 q 740 1071 740 724 q 738 1153 740 1125 l 885 1161 l 887 1083 q 744 391 887 698 q 602 160 687 276 q 444 2 518 44 q 315 -32 387 -32 m 500 -280 q 436 -253 462 -280 q 409 -188 409 -226 q 436 -124 409 -151 q 500 -97 462 -97 q 564 -124 538 -97 q 591 -188 591 -151 q 564 -253 591 -226 q 500 -280 538 -280 z "},"ỳ":{"ha":958,"x_min":77,"x_max":887,"o":"m 315 -32 q 237 -21 278 -32 q 171 10 196 -10 l 200 163 q 312 117 252 117 q 431 181 375 117 q 550 343 504 264 q 214 591 343 433 q 108 795 139 692 q 77 1024 77 897 q 83 1163 77 1089 l 232 1147 q 226 1034 226 1087 q 270 790 226 893 q 619 468 361 579 q 740 1071 740 724 q 738 1153 740 1125 l 885 1161 l 887 1083 q 744 391 887 698 q 602 160 687 276 q 444 2 518 44 q 315 -32 387 -32 m 313 1405 l 391 1514 l 655 1325 l 599 1244 l 313 1405 z "},"ỷ":{"ha":958,"x_min":77,"x_max":887,"o":"m 315 -32 q 237 -21 278 -32 q 171 10 196 -10 l 200 163 q 312 117 252 117 q 431 181 375 117 q 550 343 504 264 q 214 591 343 433 q 108 795 139 692 q 77 1024 77 897 q 83 1163 77 1089 l 232 1147 q 226 1034 226 1087 q 270 790 226 893 q 619 468 361 579 q 740 1071 740 724 q 738 1153 740 1125 l 885 1161 l 887 1083 q 744 391 887 698 q 602 160 687 276 q 444 2 518 44 q 315 -32 387 -32 m 429 1401 q 488 1395 464 1395 q 558 1442 558 1395 q 538 1479 558 1466 q 484 1492 518 1492 q 427 1484 456 1492 l 427 1585 q 510 1595 476 1595 q 630 1557 587 1595 q 673 1442 673 1518 q 630 1341 673 1379 q 532 1304 587 1304 l 532 1246 l 429 1246 l 429 1401 z "},"ỹ":{"ha":958,"x_min":77,"x_max":887,"o":"m 315 -32 q 237 -21 278 -32 q 171 10 196 -10 l 200 163 q 312 117 252 117 q 431 181 375 117 q 550 343 504 264 q 214 591 343 433 q 108 795 139 692 q 77 1024 77 897 q 83 1163 77 1089 l 232 1147 q 226 1034 226 1087 q 270 790 226 893 q 619 468 361 579 q 740 1071 740 724 q 738 1153 740 1125 l 885 1161 l 887 1083 q 744 391 887 698 q 602 160 687 276 q 444 2 518 44 q 315 -32 387 -32 m 722 1270 q 694 1286 718 1272 q 625 1300 671 1300 q 502 1274 569 1300 q 363 1244 423 1244 q 272 1262 298 1244 q 244 1282 246 1280 l 244 1405 q 279 1386 246 1403 q 377 1369 312 1369 q 496 1391 433 1369 q 631 1419 571 1419 q 701 1404 683 1419 q 722 1387 720 1389 l 722 1270 z "},"z":{"ha":813,"x_min":73,"x_max":740,"o":"m 73 0 q 137 307 73 171 q 349 609 200 442 q 467 790 423 700 q 530 1008 512 879 l 125 1008 l 125 1157 l 685 1157 q 625 787 685 929 q 462 518 565 645 q 303 309 347 379 q 236 147 258 238 l 740 147 l 740 0 l 73 0 z "},"ź":{"ha":813,"x_min":73,"x_max":740,"o":"m 73 0 q 137 307 73 171 q 349 609 200 442 q 467 790 423 700 q 530 1008 512 879 l 125 1008 l 125 1157 l 685 1157 q 625 787 685 929 q 462 518 565 645 q 303 309 347 379 q 236 147 258 238 l 740 147 l 740 0 l 73 0 m 250 1329 l 514 1518 l 591 1409 l 306 1248 l 250 1329 z "},"ž":{"ha":813,"x_min":73,"x_max":740,"o":"m 73 0 q 137 307 73 171 q 349 609 200 442 q 467 790 423 700 q 530 1008 512 879 l 125 1008 l 125 1157 l 685 1157 q 625 787 685 929 q 462 518 565 645 q 303 309 347 379 q 236 147 258 238 l 740 147 l 740 0 l 73 0 m 194 1460 l 419 1387 l 645 1460 l 645 1351 l 419 1238 l 194 1351 l 194 1460 z "},"ż":{"ha":813,"x_min":73,"x_max":740,"o":"m 73 0 q 137 307 73 171 q 349 609 200 442 q 467 790 423 700 q 530 1008 512 879 l 125 1008 l 125 1157 l 685 1157 q 625 787 685 929 q 462 518 565 645 q 303 309 347 379 q 236 147 258 238 l 740 147 l 740 0 l 73 0 m 421 1234 q 356 1261 383 1234 q 329 1325 329 1288 q 356 1390 329 1363 q 421 1417 383 1417 q 485 1390 458 1417 q 512 1325 512 1363 q 485 1261 512 1288 q 421 1234 458 1234 z "},".":{"ha":403,"x_min":75,"x_max":327,"o":"m 202 -30 q 113 8 151 -30 q 75 97 75 46 q 113 187 75 149 q 202 224 151 224 q 291 187 254 224 q 327 97 327 149 q 291 8 327 46 q 202 -30 254 -30 z "},",":{"ha":405,"x_min":75,"x_max":329,"o":"m 194 -173 q 183 -30 194 -95 q 105 12 135 -24 q 75 99 75 48 q 111 187 75 151 q 198 222 147 222 q 291 178 252 222 q 329 73 329 133 q 289 -78 329 -4 q 194 -173 248 -153 z "},":":{"ha":403,"x_min":75,"x_max":327,"o":"m 202 829 q 113 867 151 829 q 75 956 75 905 q 113 1046 75 1008 q 202 1083 151 1083 q 291 1046 254 1083 q 327 956 327 1008 q 291 867 327 905 q 202 829 254 829 m 202 -30 q 113 8 151 -30 q 75 97 75 46 q 113 187 75 149 q 202 224 151 224 q 291 187 254 224 q 327 97 327 149 q 291 8 327 46 q 202 -30 254 -30 z "},";":{"ha":405,"x_min":75,"x_max":329,"o":"m 204 829 q 115 867 153 829 q 77 956 77 905 q 115 1046 77 1008 q 204 1083 153 1083 q 293 1046 256 1083 q 329 956 329 1008 q 293 867 329 905 q 204 829 256 829 m 194 -173 q 183 -30 194 -95 q 105 12 135 -24 q 75 99 75 48 q 111 187 75 151 q 198 222 147 222 q 291 178 252 222 q 329 73 329 133 q 289 -78 329 -4 q 194 -173 248 -153 z "},"…":{"ha":1244,"x_min":75,"x_max":1169,"o":"m 1044 -30 q 954 8 992 -30 q 917 97 917 46 q 954 187 917 149 q 1044 224 992 224 q 1132 187 1095 224 q 1169 97 1169 149 q 1132 8 1169 46 q 1044 -30 1095 -30 m 202 -30 q 113 8 151 -30 q 75 97 75 46 q 113 187 75 149 q 202 224 151 224 q 291 187 254 224 q 327 97 327 149 q 291 8 327 46 q 202 -30 254 -30 m 625 -30 q 536 8 573 -30 q 498 97 498 46 q 536 187 498 149 q 625 224 573 224 q 713 187 677 224 q 750 97 750 149 q 713 8 750 46 q 625 -30 677 -30 z "},"!":{"ha":411,"x_min":79,"x_max":331,"o":"m 113 1389 l 298 1389 l 278 323 l 133 323 l 113 1389 m 206 -34 q 117 4 155 -34 q 79 93 79 42 q 117 183 79 145 q 206 220 155 220 q 295 183 258 220 q 331 93 331 145 q 295 4 331 42 q 206 -34 258 -34 z "},"¡":{"ha":411,"x_min":79,"x_max":331,"o":"m 206 1343 q 295 1306 258 1343 q 331 1216 331 1268 q 295 1127 331 1165 q 206 1089 258 1089 q 117 1127 155 1089 q 79 1216 79 1165 q 117 1306 79 1268 q 206 1343 155 1343 m 133 986 l 278 986 l 298 -79 l 113 -79 l 133 986 z "},"?":{"ha":893,"x_min":75,"x_max":817,"o":"m 312 331 q 306 427 306 377 q 348 624 306 526 q 504 831 391 722 q 602 964 567 895 q 637 1097 637 1034 q 575 1238 637 1185 q 431 1294 514 1294 q 301 1248 357 1294 q 230 1125 244 1202 l 75 1200 q 193 1391 93 1321 q 423 1460 294 1460 q 690 1367 577 1460 q 784 1244 750 1315 q 817 1091 817 1173 q 771 898 817 996 q 629 710 724 800 q 516 562 548 633 q 484 415 484 490 q 490 331 484 373 l 312 331 m 411 -36 q 321 2 359 -36 q 284 91 284 40 q 321 181 284 143 q 411 218 359 218 q 499 181 462 218 q 536 91 536 143 q 499 2 536 40 q 411 -36 462 -36 z "},"¿":{"ha":897,"x_min":79,"x_max":821,"o":"m 486 1196 q 575 1159 538 1196 q 613 1069 613 1121 q 575 980 613 1018 q 486 942 538 942 q 398 980 435 942 q 361 1069 361 1018 q 398 1159 361 1121 q 486 1196 435 1196 m 585 829 q 591 734 591 786 q 549 537 591 635 q 393 329 506 438 q 295 196 329 266 q 260 63 260 127 q 321 -77 260 -24 q 466 -133 383 -133 q 596 -87 540 -133 q 667 36 653 -42 l 821 -40 q 703 -230 804 -161 q 474 -300 603 -300 q 206 -206 319 -300 q 113 -83 147 -155 q 79 69 79 -12 q 126 263 79 165 q 268 450 173 361 q 381 599 349 528 q 413 746 413 671 q 407 829 413 788 l 585 829 z "},"·":{"ha":403,"x_min":75,"x_max":327,"o":"m 202 635 q 113 673 151 635 q 75 762 75 710 q 113 851 75 813 q 202 889 151 889 q 291 851 254 889 q 327 762 327 813 q 291 673 327 710 q 202 635 254 635 z "},"•":{"ha":591,"x_min":107,"x_max":486,"o":"m 298 581 q 164 638 220 581 q 107 772 107 694 q 164 907 107 851 q 298 962 220 962 q 432 907 377 962 q 486 772 486 851 q 431 638 486 694 q 298 581 375 581 z "},"*":{"ha":879,"x_min":89,"x_max":790,"o":"m 790 1159 l 575 1079 l 730 897 l 601 792 l 438 986 l 276 792 l 147 897 l 304 1081 l 89 1159 l 147 1313 l 357 1236 l 355 1474 l 522 1474 l 520 1234 l 734 1313 l 790 1159 z "},"#":{"ha":1407,"x_min":89,"x_max":1317,"o":"m 1254 825 l 1034 825 l 950 613 l 1181 613 l 1117 468 l 893 468 l 687 -58 l 502 -58 l 708 468 l 498 468 l 292 -58 l 107 -58 l 313 468 l 89 468 l 153 613 l 371 613 l 454 825 l 226 825 l 290 972 l 512 972 l 700 1448 l 885 1448 l 696 972 l 907 972 l 1095 1448 l 1280 1448 l 1091 972 l 1317 972 l 1254 825 m 766 613 l 849 825 l 639 825 l 556 613 l 766 613 z "},"/":{"ha":897,"x_min":60,"x_max":837,"o":"m 60 -58 l 653 1448 l 837 1448 l 244 -58 l 60 -58 z "},"\\":{"ha":897,"x_min":60,"x_max":837,"o":"m 60 1446 l 244 1446 l 837 -60 l 653 -60 l 60 1446 z "},"(":{"ha":633,"x_min":89,"x_max":563,"o":"m 462 -212 q 223 90 357 -125 q 89 685 89 306 q 171 1172 89 972 q 339 1468 252 1371 q 468 1587 427 1565 l 556 1460 q 445 1343 504 1415 q 324 1102 387 1272 q 262 685 262 933 q 349 224 262 423 q 563 -83 437 26 l 462 -212 z "},")":{"ha":633,"x_min":69,"x_max":544,"o":"m 69 -83 q 284 224 196 26 q 371 685 371 423 q 309 1102 371 933 q 188 1343 246 1272 q 77 1460 129 1415 l 165 1587 q 294 1468 206 1565 q 462 1172 381 1371 q 544 685 544 972 q 410 90 544 306 q 171 -212 276 -125 l 69 -83 z "},"{":{"ha":571,"x_min":71,"x_max":482,"o":"m 482 -234 q 364 -220 423 -238 q 276 -169 306 -202 q 209 -33 226 -115 q 192 161 192 50 l 194 248 q 196 359 196 284 q 188 485 196 435 q 155 560 179 536 q 71 587 127 587 l 71 776 q 155 802 129 776 q 188 877 179 825 q 196 1004 196 929 q 194 1123 196 1085 q 192 1212 192 1153 q 210 1403 192 1321 q 276 1538 228 1484 q 366 1591 308 1571 q 482 1607 425 1611 l 482 1437 q 435 1430 454 1437 q 407 1415 415 1423 q 371 1228 371 1381 l 373 1127 q 356 868 379 986 q 268 688 333 750 q 351 550 327 635 q 375 327 375 464 q 373 246 375 274 l 371 145 q 407 -44 371 -8 q 433 -57 413 -50 q 482 -63 452 -63 l 482 -234 z "},"}":{"ha":571,"x_min":89,"x_max":500,"o":"m 89 -63 q 138 -57 117 -63 q 165 -44 159 -50 q 200 145 200 -8 l 198 246 q 196 327 196 274 q 220 550 196 464 q 304 688 244 635 q 221 845 246 744 q 196 1069 196 946 q 198 1147 196 1119 l 200 1238 q 165 1415 200 1383 q 137 1430 157 1423 q 89 1437 117 1437 l 89 1607 q 205 1591 147 1611 q 296 1538 264 1571 q 361 1403 343 1484 q 379 1212 379 1321 q 377 1123 379 1153 q 375 1004 375 1085 q 384 877 375 929 q 417 802 393 825 q 500 776 442 776 l 500 587 q 417 560 444 587 q 384 485 393 536 q 375 359 375 435 q 377 248 375 284 l 379 161 q 362 -33 379 50 q 296 -169 345 -115 q 207 -220 266 -202 q 89 -234 149 -238 l 89 -63 z "},"[":{"ha":571,"x_min":109,"x_max":492,"o":"m 492 1421 l 288 1421 l 288 -52 l 492 -52 l 492 -218 l 109 -218 l 109 1587 l 492 1587 l 492 1421 z "},"]":{"ha":571,"x_min":79,"x_max":462,"o":"m 462 1587 l 462 -218 l 79 -218 l 79 -52 l 284 -52 l 284 1421 l 79 1421 l 79 1587 l 462 1587 z "},"-":{"ha":1079,"x_min":99,"x_max":980,"o":"m 99 788 l 980 788 l 980 556 l 99 556 l 99 788 z "},"–":{"ha":1357,"x_min":99,"x_max":1258,"o":"m 99 788 l 1258 788 l 1258 556 l 99 556 l 99 788 z "},"—":{"ha":1950,"x_min":99,"x_max":1851,"o":"m 99 788 l 1851 788 l 1851 556 l 99 556 l 99 788 z "},"_":{"ha":1222,"x_min":89,"x_max":1129,"o":"m 1129 -87 l 1129 -260 l 89 -260 l 89 -87 l 1129 -87 z "},"‚":{"ha":407,"x_min":75,"x_max":329,"o":"m 194 -173 q 183 -30 194 -95 q 105 12 135 -24 q 75 99 75 48 q 111 187 75 151 q 198 222 147 222 q 291 178 252 222 q 329 73 329 133 q 289 -78 329 -4 q 194 -173 248 -153 z "},"„":{"ha":804,"x_min":75,"x_max":728,"o":"m 593 -173 q 581 -30 593 -95 q 504 12 534 -24 q 474 99 474 48 q 510 187 474 151 q 597 222 546 222 q 689 178 651 222 q 728 73 728 133 q 688 -78 728 -4 q 593 -173 647 -153 m 194 -173 q 183 -30 194 -95 q 105 12 135 -24 q 75 99 75 48 q 111 187 75 151 q 198 222 147 222 q 291 178 252 222 q 329 73 329 133 q 289 -78 329 -4 q 194 -173 248 -153 z "},"“":{"ha":817,"x_min":75,"x_max":728,"o":"m 246 1448 q 238 1306 234 1377 q 304 1261 278 1296 q 329 1183 329 1226 q 293 1092 329 1129 q 202 1056 256 1056 q 112 1098 149 1056 q 75 1200 75 1141 q 101 1307 75 1252 q 167 1401 127 1361 q 246 1448 206 1440 m 645 1448 q 637 1306 633 1377 q 702 1261 677 1296 q 728 1183 728 1226 q 691 1092 728 1129 q 601 1056 655 1056 q 511 1098 548 1056 q 474 1200 474 1141 q 500 1307 474 1252 q 565 1401 526 1361 q 645 1448 605 1440 z "},"”":{"ha":804,"x_min":75,"x_max":728,"o":"m 194 1056 q 183 1198 194 1133 q 105 1240 135 1204 q 75 1327 75 1276 q 111 1415 75 1379 q 198 1450 147 1450 q 291 1406 252 1450 q 329 1302 329 1361 q 289 1150 329 1224 q 194 1056 248 1075 m 593 1056 q 581 1198 593 1133 q 504 1240 534 1204 q 474 1327 474 1276 q 510 1415 474 1379 q 597 1450 546 1450 q 689 1406 651 1450 q 728 1302 728 1361 q 688 1150 728 1224 q 593 1056 647 1075 z "},"‘":{"ha":427,"x_min":75,"x_max":329,"o":"m 246 1446 q 238 1304 234 1375 q 304 1259 278 1294 q 329 1181 329 1224 q 293 1090 329 1127 q 202 1054 256 1054 q 112 1096 149 1054 q 75 1198 75 1139 q 101 1305 75 1250 q 167 1399 127 1359 q 246 1446 206 1438 z "},"’":{"ha":405,"x_min":75,"x_max":329,"o":"m 194 1056 q 183 1198 194 1133 q 105 1240 135 1204 q 75 1327 75 1276 q 111 1415 75 1379 q 198 1450 147 1450 q 291 1406 252 1450 q 329 1302 329 1361 q 289 1150 329 1224 q 194 1056 248 1075 z "},"«":{"ha":970,"x_min":69,"x_max":881,"o":"m 69 730 l 492 1115 l 492 913 l 284 730 l 492 544 l 492 341 l 69 730 m 458 730 l 881 1115 l 881 913 l 673 730 l 881 544 l 881 341 l 458 730 z "},"»":{"ha":970,"x_min":89,"x_max":901,"o":"m 89 544 l 298 730 l 89 913 l 89 1115 l 512 730 l 89 341 l 89 544 m 478 544 l 687 730 l 478 913 l 478 1115 l 901 730 l 478 341 l 478 544 z "},"‹":{"ha":581,"x_min":69,"x_max":492,"o":"m 69 730 l 492 1115 l 492 913 l 284 730 l 492 544 l 492 341 l 69 730 z "},"›":{"ha":581,"x_min":89,"x_max":512,"o":"m 89 341 l 89 544 l 298 730 l 89 913 l 89 1115 l 512 730 l 89 341 z "},"\"":{"ha":688,"x_min":95,"x_max":593,"o":"m 429 1409 l 593 1409 l 593 978 l 429 978 l 429 1409 m 95 1409 l 260 1409 l 260 978 l 95 978 l 95 1409 z "},"'":{"ha":355,"x_min":95,"x_max":260,"o":"m 95 1409 l 260 1409 l 260 978 l 95 978 l 95 1409 z "},"¢":{"ha":1034,"x_min":79,"x_max":958,"o":"m 958 54 q 679 -34 855 -38 l 679 -149 l 504 -149 l 504 -6 q 262 157 365 42 q 79 724 79 363 q 147 1058 79 917 q 311 1282 214 1198 q 502 1397 407 1365 l 502 1534 l 677 1534 l 677 1419 q 830 1391 758 1415 q 954 1323 903 1367 l 843 1187 q 761 1227 812 1212 q 653 1242 710 1242 q 581 1236 617 1242 q 445 1166 522 1226 q 313 993 369 1105 q 256 724 256 881 q 321 389 256 520 q 483 199 387 258 q 675 141 579 141 q 777 155 730 141 q 843 187 823 169 l 958 54 z "},"$":{"ha":909,"x_min":79,"x_max":829,"o":"m 661 671 q 829 325 829 496 q 716 62 829 165 q 632 4 683 28 q 528 -30 581 -20 l 528 -149 l 353 -149 l 353 -28 l 333 -22 q 167 88 230 10 q 79 256 103 167 l 244 329 q 383 145 280 183 q 458 131 419 131 q 597 188 542 131 q 653 323 653 246 q 534 546 653 427 q 357 710 512 569 q 228 829 329 734 q 142 956 173 887 q 111 1095 111 1026 q 143 1233 111 1169 q 234 1345 175 1298 q 351 1407 292 1389 l 351 1534 l 526 1534 l 526 1407 l 534 1405 q 704 1296 635 1379 l 583 1165 q 488 1236 546 1218 q 440 1242 464 1242 q 332 1199 377 1242 q 288 1095 288 1157 q 306 1023 288 1060 q 355 954 323 986 q 542 780 393 915 q 661 671 661 671 z "},"€":{"ha":1113,"x_min":10,"x_max":1038,"o":"m 1038 54 q 772 -34 940 -34 q 675 -28 722 -34 q 514 22 603 -18 q 341 157 425 62 q 190 452 236 274 l 10 452 l 79 619 l 163 619 q 159 724 159 687 l 159 766 l 12 766 l 81 933 l 183 933 q 298 1181 218 1077 q 467 1340 377 1284 q 631 1411 558 1397 q 730 1419 673 1419 q 898 1394 817 1419 q 1034 1323 978 1369 l 923 1187 q 840 1227 891 1212 q 732 1242 790 1242 q 661 1236 696 1242 q 561 1192 617 1228 q 450 1090 504 1157 q 367 933 397 1024 l 841 933 l 772 766 l 337 766 q 335 724 335 752 q 341 619 335 671 l 718 619 l 649 452 l 375 452 q 536 217 429 294 q 754 141 643 141 q 856 155 810 141 q 923 187 903 169 l 1038 54 z "},"£":{"ha":929,"x_min":103,"x_max":810,"o":"m 810 161 l 810 0 l 103 0 l 103 161 q 187 194 139 163 q 281 364 254 238 q 313 685 308 490 l 155 685 l 155 851 l 317 851 l 317 921 q 324 1110 319 1044 q 359 1252 329 1177 q 456 1383 389 1327 q 539 1427 490 1411 q 641 1442 587 1442 q 770 1415 704 1442 l 770 1250 q 655 1282 718 1282 q 556 1246 591 1282 q 493 1132 506 1196 q 480 964 480 1067 l 480 925 q 478 851 480 875 l 681 851 l 681 685 l 474 685 q 453 431 468 534 q 407 254 438 327 q 343 161 383 200 l 810 161 z "},"+":{"ha":1079,"x_min":99,"x_max":980,"o":"m 980 746 l 980 583 l 621 583 l 621 224 l 458 224 l 458 583 l 99 583 l 99 746 l 458 746 l 458 1105 l 621 1105 l 621 746 l 980 746 z "},"−":{"ha":1079,"x_min":99,"x_max":980,"o":"m 980 750 l 980 587 l 99 587 l 99 750 l 980 750 z "},"×":{"ha":819,"x_min":40,"x_max":780,"o":"m 780 417 l 665 302 l 411 558 l 155 302 l 40 417 l 296 673 l 42 925 l 157 1040 l 411 788 l 663 1040 l 778 925 l 526 673 l 780 417 z "},"÷":{"ha":1079,"x_min":99,"x_max":980,"o":"m 542 873 q 452 911 490 873 q 415 1000 415 948 q 452 1089 415 1052 q 542 1127 490 1127 q 630 1089 593 1127 q 667 1000 667 1052 q 630 911 667 948 q 542 873 593 873 m 980 750 l 980 587 l 99 587 l 99 750 l 980 750 m 542 212 q 452 250 490 212 q 415 339 415 288 q 452 429 415 391 q 542 466 490 466 q 630 429 593 466 q 667 339 667 391 q 630 250 667 288 q 542 212 593 212 z "},"=":{"ha":1079,"x_min":99,"x_max":980,"o":"m 980 942 l 980 780 l 99 780 l 99 942 l 980 942 m 980 556 l 980 393 l 99 393 l 99 556 l 980 556 z "},">":{"ha":581,"x_min":89,"x_max":512,"o":"m 89 341 l 89 544 l 298 730 l 89 913 l 89 1115 l 512 730 l 89 341 z "},"<":{"ha":583,"x_min":69,"x_max":492,"o":"m 69 730 l 492 1115 l 492 913 l 284 730 l 492 544 l 492 341 l 69 730 z "},"≈":{"ha":895,"x_min":133,"x_max":851,"o":"m 851 855 q 822 870 843 859 q 773 889 802 881 q 706 897 744 897 q 520 859 627 897 q 312 819 407 819 q 204 834 240 819 q 133 871 169 849 l 133 1044 q 218 1009 175 1024 q 331 994 262 994 q 512 1024 417 994 q 712 1063 629 1063 q 818 1042 790 1063 q 851 1018 847 1020 l 851 855 m 851 496 q 822 511 843 500 q 773 530 802 522 q 706 538 744 538 q 520 500 627 538 q 312 460 407 460 q 204 475 240 460 q 133 512 169 490 l 133 685 q 218 650 175 665 q 331 635 262 635 q 512 665 417 635 q 712 704 629 704 q 818 683 790 704 q 851 659 847 661 l 851 496 z "},"~":{"ha":895,"x_min":133,"x_max":851,"o":"m 851 677 q 822 691 843 681 q 773 710 802 702 q 706 718 744 718 q 520 681 627 718 q 312 641 407 641 q 204 656 240 641 q 133 692 169 671 l 133 865 q 218 830 175 845 q 331 815 262 815 q 512 845 417 815 q 712 885 629 885 q 818 863 790 885 q 851 839 847 841 l 851 677 z "},"^":{"ha":833,"x_min":30,"x_max":804,"o":"m 804 994 l 601 994 l 419 1202 l 232 994 l 30 994 l 419 1417 l 804 994 z "},"%":{"ha":1492,"x_min":69,"x_max":1423,"o":"m 1143 69 q 1001 106 1065 69 q 900 207 937 143 q 863 349 863 272 q 900 491 863 427 q 1001 592 937 556 q 1143 629 1065 629 q 1285 592 1220 629 q 1386 491 1349 556 q 1423 349 1423 427 q 1386 207 1423 272 q 1285 106 1349 143 q 1143 69 1220 69 m 1143 208 q 1242 250 1200 208 q 1284 349 1284 292 q 1242 448 1284 407 q 1143 490 1200 490 q 1044 448 1085 490 q 1002 349 1002 407 q 1044 250 1002 292 q 1143 208 1085 208 m 349 760 q 207 797 272 760 q 106 898 143 833 q 69 1040 69 962 q 106 1182 69 1117 q 207 1283 143 1246 q 349 1319 272 1319 q 491 1283 427 1319 q 592 1182 556 1246 q 629 1040 629 1117 q 592 898 629 962 q 491 797 556 833 q 349 760 427 760 m 349 899 q 448 940 407 899 q 490 1040 490 982 q 448 1139 490 1097 q 349 1181 407 1181 q 250 1139 292 1181 q 208 1040 208 1097 q 250 940 208 982 q 349 899 292 899 m 357 -58 l 950 1448 l 1135 1448 l 542 -58 l 357 -58 z "},"@":{"ha":1556,"x_min":71,"x_max":1488,"o":"m 1466 921 q 1488 740 1488 829 q 1451 523 1488 623 q 1341 359 1415 423 q 1267 318 1310 333 q 1179 304 1224 304 q 1087 319 1135 304 q 976 425 1018 345 q 746 312 887 312 q 518 431 607 312 q 437 688 437 538 q 518 944 437 837 q 746 1056 603 1056 q 919 1004 847 1056 l 919 1060 l 1073 1060 l 1075 716 q 1087 556 1075 625 q 1122 482 1095 510 q 1183 454 1149 454 q 1228 468 1206 454 q 1309 577 1280 502 q 1337 746 1337 653 q 1306 938 1337 843 q 1210 1105 1274 1034 q 1026 1227 1141 1185 q 794 1270 911 1270 q 577 1227 681 1270 q 397 1105 474 1185 q 275 915 319 1024 q 230 690 230 806 q 273 460 230 573 q 389 274 315 347 q 564 160 464 198 q 772 121 665 121 q 1032 183 921 121 l 1107 44 q 772 -38 956 -38 q 495 16 625 -38 q 270 169 365 69 q 123 406 175 270 q 71 690 71 542 q 168 1063 71 895 q 430 1327 264 1230 q 794 1425 595 1425 q 1071 1373 942 1425 q 1298 1220 1200 1321 q 1403 1077 1359 1155 q 1466 921 1446 1000 m 746 458 q 856 520 810 458 q 903 688 903 581 q 854 851 903 796 q 746 907 806 907 q 641 851 688 907 q 593 688 593 796 q 640 520 593 581 q 746 458 687 458 z "},"&":{"ha":1042,"x_min":95,"x_max":966,"o":"m 542 -30 q 397 -6 472 -30 q 183 152 266 34 q 99 413 99 270 q 141 629 95 528 q 276 784 187 730 q 174 897 206 831 q 141 1056 141 962 q 176 1210 141 1137 q 274 1337 210 1284 q 492 1415 367 1415 q 571 1407 538 1415 q 703 1350 643 1391 q 808 1250 764 1310 l 669 1139 q 594 1211 641 1185 q 494 1238 548 1238 q 368 1184 419 1238 q 317 1056 317 1129 q 417 899 317 962 q 675 823 508 841 l 613 655 q 510 683 573 683 q 338 607 403 683 q 274 431 274 532 q 322 263 274 337 q 450 163 371 188 q 542 149 492 149 q 705 201 631 149 q 812 355 780 254 l 813 355 l 966 266 q 796 50 911 129 q 542 -30 681 -30 z "},"©":{"ha":1609,"x_min":62,"x_max":1548,"o":"m 806 -50 q 433 51 603 -50 q 162 321 262 151 q 62 694 62 492 q 162 1065 62 895 q 433 1336 262 1236 q 806 1437 603 1437 q 1177 1336 1006 1437 q 1447 1065 1347 1236 q 1548 694 1548 895 q 1447 321 1548 492 q 1177 51 1347 151 q 806 -50 1006 -50 m 806 73 q 1111 158 970 73 q 1335 385 1252 242 q 1419 694 1419 528 q 1335 1001 1419 859 q 1110 1228 1252 1143 q 806 1313 968 1313 q 499 1228 641 1313 q 274 1001 357 1143 q 190 694 190 859 q 274 385 190 528 q 499 158 357 242 q 806 73 641 73 m 782 220 q 676 252 736 224 q 560 343 615 280 q 438 720 438 478 q 491 960 438 861 q 617 1113 544 1060 q 752 1179 690 1167 q 815 1185 784 1185 q 930 1168 875 1185 q 1022 1119 984 1151 l 946 1030 q 823 1065 905 1065 q 772 1062 788 1065 q 682 1014 732 1054 q 593 899 631 974 q 556 720 556 823 q 599 496 556 583 q 707 370 643 409 q 837 331 772 331 q 902 341 871 331 q 946 363 933 351 l 1024 274 q 849 216 958 216 q 782 220 804 216 z "},"®":{"ha":1609,"x_min":62,"x_max":1548,"o":"m 806 -50 q 433 51 603 -50 q 162 321 262 151 q 62 694 62 492 q 162 1065 62 895 q 433 1336 262 1236 q 806 1437 603 1437 q 1177 1336 1006 1437 q 1447 1065 1347 1236 q 1548 694 1548 895 q 1447 321 1548 492 q 1177 51 1347 151 q 806 -50 1006 -50 m 806 73 q 1111 158 970 73 q 1335 385 1252 242 q 1419 694 1419 528 q 1335 1001 1419 859 q 1110 1228 1252 1143 q 806 1313 968 1313 q 499 1228 641 1313 q 274 1001 357 1143 q 190 694 190 859 q 274 385 190 528 q 499 158 357 242 q 806 73 641 73 m 778 1157 q 951 1095 877 1157 q 1026 921 1026 1034 q 997 797 1026 853 q 917 700 968 740 q 1037 493 996 613 q 1077 232 1077 373 l 958 232 q 921 466 958 361 q 810 643 883 571 q 698 621 752 623 l 698 232 l 581 232 l 581 1157 l 778 1157 m 698 738 q 781 756 736 738 q 855 804 825 774 q 907 921 907 855 q 864 1016 907 992 q 778 1040 821 1040 l 698 1040 l 698 738 z "},"™":{"ha":1437,"x_min":63,"x_max":1282,"o":"m 613 1194 q 668 1339 613 1282 q 806 1397 722 1397 q 948 1337 893 1397 q 1089 1397 1004 1397 q 1227 1339 1173 1397 q 1282 1194 1282 1282 l 1282 530 l 1173 530 l 1173 1194 q 1152 1259 1173 1232 q 1089 1286 1131 1286 q 1025 1259 1048 1286 q 1002 1194 1002 1232 l 1002 530 l 893 530 l 893 1194 q 870 1259 893 1232 q 806 1286 847 1286 q 743 1259 764 1286 q 722 1194 722 1232 l 722 530 l 613 530 l 613 1194 m 63 1278 l 63 1389 l 522 1389 l 522 1278 l 349 1278 l 349 534 l 238 534 l 238 1278 l 63 1278 z "},"°":{"ha":738,"x_min":89,"x_max":649,"o":"m 369 879 q 227 916 292 879 q 126 1017 163 952 q 89 1159 89 1081 q 126 1301 89 1236 q 227 1402 163 1365 q 369 1438 292 1438 q 511 1402 446 1438 q 612 1301 575 1365 q 649 1159 649 1236 q 612 1017 649 1081 q 511 916 575 952 q 369 879 446 879 m 369 1018 q 468 1060 427 1018 q 510 1159 510 1101 q 468 1258 510 1216 q 369 1300 427 1300 q 270 1258 312 1300 q 228 1159 228 1216 q 270 1060 228 1101 q 369 1018 312 1018 z "},"|":{"ha":365,"x_min":109,"x_max":256,"o":"m 109 1413 l 256 1413 l 256 -214 l 109 -214 l 109 1413 z "},"̈":{"ha":0,"x_min":-589,"x_max":-79,"o":"m -498 1466 q -562 1493 -536 1466 q -589 1558 -589 1520 q -562 1623 -589 1595 q -498 1651 -536 1651 q -435 1624 -460 1651 q -409 1558 -409 1597 q -435 1493 -409 1520 q -498 1466 -460 1466 m -169 1466 q -233 1493 -206 1466 q -260 1558 -260 1520 q -233 1623 -260 1595 q -169 1651 -206 1651 q -105 1624 -131 1651 q -79 1558 -79 1597 q -105 1493 -79 1520 q -169 1466 -131 1466 z "},"̇":{"ha":0,"x_min":-262,"x_max":-79,"o":"m -171 1466 q -235 1493 -208 1466 q -262 1558 -262 1520 q -235 1622 -262 1595 q -171 1649 -208 1649 q -106 1622 -133 1649 q -79 1558 -79 1595 q -106 1493 -79 1520 q -171 1466 -133 1466 z "},"̀":{"ha":0,"x_min":-421,"x_max":-79,"o":"m -421 1641 l -343 1750 l -79 1562 l -135 1480 l -421 1641 z "},"́":{"ha":0,"x_min":-421,"x_max":-79,"o":"m -421 1562 l -157 1750 l -79 1641 l -365 1480 l -421 1562 z "},"̋":{"ha":0,"x_min":-633,"x_max":10,"o":"m -85 1780 l 10 1685 l -244 1478 l -313 1548 l -85 1780 m -405 1778 l -310 1683 l -563 1476 l -633 1546 l -405 1778 z "},"̂":{"ha":0,"x_min":-522,"x_max":-79,"o":"m -522 1583 l -302 1694 l -79 1583 l -79 1476 l -302 1548 l -522 1476 l -522 1583 z "},"̌":{"ha":0,"x_min":-530,"x_max":-79,"o":"m -530 1692 l -306 1619 l -79 1692 l -79 1583 l -306 1470 l -530 1583 l -530 1692 z "},"̆":{"ha":0,"x_min":-565,"x_max":-79,"o":"m -319 1468 q -484 1523 -411 1468 q -565 1661 -558 1577 l -442 1661 q -399 1608 -435 1629 q -323 1587 -363 1587 q -248 1608 -284 1587 q -202 1661 -212 1629 l -79 1661 q -161 1523 -89 1577 q -319 1468 -232 1468 z "},"̊":{"ha":0,"x_min":-587,"x_max":-79,"o":"m -335 1313 q -514 1386 -440 1313 q -587 1565 -587 1458 q -514 1745 -587 1673 q -335 1817 -440 1817 q -154 1745 -228 1817 q -79 1565 -79 1673 q -154 1386 -79 1458 q -335 1313 -228 1313 m -333 1442 q -245 1478 -282 1442 q -208 1565 -208 1514 q -245 1653 -208 1617 q -333 1688 -282 1688 q -421 1653 -385 1688 q -456 1565 -456 1617 q -421 1479 -456 1516 q -333 1442 -385 1442 z "},"̃":{"ha":0,"x_min":-558,"x_max":-79,"o":"m -79 1506 q -107 1522 -83 1508 q -177 1536 -131 1536 q -300 1510 -232 1536 q -438 1480 -379 1480 q -530 1498 -504 1480 q -558 1518 -556 1516 l -558 1641 q -523 1622 -556 1639 q -425 1605 -490 1605 q -306 1627 -369 1605 q -171 1655 -230 1655 q -100 1640 -119 1655 q -79 1623 -81 1625 l -79 1506 z "},"̄":{"ha":0,"x_min":-556,"x_max":-79,"o":"m -556 1621 l -79 1621 l -79 1500 l -556 1500 l -556 1621 z "},"̉":{"ha":0,"x_min":-325,"x_max":-79,"o":"m -323 1637 q -264 1631 -288 1631 q -194 1679 -194 1631 q -214 1715 -194 1702 q -268 1728 -234 1728 q -325 1720 -296 1728 l -325 1821 q -242 1831 -276 1831 q -122 1793 -165 1831 q -79 1679 -79 1754 q -122 1577 -79 1615 q -220 1540 -165 1540 l -220 1482 l -323 1482 l -323 1637 z "},"̒":{"ha":0,"x_min":-256,"x_max":-79,"o":"m -163 1760 q -153 1661 -163 1710 q -100 1631 -121 1657 q -79 1567 -79 1605 q -104 1509 -79 1534 q -163 1484 -129 1484 q -229 1516 -202 1484 q -256 1589 -256 1548 q -227 1694 -256 1643 q -163 1760 -198 1746 z "},"̛":{"ha":0,"x_min":-347,"x_max":-83,"o":"m -347 1419 q -296 1433 -321 1421 q -258 1458 -270 1444 q -260 1480 -260 1466 q -245 1529 -260 1506 q -204 1562 -230 1552 q -169 1569 -188 1569 q -121 1554 -143 1569 q -89 1512 -99 1538 q -83 1482 -83 1498 q -135 1393 -83 1433 q -264 1359 -183 1359 q -331 1367 -296 1359 l -347 1419 z "},"̣":{"ha":0,"x_min":-262,"x_max":-79,"o":"m -171 -270 q -235 -243 -208 -270 q -262 -179 -262 -216 q -235 -114 -262 -141 q -171 -87 -208 -87 q -106 -114 -133 -87 q -79 -179 -79 -141 q -106 -243 -79 -216 q -171 -270 -133 -270 z "},"̦":{"ha":0,"x_min":-284,"x_max":-79,"o":"m -188 -429 q -196 -313 -188 -361 q -258 -282 -232 -310 q -284 -214 -284 -254 q -254 -141 -284 -171 q -181 -111 -224 -111 q -109 -148 -139 -113 q -79 -230 -79 -183 q -112 -352 -79 -292 q -188 -429 -145 -413 z "},"̧":{"ha":0,"x_min":-323,"x_max":-77,"o":"m -317 -196 q -264 -204 -292 -204 q -217 -191 -232 -204 q -202 -157 -202 -179 q -233 -99 -202 -125 q -323 -65 -264 -73 l -228 32 l -107 18 l -163 -40 q -98 -99 -119 -63 q -77 -175 -77 -135 q -99 -254 -77 -216 q -156 -305 -119 -286 q -236 -323 -192 -323 q -317 -308 -280 -323 l -317 -196 z "},"̨":{"ha":0,"x_min":-319,"x_max":-79,"o":"m -79 -274 q -153 -282 -113 -282 q -275 -243 -230 -282 q -319 -133 -319 -204 q -234 16 -319 -34 l -107 0 q -174 -50 -155 -26 q -192 -101 -192 -73 q -121 -163 -192 -163 q -79 -159 -111 -163 l -79 -274 z "},"̵":{"ha":0,"x_min":-784,"x_max":-79,"o":"m -79 744 l -79 581 l -784 581 l -784 744 l -79 744 z "},"̶":{"ha":0,"x_min":-996,"x_max":-79,"o":"m -79 748 l -79 585 l -996 585 l -996 748 l -79 748 z "},"̷":{"ha":0,"x_min":-698,"x_max":-109,"o":"m -698 8 l -234 1194 l -109 1143 l -573 -44 l -698 8 z "},"̸":{"ha":0,"x_min":-825,"x_max":-109,"o":"m -825 4 l -260 1450 l -109 1389 l -675 -58 l -825 4 z "},"¨":{"ha":669,"x_min":79,"x_max":589,"o":"m 171 1466 q 106 1493 133 1466 q 79 1558 79 1520 q 106 1623 79 1595 q 171 1651 133 1651 q 234 1624 208 1651 q 260 1558 260 1597 q 234 1493 260 1520 q 171 1466 208 1466 m 500 1466 q 436 1493 462 1466 q 409 1558 409 1520 q 436 1623 409 1595 q 500 1651 462 1651 q 563 1624 538 1651 q 589 1558 589 1597 q 563 1493 589 1520 q 500 1466 538 1466 z "},"˙":{"ha":341,"x_min":79,"x_max":262,"o":"m 171 1468 q 106 1495 133 1468 q 79 1560 79 1522 q 106 1624 79 1597 q 171 1651 133 1651 q 235 1624 208 1651 q 262 1560 262 1597 q 235 1495 262 1522 q 171 1468 208 1468 z "},"`":{"ha":500,"x_min":109,"x_max":450,"o":"m 109 1641 l 187 1750 l 450 1562 l 395 1480 l 109 1641 z "},"´":{"ha":500,"x_min":79,"x_max":421,"o":"m 79 1562 l 343 1750 l 421 1641 l 135 1480 l 79 1562 z "},"˝":{"ha":802,"x_min":79,"x_max":722,"o":"m 627 1780 l 722 1685 l 468 1478 l 399 1548 l 627 1780 m 308 1778 l 403 1683 l 149 1476 l 79 1546 l 308 1778 z "},"ˆ":{"ha":601,"x_min":79,"x_max":522,"o":"m 79 1583 l 300 1694 l 522 1583 l 522 1476 l 300 1548 l 79 1476 l 79 1583 z "},"ˇ":{"ha":609,"x_min":79,"x_max":530,"o":"m 79 1692 l 304 1619 l 530 1692 l 530 1583 l 304 1470 l 79 1583 l 79 1692 z "},"˘":{"ha":645,"x_min":79,"x_max":565,"o":"m 325 1468 q 161 1523 234 1468 q 79 1661 87 1577 l 202 1661 q 246 1608 210 1629 q 321 1587 282 1587 q 397 1608 361 1587 q 442 1661 433 1629 l 565 1661 q 484 1523 556 1577 q 325 1468 413 1468 z "},"˚":{"ha":667,"x_min":79,"x_max":587,"o":"m 331 1313 q 153 1386 226 1313 q 79 1565 79 1458 q 153 1745 79 1673 q 331 1817 226 1817 q 513 1745 438 1817 q 587 1565 587 1673 q 513 1386 587 1458 q 331 1313 438 1313 m 333 1442 q 422 1478 385 1442 q 458 1565 458 1514 q 422 1653 458 1617 q 333 1688 385 1688 q 246 1653 282 1688 q 210 1565 210 1617 q 246 1479 210 1516 q 333 1442 282 1442 z "},"˜":{"ha":637,"x_min":79,"x_max":558,"o":"m 558 1506 q 530 1522 554 1508 q 460 1536 506 1536 q 337 1510 405 1536 q 198 1480 258 1480 q 107 1498 133 1480 q 79 1518 81 1516 l 79 1641 q 114 1622 81 1639 q 212 1605 147 1605 q 331 1627 268 1605 q 466 1655 407 1655 q 537 1640 518 1655 q 558 1623 556 1625 l 558 1506 z "},"¯":{"ha":635,"x_min":79,"x_max":556,"o":"m 79 1621 l 556 1621 l 556 1500 l 79 1500 l 79 1621 z "},"¸":{"ha":405,"x_min":81,"x_max":327,"o":"m 87 -194 q 141 -202 113 -202 q 188 -189 173 -202 q 202 -155 202 -177 q 172 -97 202 -123 q 81 -63 141 -71 l 177 34 l 298 20 l 242 -38 q 307 -97 286 -62 q 327 -173 327 -133 q 306 -252 327 -214 q 249 -303 286 -284 q 169 -321 212 -321 q 87 -306 125 -321 l 87 -194 z "},"˛":{"ha":399,"x_min":79,"x_max":319,"o":"m 319 -274 q 246 -282 286 -282 q 124 -243 169 -282 q 79 -133 79 -204 q 165 16 79 -34 l 292 0 q 225 -50 244 -26 q 206 -101 206 -73 q 278 -163 206 -163 q 319 -159 288 -163 l 319 -274 z "}}}
